/* XPM */
static char * wall_plants_2_xpm[] = {
"128 128 73 1",
" 	c #65625A",
".	c #4E4A40",
"+	c #5F4D31",
"@	c #614C2C",
"#	c #7E7B73",
"$	c #B3AFA8",
"%	c #817E76",
"&	c #7F7C75",
"*	c #87837C",
"=	c #8F8B82",
"-	c #3B3729",
";	c #4E3F25",
">	c #6B624B",
",	c #33281B",
"'	c #362712",
")	c #7A776E",
"!	c #6E7315",
"~	c #888D14",
"{	c #94A124",
"]	c #D8DE4C",
"^	c #44361E",
"/	c #6D6A61",
"(	c #57472C",
"_	c #74716A",
":	c #726F68",
"<	c #3B2F1D",
"[	c #615E55",
"}	c #5C5952",
"|	c #695537",
"1	c #7A5E35",
"2	c #A8A398",
"3	c #AFABA0",
"4	c #98958E",
"5	c #C4BCAE",
"6	c #8F896E",
"7	c #597509",
"8	c #B3BD2A",
"9	c #797C59",
"0	c #8F734A",
"a	c #9FAD38",
"b	c #58821A",
"c	c #63911C",
"d	c #959288",
"e	c #423F36",
"f	c #8B983F",
"g	c #565248",
"h	c #5A574D",
"i	c #1B4505",
"j	c #506109",
"k	c #728E30",
"l	c #29540A",
"m	c #3C6D11",
"n	c #3F540E",
"o	c #4F5930",
"p	c #32610D",
"q	c #A4B152",
"r	c #586A32",
"s	c #4F6C21",
"t	c #799413",
"u	c #89A31A",
"v	c #487618",
"w	c #103304",
"x	c #6F9F1B",
"y	c #9AAE19",
"z	c #3C3E0B",
"A	c #B6C260",
"B	c #221D0B",
"C	c #6C880A",
"D	c #2D2611",
"E	c #67763D",
"F	c #9F9B91",
"G	c #C6CC3D",
"H	c #A6BB1D",
"    .+@+ #$$$$$%#&&&  +@@@ **%*#=&%&&&&&&&&%&&#=  -;> ,'@$%#&#) =@@@!~~{]^>/>(+@@@@@@@@; #&&&&###%_:_##:  ,<@@@> /) [[}}}}}}}}[ ",
" -,<<||1+ #$$&&#&&&&  +@^^2#*##&=&&&&&&&&&&)___// -^-,^;&&3$4=&&&/ 567{8[%#&#&) 9+@|1111' &####)___)&&   ,,^@@@^   //}}}}}[     ",
",,,<<@@1@ #&&_#::_&)  +@^^%#*#&&%&&&))_____:::#}/,,^,^(##$$$444&&&&&0a|>bcd4=#&&# )+@1111e #)# f__#&:  },,^''+@@,,..<,,,,,,,,,,,",
"+@@@+@101+ &#)#__:#  g@@;^-&&)______:___/___#%hh.,^^-5#$$$344$$44d ijklllmck#&&#&&&# >@11+ /)n{{_##  /,,^'',%&/ <',,,,''<^^^^^^@",
"@@@|@@100@-#&&: _:)  ,@@@^<[#__________ /#&&[[  ,^h##*$$$44444opqr    slplpppls&&&&&  ^@@1<[ntnu    e,,^''#&=4&  '''''^^^^^^^^^@",
":_/|@@100|+h&& :__#  ,@@@;^e _: :):___%&&# h}  <<^#)=$$34444ibqhg}}gggopppplvs&&&&#_: ^^(@@ntunte  ,,<^'')66qq6> ''''^^^^^^^^(g>",
"&)  @@1001+&&&___/  [,@@+@^<-[}}}}}} [}}}}}[ .,,^6gsd24444wbrhg_#&##&%hrxxckg%&&&&___/ ^^^j7ytj7eezfAfbvpiiwwwwia'''^^^^^^ &#&=%",
"&): +@@001+)&&___}  ,^@+) |^<-} [[[}}[[   <,^,,^^'ebxd444iqgg &&&&&&&&#g.  )#&*&&#____: /^ztuzl~abiwwB_)_)   [.ewk'^^^^^^##4444&",
"&__  +@111@ &&___} ,,@@#rg  ^,,,,,,,,,,,,,<,<^^^^<gppk44iqgg:&&&&&&&&&=&#4=&&44=&#____::: ^Cuj7vwDDBB_=$$444d&_eeiA^^^^d*4dd44=&",
"&___  (@11@=&%__*} '@+d&Ekh#  ^^^^^^<<<^+@@+;^^^^Dvmlb4iAh[&&###&&&&=&&&&%&&&44%&______:_/ ^C!{DD^'.&444444%&__}}Bv^^nnj7uC*44&&",
"#___&) (11||%#%::}/@@@&&vvg_  +^^^^^(@@@@22F4d^^^DxlivpAgg&#%#)##&&&==&&&&&&&)*/)__::____: >vzD^^'3&44444=&&&__} Bi!jCCuCC>44&&&",
"#____& .@11+#&&:: /+@;:Eplsg  ++^^;@@@@@+/&&%) ^^zxvlvvoh####))##&&&&%&&&&&&&&##_:_/:_____ !iD^^'*%4444dd##&&:_}[Bwnjyujj{ 44&&&",
"#____#) <11@:&#g9 /+^e[cmmxe -+@@+++++2=&&# 4&# ^Dcmvpag ##/))#&&&&&&&&&&&&&&)__/:_______# {w^^<#&44444####&&__cmlmx!!ljt 44&&&&",
"_ ::_&: [11@ #*.pr <^<cvlpxe ,106#&=44444%&)4&#/ D7pbvo})_)/))#&%&&&&#&#)_____:9lo_: ___&}{lD^^*&44444%#)#&44:kbmplmcin7k/4#&&&&",
": :__&/ g@1@**&.bbre^^xplsxB,,00@ 4$$3444*%&%##: ,Dxpve#:#))::__/___: _*______:pvo:__)&&)>bw^^'#44444**&##/44kbpvxxmxj7k 4%&&_##",
"___ :#  -@1@$*#.vibs^^xvmsv,(1111)=3$3444&&&##__  DDlk #__/::______/ /_::/___rbppo)&&%#} twD^'=*4244&%###&446vvcbxbx{E  44&&&&##",
"_____#  <@1@$**.biix^^xvivrD^z(11^ Fd44&&&&##/___} w{D^ /_::___:_ }}}}}}}}[[rcslvo     ECwD^''#4444#&##&&&44mlllllmp/  4F%#&&&#:",
"_____#  ,@@|$#:ocilp;^sikg5$55+111[#4%&&&&#_gp9__[oCD<^-[ }}.g}}}}   he-<,-hcspixD,,,,{pBB^^'5&444#)#&&&&)44.g.ee,Db)d4d*%##&&%*",
"_____&  ,@||5##nbiwpn^p/#44d#/ |11,)&%)))::_.lx:__ij'<@^,.  [     g,,,,,,,,,cpiixB,'juiBB^;+'/%=#)#)##/&&/44__:}e,Dv|=d##&#&&)__",
"__:_)#  ,|||)#}.xlwlBk%44$34d# /@1;  / }}[_:.pl7/it-'8D@+,,,,,,,,<D,<^s^@+||siimz'~CiwD^^+@@';/#%%%}&&&&%*4:___} ^Dlz#**6):& ___",
"__%&[:  <@@(^!aCBipbt76F9E$24%# +1|,}}}}}}}[.vpmxit]{~D@@@@+^<<^^sD<+@lz^||n@ms7{mwDD^^;@11@''  _))::__:______#  (<wf*#A]g)_____",
"#}}}}   ,@(^yut7aixvvmplm$$44## h11;,gge<,.[nvplv7]8{8'@111@@@@@@bb^^jlc^^az5aklwD,^^^+@1111'',/e //_)#)))__)&& h@^wu)%~~(____)&",
"}}}}--. '@jytCCCCblpplim94d4d=&/ @1@@<,<,<,,Bcpipy{~8G^111@@+|22#bixsclvc]8{bwgg[#)>p@@@1111@'',,    }}}})&&&&&}-;^DmfA~!]._/}}}",
",,,,,,,<^^CuyyH87pvllvxr44d4dd*&_ +@@@@@@@@@+cvlb8G{GD@|@>5#&&&*=kiibcll]~8G-xcCbvvp- @@1111|('<',,,,-g   [}}}}[,^|^w7GH~G-lmll[",
"z^++@@@@+^DDD7yutnnvxxr44ddd4d4*#:[-2d>++@@@+^scl!zDD(@5%&##=4$$$kiixmpnG~88ximvplpc_ +@1111>:2[''',,,,,,,-g    ,^(^<iu8Czvcmbbm",
"cl+@+++@^^^^^Dztp.hh  4d4d*#&%*444*-&&&&&&&%  ^<wj'D^@+&#$$$44444rmocplby~8jwiiblmxg&# @@112$F#&/[D'''@^^^<,,,,,,^<@^^m~ubxcxxxc",
"mmv#&#&[/^^^'''Bf,.g*444%##&&&&&%&&.#&&&&&&#:}>;w!'^+'3%$$$444444d7njtnl87Ariinmxbg:&_  +@+$$F4&&#/ +@1|;^^:$/-<^^^@@~nznlniliil",
"xjog$$4#% ^'''''qD #44=###&&&&&&&&&)&&&&&#__:}}@wfD^''&$$$4444444dfHuCCy8aghokccsgg&)__  @@*444&&)}} |11@^:44&% *.;(+unsCciilmmb",
"^;}=$244&# ,''''q<; &%&#&&%&&&&&&&#}&&&%)%#::/}(oA'<''&4444444=#CtCjn7j7tcg%}hg /#&#___/ +@+)4&&_}}},(111([2$$F4%#&&%~n!t7xvbcn^",
"+F3$444##&# <'''q^@e)&&&=&&&&&&&#&&-&&)___::_)}[+cD'''#444444&&&:7HHHyyCtcg)&&/44&%_____ g@()#&&}}h,^@@@@+22$FFd444*&{nC7ohhg..<",
"|=d444d&&&&# <''m^@+ &&&*&&&&&&:4d##9:_:::::)#}[@pD'''&4444d#&&#&g7CyHu8!cgg&&/4F&_____:g mz;&#}}},,^@++@(^4ddd4444446!C7g%&%}};",
"@_&444&&&&&:)  'wz++, &##&/#)&&/d=::s/__:::__#}g@i;'';&=44&&&&&&#:.s7Cu7.Awhg#/*:___:__:rpbz@ )}}D,^^$  +^>=4d4444d&#&{jjg&):}}^",
"@ %&d&&&#&____  DbD^^.#:____::_____Ems_::::_/&}e@wq''//&&&&&&&&#&#&&ggg..:kw.g.:__:::::xmlbz@:[},,^g&&  ^^)*444&&&&&&&#{jg___}}^",
"@  )&&&&%_____:} Bk^^^ %:__________kmc/::::9.#}}@;qD''  /&&)__:/ [[ /:____:Apwe...: /:bvmixn@/}},^^/&& }^^/&=&&&&&&&&&&)9h:__} -",
"@,h  #&#_____}}} <wA^^zh}}}}}}}}}}}vllc_)_ p-}}[+oq,'',   }}}h}}}}}}}}}}}}}}rAkpiwi..}cpipxz@+}},^^ && }<^>&&&&&&/&&#_::____#)}-",
"@^^,  /___/}}}[/-,Bwxmlpk}}[       clwxr}}kioe},,oq'^''',  }}h[h.-,,-g}}}hhh}}}h+EAkiwoilps<@@} ,^^#&% }-^|#&&&) _____::_)%#%% ,",
"@@^^,, }/}}}[g,,,''sbliwpz,,,,,,,,Dbmmls,,mlxBB;1;q!^^^^^-,<,,,,,,,,,,,,,,,,,,,,,-,,DqwvsBB@@@<h<^^:[}} .^^[[__: _)&&&##&)[}  }'",
"@@@^^^,     ,,<''''bimccbx''''''''Dbmiis,,sils@01z7~^^^^^^^^^^^^@@@1@@@@@+++++@+++@^^<bBB<+@@@+(^^^(h}  ,(; }}}})%&)/}}}}}h h}g^",
"@@@@^^^,, ,,<^^^''7mxbxmcwipkAqj'''bmmlB'zmiixn@!tCC^/==**=F;^^^+@1111+>5d:::::_9xbpllaDD;@@@@@^;^+-<,,,,@@+,  }}}}}}h-,,,-,,,,+",
"@@@1@@^^^,<^^^^^^'bbllllwBBBBBwwilmxbbbB>6blwp77CHCz*#**%##&&&&)/>>001&%$$$3=bkcmslpbpniDD^^@(^^^;+;<<;;+@@^^<,,,,,,,,,,,<^(;^++",
" d+@11@@;^^^^^/ =^lBBBB.g))#&/ggg.eewiva9)xiibCHH7ugd$$d4d&&&&&&#  011=$$$$$4kimiplppxeuwDB'^^^^^zn;|34  @;^^^^<<,','''';22225d}",
"##_ |101@@@(@**&#.e}'''/&F$244d4=&[hggg-icxllHyH7jy)$5$d44&&&##/&  01@$$$444dd9csvvvxgg#{iee'^^;fh*=4d&  +^^^^^^<''<5***##&&#&}e",
"##&) +001@@+3$4&g%  ^^([d$$$332d444444/hhhica88jjuf$33444#&#&#&#_}[01@=44F4dd4449bCshh#&%fpiB''e[3$F44#  ^^^^# (''')*==4d444&&g&",
"#_:__ |10@@+$$4&%&} @@@_2$$$344d4444%&&%/gewHjnjjy:$$444*&&&&&&__}[11+=444Fd444&&%%&&&&#/_~vBD'l#$$444&  ^^^$&& <''_$$$d4444&&.&",
"__*%:)/|1@@5$44&&&} +1@3d$4444d44&&&&&&&&_.-wyCCH#$4d44#&&&&&&)__}[11+*FF44&&&&&&&&&&&#rh.}rvD<iF$444&&} ^;^#%&  '' F3444444&#-&",
"__):*_[[@@+$244&&)}}|1@5&4444d=&&&&&&&&&&_:}ei{<[FFd4d&&&#&&&#__)} 11>%44%&#&&#&&&&&&&_vx.} !iDwF444*&#} ^^^4&&) '<:F444444&&%}#",
"__::_)} ^@5F44%&&_}};1@$&4444&&&&&&&&&&&&_:}gBb'/Fd44&&&&#&&&)_:&} 1|F#4*&&&&#*&&/&&:_9lv..g-bBw6444&&_} ^^>4&## ,^Fd44444d&&&#*",
"_:)#__} ^@3%44#&&_}}@1@%&444&&&&&&/&&&&&#_/}}DiD}d44&&#&&&&&&_:_%} 115%&&&&&=##:):____cilseh ~iw644&&&:} ^^54%&&}e'<&44444#&&%#)",
"__/ :#} ;@=*4&&&__/}111[##4&&&&=%%/#_&#&___}[;iz.&4&&&&&&&#&___#[  11, #________ ____Evlix.}g'vw9a#&&)}h ^(*4g&#}[''_%444%&&&&#_",
"_: :_#} ;@:#&##)_#/}101, %&&)#&%&&/&&&/&__:} ;mD)&&&*&&&%&#___%/   111< _____::______bvllv.onjv7u!&%&_[}<^@ 4pg_} '' &*4#&&&##:_",
"_ /:#&} (+*&#&#:##}}(001     &&&&&&&&&%_ _:}[wtD9&&&%&&#/&_:_#_  -,|111g ____:____:##bswwnCutttHug&#_ #},^@#4po:} ''.)&%&&&&# __",
":__ #}} +@6   }}}h}}<1011    #&&&&&&%%_/ _:}ebD<+&&&&##.)__ _#} ,,;@1111)[}}:}}}}}h}}rvnla8HH8CCH)#_/ &[,^@24px.[},'' &&&##)____",
"__/:}} }+@^     .,,,D0011',,,%)_)&&&&:____:.vzD^+ %&)__.::___/},'@@$ +11|ee.g}}}g}}}h-biwHnnnnjug&__:_)e<@@6Epio:}.'',/&&/:_____",
")##}}[,,+@^,,,,,,,,,|11111+++&:#__________wvED^^@  }__:e:___#}},;+=#_ +@1,,,,D,DD,,,,,,snjjjj7yo)____&hD^+@>klisg}Eu'zr&__:_____",
"&}}},,,+@@@(@+@@@@@@@|@@@@@@@ __:____)_:-l{o},^;@,e_-[:___##)} ,^*44&  ;@|@@@^^^^^^^^^zz^w!utHo:_____&h,^@0+biic-7yymiD[}}}[#%%%",
"} ,,^@@+$9+++65))/ /#)-# >@@@  }}}}}}hwv{;}} -^(@+',,}}}}}}hhh/<^44&&# ;+@+@@+/$3d669xppvif!~f_:____#&},^@0ociibC8C7ip'-.}}}}h}}",
" ,,(@+5&&%#%#&&#%#)#&&)&&>@@@<  [}}-ivuz.}}  e^@@@@+', }}}}}[:.^;/%&&&  ^@@@=&#&#&&&cviiiw!!~]9__:_##}},^@0svipCt7ulix',,,,,,   ",
",<@@$#=$$$$$24dddd444/%##9G.@@',wlcaz,^-. -,,,^@@+:|@+',,,<<<,,^( [&&&# g@@+#4$$F#&#vpllxDG8j~8h}}}}}} <;@0ssiCHHnullc'''^^^;,,,",
"+@@3#2$$$FF4444d=*%&&_&#_ryA^@ovfBBB,<',,,,<^^;@@d$# >1111^^^^^^;;[ %:   +@+%4$$F=&#pppxbDl{]]]fhhh}hh}^@@|@xj{HuCuibr/ D^^^;@@(",
"@@+%*$$F444%&####&&&&&&__q{];+inBB'<1@^^^^^^^^@@>$$#_ >11(@=_ *+^@<      ;@+#4ddF#&&bvnBD^DvzDD''<,,,-<^@+@+s7HH!Ctlb#&&)/:g^@+@",
"@@+&$$244=#%##)#&&&&)&)__]~H!wABB'j~@+^^^^;-^@@@/_&&  .115&*4#_ @@@,- .,,;@+#$FF&&&&meB^@@@(iqj^^^^;^z!{{{uuuuH7n7ybF4444%###  @",
"@@+&$4444#=d##&&%&&&:&*_hG~8avB]]~!A444d%%&/[@@'D  :  ,0@%$$44& >@@^<,,<^@11)F4&&&&).e,0@(53F_wlvbsvliwio/9]88~GCHcm7E44%&##&} @",
"@@+%4444*#*#%&&&&&&&&)*_.G!~aA]!!!GF$34444&&/ ''',   [<1=$$444#) 2++^^^^^@01/4**&&&_}},0_#=23$$=#%)*,%&#&#]a~7~!ywwllv=d)##&&}[@",
"@@+&4F44*#%*#&&4d&&&%_:_.GC{j{!~~Ga3F44444&&&.-'''<g -1@)$344o&&&#& 6+^;@011%%&*&&#_}},|+F$$$F444F4#-#&&&]{H88]'wmlmill9:#_##}}+",
"@@+&4Aq4**&#%& 44&&&____.]GHABfGG9$4444444&&}#) ''^<g,@+3$444sr&&&&&: +@@01@#&#&==__}}'@+$$3444FF44de&&&6>::h|''Dummmpmlr&&&:}}+",
"@@+&)y{6#&&&&#:4d&&_____g@{lBB,g$$4444444=&#%&#) ''^.+@>%444#vxg%#&&&# +@11@#&&&%)__}}<@6$24444d4/#&-&&:44:_}},'-advcc9&%&&__}};",
"@@+&o8C]#&&/&&%=&&)_____ggiAD'':F44444444&&.&&&#  ';^@@2#44d#vvs&&&&#_}h@11+&&&&):__}}^+5&44&**%#&%&g#_ 4):_}},'wf4=%##&&&#__}}<",
"@@; r8~8f&&/&&&%)___ -wipkr.''' 4444444*&&)&&&&&:h ^^^+d&&&&Eilb#&&#:_ h(11+%&&:/___}};@/%&#&#%#:##________#}}''vEs%####&#:__}},",
"@@(,;]8{#__::/ewlvfAfogeegh<''':444444&&&&#&&&&_:} ^^^s+&&#&xlix[#__:# h@119////  }}}[;@@/&&&#)___________&&}h'w7yC##&&&):___}},",
"@@+@BBG{ zisfqko..gghg.}}[,,'^;d44444&&&&&&&&&&_/}['^^b!_&ramiivo____: }(@1F}}}}}}}}} ;@@   }}}}}}}}#9rE)) }}gDc7yyn&&)_____}} '",
"@+@+@^wa-ee..e }}}}}}}} <,,+@^^Fd444#&&&&&&&&&#_/}g'^'vls&Cuvilmh_:)#*_}g@1^egg..e-<,,@11'}}}}}}}}}sxbmlps}}}wbCnzy7:___)&#}}},<",
"+@@@+z^^B, }h}}}}}}} },,,^11@^^(444&&&&&&&&&&&)_ }e<^^vilsytyilv)%## }}}}@@@+^',,,,,<;1111,,,,,,,Dxpmiliwlzau7zz77n{nh_#%h}h},,@",
"+6F:i;g+@^,.[}}g,,,,,,,,^@% j!^^d44&&&&&&&##&&__g}-^^^viiny7ullk}}}h}}}}}+@@@@+@@@+@|11111@<<^^^opliplvlliyCHu7<{t777r}}}}}<,,;@",
"+>#dh% >+@@<,,,,,<^^^^^^;6##HH^^*4%&&&&%&)FF#&__g}<^+^xiltyt7Hm-eDwwD,,,,^@@@@@+@@@@@@@111@+@@@@@@j!xxbn7zC78Huz^^z^D,-}}e,,'''@",
"@.%s4*  ^^^^^<^^7uHyH{z@1%#7HyD^_4&&&&oE&#d4):__[}<<+^xiiCH77Hwwvf{kz^^^^(@3 :2^^@@4* h@@@+95$$53d6:>@o$/w7C7Ht7^^^^^^<,,,'''''@",
"@(*944: ,^^^^^^^DHCnjCu16#7CtuB^/&&&&#cb &#%#___[}<^+gbsi{HnCtp{DDD^^^^^++5#&  ^^^6#%//'+&%d44d&&&&[[@@  kyCC7yH7@@(@@+('''''''+",
"@;*344##//=+@@+@<7yHt7nu>suuttn^ %&&)pmc[*##:___[}<^%&^btCaju{z^>//#++@@@<     ^^2F&*  ''*43$44&&&&}[@+ w''qyuCCC7@@@+@''''''''+",
"@;)$44&&&*#&#} +1;7uHHjjHu8H7tj^)#&/lbvcg/4=____:}-^$&/^^'HH8~]6=&e# [+@@@,   e^^33#&  ''4$$$44&&&&}g@+ k'#&%9k!k9%%&#&##&#) >.@",
"@;h$44&=#&&&_}[<0(jCuy8jy{H8Cuz^d##lcxvch=44____#}-^#&#@;/i8!!!{q4-&&# +@@^,,,,^3d#*#  ''4$3444&&&)}-@(wkF=d444444=&#&&&&#&&)[}|",
"@;>444&&&&&__}}(00/rtuuozHH77yD^3%#mxclco:d___:)&}e^,,,++wq#{{Hq 4.4###  @^^<^^^%*%#   ''$$F444#::[}<1^b;&44$4444444=&&&#&&)_[}+",
"@;)44&&&&#  :}[111%%_ geeHCCtD,^3))bxxpmo_######%}g^^(@@/f:$_aE 44e*&&&&) +(^(@6/%#   .''$3444%&#&}}^0zE#4$$$$444444&&&)/##::[he",
"@.&4%&%&&: _}[[11d$$$4& g;fuBD'^. /cxilbe}[ /)#& }h^^@@+l93$F44444#h&&&&#% :@@@+[#   <,'>44444&&&&}}+0m5&44444444dF&&&&%)#:::}}-",
"@.%4&&%&:__*}}<11=$$24&&&#e-kD^^< hlpimse}}}}}}}}}}^^+(oc#$44444%###&&%&#&& _+|0'   ,,'<54444)&&&:}h>^q=d44444444=d&&&&&&#:::}},",
"@g&&%%/__::#[h,1|$$$44&&%&*&ewbAq0kkxcxuCbbct{kD,<-^^@(wA/4444%&#*#%&&)d&&&#h>@01. ,,''^#244d&&&#)[h0D'_4444444#&%&&&&&##)::_}}D",
"@[ )____::*/}e'@+$444&&&*&#))/eDBwwwwwDDDDDDDwwpq',^^[@i6/444#%&&&&&&)44&##::[>@1|,,''^F=444#&&&#::}0w'%44444&&&&&&=&&#)#:::_}}D",
"@, }[__)_)*}},+@|*44*&%#:____:/[;^^<^;|(+(^^^<'Dwb!^//^if)44&&&&&&&&&/44##))_}[+11<''^^#442d&&&#__#}1l'%*44#&&&&&&&&&#)#):___}}D",
"@^,e}}}#*%#}h,@@6&d#&#:______::/ @@@0000@@@@@(^^^Dwf//^wA}%#&&&&&_:)&)4d##)::}}+11@^^^3444#&&&#):_#}+n'&&&&&&&&&&&&&##))##)__}},",
"@^^',<}} .sv-,^@%&&# } [ /::/}}h} @1009/>|+++@+(^)_gpA^wag&&&&&&&&&&&#*_/4):_}}+1F@^^2#44&&&##):_##a87^#&&&&&&&&&&&##)#)::__h}}<",
"@^^11<nccplx-^^@/  }}}h}}}eog}}}.,+@1@&444&&&&*_/**)ewA^mg&&&#&&&&#)_:__4F%:_}}+16|;^< #&&#/)):::9y77Ca##r)&###&%&##&)#::og&}}-+",
"$*(@rx7lilv,B+@@   }h-,,-ovveg,,,(@@@544444*&&d&*)#:}eDvwA_:_/__________/4__:}}+@|_+^^ _#&._ [:##HC7nnjEbvxh ______:::d)_pge}.,@",
"&&#[xolilvzB,@@@,,,,,,zcblvzB,,^^^^@+#44=#&&&#%:_):_}}^!8]]q:::__:__________&[}(@+# o(^ ..[hhh}}kCnuHHHvpmmmr}}/___:: 44Emoeg,(+",
"&&#olnipvx'''''+@+@@ocCllicDD^^: ^^^9)::/:___:#):// }}!G8y{{A_:_:/ }/_#&&&&&&}}^@+  p^^,-}}}.,,,HtHuyubbllimlo}}_____/4dvvseB'+#",
"&&[kiimbcB%:__ <''''xlnwivnD/#&  ^^^+  }}}}}}}}hh}}}}|]aj~!~~{(g}}}}}}}}}h}}}}h,@+  lk(^,g,<,,''u8C7v7izvb7k,,,e/_____:bvlx,B^$&",
"ggibp7clo  %4#  '''sinllpbhg,#_}[^zj^,,,,,-g [ [.-,,,]{{~H~8!wiv{~D,,,,,,,,,,,,,@+^@lm^+^,,<^@+zuz^^vwpxz;^^^^^^[____##xpixBDd&/",
"ibuGG8Aqkviwih/ '''ci7]]G{k!!_:}.^lc^@@+++',,,,,,,,,!C8]]]]aBBBBwimt{z<^^^<,,,<^;@@kipn@@+@@|$=zz^^ziipvs^^^^^;^-}}}}}rblwxzD[) ",
"rggfayGBg >EAkmww''lG~{~~{GE}_/}^-bvz;@@+@1111111111j1@(^^<,<^^'DDDDwivuk^^^^^^^^^nvlsv.%F*#&&#&#):rpivbs: >+^^^^,[h}}bvpicz) iu",
"__&9~!~]Bed[g.eoqvb~G~~88][ /_ }^lcmc^^@@@1111>>11111|+@@^^^;^^'''<'DDDwwv{z^^^^^zxmlpvh&#3$$2444449vllx &}}@@1(^',,,,spll77CCyC",
"__)F8]{C].g&& e,BBEH8G]8Eg&%_:[}<vcmbr>sssj39*4$$$$3=*d44*%&%)  '''DDe-.hhwiuE>hhbvmils)3o2$$24444*&cppn&:h}@11@@''''@zvvCu8yut8",
"_://)EGGaBe&#  ,B~tjtAbwi}&#__}}lbcvmxcpjspvlpF$$$3$$$$4444### }'''$#=4*   gwbf#}xplij9)%p)$324*&&#&Epv.#:hh@1@+++++@(^kwuHHCCt;",
"_://  +||;  )  ,nCn~H7 Eavw-[_[}pbxpvxllililk  444444444*4&#)) }'''34$$44#ggh.iq}clvib_6kv_F=&&&&&&&&9m#_:h}@19#*&&% /^DpH77cuH:",
":_:} [,@@@^   h+8C7Ht7:hgg!{vww}lbxppxlwlncshg#%#%&&&&&&&&#)_)/},''4$$$4&#& ghhwarplsf~cilo &==&&&&&&&s):: }^1(%4%&)  .iuD!aH!e_",
"#_[} ,;@@@@,. ,|aCjHto&&#gg.({klwxxvmbilmxiBeh}} &#&&&&&&::::__}<''%$34#& 9#:gg.iAvi]8~sivs}*=&&&&&&&#__::_}e@+#&##  ewuDDDBBB :",
"  [/,,@6+@@+,-<|ju7H7g&#44#:eg.^!CbbsosoDBBBh}}}}}#&&&&&#_:::)&},''[*4d&&gvvcxxv.if]~~Glivs[&&&&&=#&##:)=%_}}@s)&   ewtDD,DD^+, ",
"  hD'@+44d9@@|+11atHrh& 4%:_:_}eB;DaiwB,'''',,,,,}}:__/ _%##&&}},''(&##&&goppispb-l]~~]wpcg)&&&&&&&#___/44_}}(p    .wbDDD$/'^'+,",
",e,,@@>/&%&)6(@119Hu[h*#&)___/#}B;;BAvw''''''^@++, }}}hhgg}}}}}},^^;&&&&&/gkmplpm-wa8Gpwmxg&&#/%&&#__::d44_h}Ep>  hBlfD'd*//'''@",
"+,^(@@     // '11%#{/&&&#___/_:},@;^BBkw_)_:[)';@@,[}}}..g}}h-D,^^^<     .ggxmvlpoelDnlmb.g_:  _: /)_:_%44_}evlk,,Bw{DD*FF*# =/+",
" 6((@|@, /:  ,111&#%&#&_______#}'@@@<[gAi4d4=% _'<@',,,,,,,,,,,<^'''gh  -)&}[xxt.eewqnoo..___//_)/:::___d__.eslnz<~bD,*3$F#&&&##",
"_}/(101@(,<<,1111 &&_________#%h^@@+&__)Ai444%&& g'@;(+@@@@@^^^^;''''',,,##4d}.geeeDaee-,._____:::::_____)_enlilvz{{,_4$F&&%&&&#",
"_: g101|@@+++1111 )}________:))h(@@&$$4  fph4%E7ssrj7t@+=d  3.e(.e-<D'''+)):d__&}eB<beeee}}}}}hh}}/)##):::_eclilt{yDgFd4d&&&&&&#",
"__[h@11@@@++@@@@++,[} _____))_hh+@+$$$44  kCi9HtHCyHtf)&d44*&&&%&&%% h''9__:::#}}eB(vBe.}.}}}}h}}}}}}}}}}}}-clil]~8gdFF=9sg&&&#_",
"_:[ @11@|5)&  @@@@@,}}}:/)#)}}}}+@$$$4444  obuyHHH7CH9#$$$$44444444% }''|::__)}}hD<+mz,,,,,,,,,,D,,,,,-e.h}evsiGy!G/Eskvpkg%&#&_",
"__} @1||%4#&/ ^>*+@@(,[}}[}}[hh,(+$$44444&ggsunnjjCy^g%$$334l444444&[}'(@}}}}}}},'@;if^@+;((+@@((;^<',,,,,,,BxiG8~]msmppvg.&#&%_",
":_h @1@ =44&# .+d%[@@@',,,<,,,,'@&$F444&&%hkljtCCuHB@</449pxcd4444*#}},@@ }g-<<,,@0;wA/|+@@@111111111@@@@@;^DDci7Gbnlllbsg&&&&:_",
"& } +@@_%44&&  ^+ ,@@@@('''<+@@@|&4=#%*##&bmli7fHieD^@ dlmxvc 4*##&#}},@+<',,,,'+@0;wk&&#  +11|@@+>22)&&):[^^,Ds{iivivvsg)&&&___",
"_} h+@@2&4d&%  ^^,@@@@@+++@@5111 .&&&&=#&&bswix.eAbw';>pmbvpch#/&&&:h},@@@@@+@@@@@@DDb#   ,@@@5)&&&*444&&&: -^DwAplpmxv._&#)____",
"} /,@@@344&&&  ^^^^;*%#  [(@ |11, g&&&&&&&xlipxge-BAmwzbbclmch&&&/):}}D@6F235$@@@+=eDp> e'@+=##$$444444&&&&  ^Dlrggoog/___:__%&_",
"  g<@@+&44&&&  ^^>%44%&  <++% |11e :_%&&&)xmivC.}B<;^qvcxiilg)&&&##_[h,@ 4*& }+@+%&eDik,;@+#&$$3244444*#&&&  ^Dbgg.._::/ }}}}}}}",
" ,,;@@5=4&&&&  ^^6*44&&  ^@3&/ |11-}______cpicoe,,0;^^z7mipEh&&#&#&: }-@/4#)}}+@3&&eewa^;@&*44E64444*&%&&&%  ^wAeeg}}}}}}}}}}}} ",
",<+(+@_=&&&&/  ,^(*4&&)  ^@*&## 111,}}*_::xmib.e,00#e^^zxxoo)%&&&44_ }e@3%) }-<+4#bs-wa;^#4drCt4=&#&&&&&&&%  wbD-[ }}}}hge<,,,,,",
"++@@@@ %&&&##/g,^^*#&&  h((2     111,[}}h}rxmkee,01   ^^{yHHuC)&)4)_&}e@d&}}h,+d4 cmcbfd97jj~tag&&#)&#:/#&# evj,^^,,,,,,,,,,<++@",
"@@@@@@3&_&/    -^^*#_   ,@/      h111,gh}hhkmcee111-   ^HC8Hyt7:___:&}-@+[}},+944gpbpvxjj77~tHo_&&&&&&%%&& [iqD'^^;(;;^^^;@+@@@@",
"@@++@+(        e^^/    [,+ [,,,,<^;111',,,,,xbBB1111,,,,HCntHuC7____/},@@}}D+|&4&}lcxpmC!!~CCne          }wvmbxxs^^(;+@@++++@@@@",
"#&_>+@+   .,,,,<^^   ,,,,+<++@@@@+@@@|1111111p;;1111+++^Dtn7nCHys #)}},@@[,++&&&#}obxxpC~77tHee      [giibABlpvpbckz>5*&&&&)[ :#",
"##_[>@+ -,,,^^^;^^-,,,^^(@@@@>6$$2d6%26+|>65F>;;1111@@@('jC77jjCHe-}}},@@<+@#&&#)/gmbcvcn7tyBBB,,,,DwwpkABDDcpmllpplpd4444&#)#&#",
"__:  @@<^^^^(;;^^^^^^^^@@@+5&#&***&)))#&&&&#&%.e26>+@@@*).Dz!aaHyCnhD,<@@@@>_:::_)hell7j7bywwwwwimbkAkB^^;^DDmvvpmmk  &&&&##/))_",
"__:} (@@@@@@@++@@@^;^^@@@5#44$$$44422F44444d=##&%   @@5*% .DD'DDDBB,,^^z{{;.}}}}}}}}eDzHHH{{aaafrggg}})#/ @DDDvxxcrh}&&&###)____",
"__)[ <@@@@3$_%)::&&) ^@@+9d4$$$$44d=d44444d*##&&&  <@@&%/ ,^^^^^^^,<^^]8~Ge}}h}}}}}}[+^'D} ))):   dFF=### ++;^<#[hh:#&&&#)__:__:",
"&&&  (@@>##33333$*&&  +@@+_*#&&##))#&&&&&&&&#&#%/  <@3  e,@$: (;;^^^^]H~yjD,,,,,,,,,,+@@&4d%*=4444d=*#)##  @@@@/&&&%&&_:____%&&&"};
