/* XPM */
static char * wall_plants_shadow_thunder_2_xpm[] = {
"128 128 73 1",
" 	c #7F7C75",
".	c #7E7B73",
"+	c #33281B",
"@	c #726F68",
"#	c #65625A",
"$	c #5C5952",
"%	c #44361E",
"&	c #74716A",
"*	c #614C2C",
"=	c #98958E",
"-	c #362712",
";	c #7A5E35",
">	c #5F4D31",
",	c #817E76",
"'	c #7A776E",
")	c #B3AFA8",
"!	c #6D6A61",
"~	c #2D2611",
"{	c #29540A",
"]	c #565248",
"^	c #1B4505",
"/	c #615E55",
"(	c #3B2F1D",
"_	c #5A574D",
":	c #487618",
"<	c #423F36",
"[	c #87837C",
"}	c #32610D",
"|	c #6F9F1B",
"1	c #3C6D11",
"2	c #58821A",
"3	c #959288",
"4	c #103304",
"5	c #4E4A40",
"6	c #4E3F25",
"7	c #221D0B",
"8	c #57472C",
"9	c #6C880A",
"0	c #8F8B82",
"a	c #63911C",
"b	c #597509",
"c	c #695537",
"d	c #3B3729",
"e	c #A6BB1D",
"f	c #89A31A",
"g	c #9F9B91",
"h	c #3F540E",
"i	c #506109",
"j	c #799413",
"k	c #728E30",
"l	c #3C3E0B",
"m	c #94A124",
"n	c #4F6C21",
"o	c #AFABA0",
"p	c #4F5930",
"q	c #6B624B",
"r	c #B3BD2A",
"s	c #9AAE19",
"t	c #A8A398",
"u	c #8F734A",
"v	c #888D14",
"w	c #797C59",
"x	c #8B983F",
"y	c #9FAD38",
"z	c #586A32",
"A	c #67763D",
"B	c #6E7315",
"C	c #D8DE4C",
"D	c #A4B152",
"E	c #C4BCAE",
"F	c #C6CC3D",
"G	c #B6C260",
"H	c #8F896E",
"dddd+--dd<]___]5<<<<d(----<<<<<<<<<<<<<<<<<<<<<<dd+~dd+~(<<<<<<~777d]&EEd7+<<dd---------d<<<<<<<<<<<<<<<dd+----dd<<<dddddddddddd",
"(++++++((d5__5<<<<<<d+--~~<<<<<<5<<<<<<<<<<<<<<ddd~~+~~d<<]]5<<77d</'!EE+7<<<<<dd+-(((((+d<<<<<<<<<<<<dd(~~~---+dddddddddddddddd",
"77~~~+-(((<<<<<<<<<<d+--~~d<<<<<<<<<<<<<<<<<<<<dd+~~~~<<5___5d7++<# &EEEd7<55<<<<<d(((((-+<<<<dd<<<<<dd+7~~7+<+-~~++++~~~~777~77",
"---(++(6(-d<<<<<<<<dd+--~~+<<<<<<<<<<<<<d<<<<<dd+~~~<<<__<757~+d<#  EEE)d7ld<<<<<<<<d((((~d<<dlh<<<ddd~7~7~<<<<d+~77777~~~~~~~~-",
"---(+-(66-+<<<<d<<<dd+---~+d<<<<<<<<<<<d<<<<ddd+~~<5<5_5(7~7+d<5$'E[)EE3<+~~l(<<<<<<dd~-((~(lhlhdddd+7~~7d<<55<dd77777~~~~~~~~~-",
"<dd(--(66((d<<d<<<ddd~---~~+dddd<<<<<<<<<<ddddd~~+<<5_5+7+++d<5$#E[=)EEg5+~lld<<<<<<dd~~---~hh~h+dd~7~~~d<<<pp<dd7777~~~~~~+dddd",
"<<dd--(66(d<<<<<<ddd+~--(+~~+dddddddddddddddd+~~~<((<]d77+5d<.$$[&[EEEEo$+~ld<<<<<<<<dd+~~~lhl~h++dhhhhdll~~++~l6-7~~~~~~-<<<<5<",
"<<dd+-(66(d<<<<<ddd(7~-d<dd~~++(+dddddddd(+~~7~~~++lhd557dd<_$5]$!oEEEEE'<+7<<<<<<<<<<<d(~~hh~~hhhl77~+d<<dddd++~6~~~~~~<<<5555<",
"<<<dd+-(((d<<<<<ddd~~-d<dd<d+~7777~~~~~~77~~~~~~~~+l~75~+d<5'5d<5@tEEEEE3/<7<55<<<<<<<<<dd+hl~l~7777d<<]]555<<d++~h~~~<555<555<<",
"<<<<<d--(((<<<<<<d+~-+5<((d<dd~~~~~~~~~~----~~~~~7l~77+7+<&<d+7+5&)EEEEE),$d755<<<<<<<<<<dd+hll77~~<<555555<<<<d+7h~~~(lllh555<<",
"<<<<<<d-(((d<<<<<dd--(<<ll+ddd~~~~~~~---d<<<<d+~~~l77+7Edd+777d75 EEEEEEE),_d<<<<<<d<<<<<dddll7~~+<<555555<<<<ddd7ld~lhhlhd55<<<",
"<<<<<<d+-((d<<<<<dd--(<dlll+d+--~~-----+<d<<5<d+~~l]5+++++<<dd<+])E0#$#gEE),]+<<<<dd<<<<<ddh77~~(<<55555<<<<<<ddd~l~~hh~lh<5<<<<",
"<<<<<<<d-(((<<<dddd-~+dll~l+d+--d<<<<<<5<<<<5<<d+~E7+++++<<<<<7d,E$d+~+<],EEE$7<dd<<<<<<<ddl7~~d<<55555<<<<<<<dll~llll~lhd55<<<<",
"<d<<<<<d+((+<<<+ldd+~~ll~~l+d~(6<<<<55555<<<5<<dd~7l77++<<<<<<7!E!+7++7(7+<&EEEEld<<d<<<<dh~~~+<<55555<<<<<5<dllll~ll~~hd<5<<<<<",
"<d<<<<<d+((-<<<+lld+~~ll~~l77~66(d5__]555<<<<<<<d+~l777!<<<<<<5E[++<ddd<<7+d$E=7E7<<<<<<ddl7~~<<55555<<<<<<5<lllllllllhd<5<<<<<<",
"<<<d<<<d+-(-<<<+l7ll~~l~~ll7~((((d5__]555<<<<<<dd.77~l7<<<<<<7#E57<ddddddd(+dE#<7~+<7+dddl7 7<<55]55<<<<<<55dlllllllhdd<5<<<<<<<",
"<<<<<<<d+-(-<<<+l7~l~~l~~l~~~--(((<5555<<<<<<d<d/d+~l~~ddd<<<+&E+7ddddddddd7+E&_d7+ddd<hl77~7</5555<<<<<<<55ll+~~~ll+d<55<<<<<<<",
"<<<<<<dd+--(<<d(l7~ll~l~dd<<<<((((d<5<<<<<<<(~dd<d+l~~~<ddddd<E&7+ddd+++++++7#&#5+7~~+hl77~~7<<555<<<<<<<<55dd++~77hd555<<<<<<<<",
"<<<<<<dd++((<<<ll~7ll7ld<555<<d(((+<<<<<<<<<+lhd<dll7+(~~+dd7$E5~++~77~77~~~l5E#$<+~ll~77~-~~<<<<<<<<<<<<<5<<<d(+77hd5<<<<<<<<<<",
"<<<<<<dd+((+ddd+l~7~~+<5]]]55<dd+(~ddddddd<d7llld+l~li(-~~7~d@Ed7~7~~~+~-+((77E#]5+7777<~--~7+<<<+d<<<<<<<<<<<<d+~7ld<<<<<<<<<<<",
"<<<<d<dd~+-~(66hl~~lld<555_]5<<d+(-+(ddddddd(l~lllhiii---(-~<[E+7~~~-(l~~(d(+7EE]5<d777@-((~7~dd<<<<<<<<<<<<<<<d+~7~6<<p6d<<<<<<",
"dddddddd~--lhhhlhllllllld__55<<d(((~~++++~++ll~~lhBilB~((((75E#+~ll++l~l~(id<~&EE$<d+777((((77+d+ddddd<<<<<<<<<d+-~~h<phid<<<<<<",
"d(++++++~-lhhhhlhl~~~~~l<]5555<<d((--~~~~~~7~ll~~ihlii~(((-7$E_7dd~lll~lhiiil~)+$)_<d~77+(((-77~+(ddddddd<<<<<<d+-~7ldBhhidddddd",
"+777~~~~~~lhiiiilhl~~lld555555<<<d(---------~ll~~hhii~-(d<<+$Ed7<(77ll~~Bhih+l7l7<t.<+777d(((~7777~++++(dddddddd~~-~~hBhl6+ll~++",
"~~-------~7~~lhiil+llld555555555<<dd<<<dddd((-llllll~-d5<<dd@@+7]d~7ll~hilihl~$l~7<==d~777'(5<<d(7777~~77~+++dd+~~-~~~hihllllll~",
"ll--d<dd~~~~~7~lh~++dd5555<<<<5555<+<<<<<<<<dd~~~l77~-<<<7+d=<7<5d~~l~~hilil~~0~77+d] +7777+<+<<<d+77~-~~~~~7777~~~-~~llhllhhlll",
"lll<<<<<d~~~7777(7(d<555<<<<<<<<<<<(<<<<<<<<<d+~~d~~~~5<(7+d[+d55<l~lhllih6+~7]ll~77+d!d777+<<5<<<d(--((~-d<<dd+~~~--h~~l~7~ll~l",
"l(dd]_5<<d+77777(7(<<5<<<<<<<<<<<<<d<<<<<<<<<dd+~h~~7(<<77+d@7555ph7hllhih++((7d(+~<d++$<77~d<<<<dddd+((-d<55<<<<d<<dl~~ll~~~lll",
"~+<]_]55<<d+7777(~-d<<<<<<<<<<<<<<<d<<<<<<<<<dd+~h7~7dd+77+$d7<<hhhl~~~lhl(<dd#<<<d<<<7+]_7~d<<<ddd+~-(((-<__]55<<<<dh~lhlllll~~",
"-<]_]55<<<<d+777(~-+<<<<<<<<<<<<<<<d<<<<<<<<<dd+-h~77d+777d]++<<dhiiihhlhl+<<7+75<<<<<<+7d~~d<<<dd+7~--(-~<__]55555<<6~hl+(++++~",
"+<5]555<<<<<d+77(~--d<<<<<<<<<<<55<<d<<<<<<<<<d+-(~77+<55~<5+7d<<dlhiiii6h+d<<555<<<<<+7~77~d<<dd+7~~+<d-~<5555555555dlhld<<<d(-",
"-<<555<<<<<<<d(~~d---d<<<<<<<<<<5<<dld<<<<<<<<d+-~(77~<5ddd<77d<<dd(llh((6~+d<<<<<<<<<d+ll7~d<dd(~~~d<dd~~<5555555<<<<6l(d<<<dd-",
"-d<<5<<<<<<<<<dd~(~~~+<<<<<<<<<<<<<dld<<<<<<<<d+~~+77+<d++++7+<<<<<<d+++ddh~++dd<<<<<<dll~7~-<dd+~~<<<dd~~<5555<<<<<<<<h+d<<<dd+",
"-(d<<<<<<<<<<<dd+7h~~~d<<<<<<<ddd<<d~ld<<<<d+dd+~~+777d7d+777dddddddddd<<<d6l~+++ddd+<ll~~7~-ddd~~+<<<dd~~d<5<<<<<<<<<<<dd<<<dd-",
"-~+dd<<<<<<<ddddd+~h-l(ddddddddddd(l~llddddl++dd~~l7777+dd~+~+ddddddddddddddd6hdl~~++dll~l~7-(dd~~~<<<dd~~d<<<<<<<<<<<d<<<<<<<d~",
"-~~~(d<<<<dddddd+777hl~l(((((((+++(l~7l(d((ll++~77777777~+(++++++++++++++++++++(dhhhl~l~~ll~-+d(~~~<<<dd+~d<<<<<<<<<<<d<<<<<<<(~",
"--~~~+ddddddd+~7777ll~~~l~77777777~l~~ll+~777777(-hl~~~~~~777777~~~~~~7777777777~~77dh~l~~777~++~~~ddddd+~+dd<<<d<<<<<<<<<dddd+~",
"---~~~~+ddd+~7~777~l~llhlld-~77777~ll~~l7~~7ll+%(lhl~~~~~~7~~~~~--(((-----++(+++(+++~(l77~7777-~~~~(dd(+~--+ddddd<<ddddddddd+++-",
"-----~~~++~7~~~~77lllllll7~(hhhhd(~ll~~~7ll7~l+(lhhl+<<<<<7dd(-~--((((<<<<<<<<<<dlllllh77~777~-~~~~~~~77~---~+ddddd+++++~~~777~-",
"(--((-~~~~~~~~~-~~ll~~~+++(d+++++(l7lll+ddl~7lllhihd<<<<<<7<<<<<dd(66<<5]_]5<dhlll~~~lh~7777~~~~~-+-~~~dd--~~~~~~~777777~~~~~~+d",
"<<dd(((--~~~~+<<d(+7777dd<<<<<dd+7~~+~lh6dl~~lhiilhd]__]55+<<<<<<dd6(d]____]5dl~~~~ll(+h~~7~~~~~~dd<<<5<d-~~~~~~~7777~(<<<<<<5<<",
"<<<d(66((---d55<<+++777<<]]]]555<<<dd(+++ll~liiillh5___55d+<<<<<<dd6(d__]]5555dllllll+ddh~~~7~~dd<<555<dd~~~~-~~~7+<<55<<<<<<<+<",
"<<<<d(66((-d__5<d<d(~~-<]_____]555555<<d++~lhihl~h6]__555<<<<<<<dd(6(d5]5]555555ddd((d<<<h~777+d<__d55<dd~~~d<d+77d<5555555<<<+<",
"<<<<<dd(((-5__5<<<dd---<]___]5555555<<<<d++~hl~~l65_]555<<<<<<<<dd+((<55555555<<<<<<<<<<d<hl777(5_]<5<<dd~~~<<<d+7+<___55555<<d<",
"<<<<<<dd(-(__]5<<<dd-(-<]]]5<<555<<<<<<<<<++lhhhh<_]555<<<<<<<<<dd+((<5]555<<<<<<<<<<<<(+ddh~7~d]_555<<dd~~d5<<d(7~<]_]5555<<<d<",
"<<<<<<dd(-<_]55<<<dd-(-<555555<<<<<<<<<<<<d++~h+<]]555<<<<<<<<d<<d+((<555<<<<<<<<<<<<<<ll+ddh~7(5555<<<d(~~<5<<dd~~<5555555<<<<<",
"<<<<<<dd~-<555<<<<dd-(-<<5555<<<<<<<<<<<<<dd+7l+<5555<<<<<<<<<<d<d+((<<5<<<<<<<<<<<<<<d~l++d+l7(5555<<dd(~~55<<<d+~<555555<<<d<<",
"<<<<<<dd~-<555<<<<d(-((<<555<<<<<<<<<<<<<<dd+7l(d555<<<<<<<<<<<<<d+((<<<<<<<5<<d<<<<<dl~l(+d(l7l555<<<dd+~-]5<<<d+7d<55555<<<<<<",
"<<dd<<d(~-<55<<<<<d(-((<<<5<<<<5<<<<<<<<<<dd+~l+d<5<<<<<<<<<<<<<dd+((+d<<<<<<<<<d<<<<dl7~l+(((~(dd<<<<dd+~(55d<<d+7+<5555<<<<<<<",
"<<d<<<d(~-<<<<<<<<dd-6((d<<<<<<<<<<<<<<<<<dd+~l~d<<<<<<<<<<<<<<ddd+(((+d<<<<<<<<<<<<<ll77l+(+~lhhd<<<<dd~~d55(<<d+7~d<55<<<<<<<<",
"<dd<<<d(--<<<<<<<<dd+66((dddd<<<<<<<<<<<d<<d+~l7d<<<<<<<<<<<<<ddd+7(((((dddddd<<<<<<<ll7~lhhhhihhd<<<d<(~~(<5l(<dd77+<<<<<<<<d<<",
"<<<d<dd(--ddddddddd(-66(+((+d<<<<<<<<<<dd<<d+l~~(<<<<<<<<<<d<<d+~~--((((ddddddddddddddl~~hiiiilh6<<<dd<+~-+<<llddd~7~d<<<<<<<<<<",
"<<<<ddd+--+ddd(+++~7~((((~77d<<<<<<<<<<<<<<+l~~~+d<<<<<d<<<<<dd~~-d<<(((++++++++++++++l~~hlll~lhd<<<<<d+~--<d~l+dd+~7+<<<d<<<<<<",
"<<<d(+~7--~~~77~~~~~((((((--d<<<<<<<<<<<<d~l(~~~-ddddddd<<<<<dd~~d5<<d+-(~~~7777777777~~+ll~~hhd<<<<<<d~~+-dl~ll+((l~~d<dd<<<<<<",
"<dd+77~--------(((++-((((---+d<<<<<<<<<d+lh(d+~--~+d+ddd<<<<dd(~+555<dd~-+---~~~~~~~~~l++~llhhd<<<<<<<d~~-((l7~l+hhhll+ddddd<<<<",
"d(+7~-+<<<<d<<55<<<<<<d<dd---(ddddddd(+ll((dd+~---~7+(dddddddd+~d55<<<d+----d<<<<<<<dl~l~lllip<<<<<<<<(~~-6ll7~llihl7l7++++(dddd",
"+7~-+<5<5]5<<<<<<<<55<<<<dh---ddd+++lhh(+ddd++~-----~~+++++(dd+~-<<<<<dd---+5<<<<<<<ll~~~ll~lBdd<<<<<d+~-(6ll7lhilhl~l777777~+dd",
"7~-+<<]_____]55555555<<<<pi(--~7~lhll~~++++~7~~--d<dd+~777~~~77~-dd<<<<d+--d<5__]<<<l~~~l~iilhiddddddd+~-(6lllliilh~ll77~~~~~~7~",
"---<<]___]]555555<<<<<<<<6ii~-~ld~77~~~~~7~~~~--(]]<<d((((~-d+~~-~(d<<dd+--<<]__]5<<l~lll7liiihd+++++(+~--((llhihlh~lddd+~~~---~",
"--<<5__]5]5<<<<<<<<<<<<<<ilB-~d+77~~(-~~~~~~~~--<]]<<dd(((<5<<<d--~(dddd+--<<]555<<<ll~7~~7dd777~~~~~~~-----llii~lhld5<<<<dd+(+-",
"--d<__]555<<<<<<<<<<<<<<dBlih~h7lh6iddddd<dd---+<<<<dd+((5555<<d+--~+++~7--d<_55<<<<++~----~lhh(+-+(lllhhhlhiiillhhd5555<<<<<dd-",
"--d<]]555<<<<<<<<<<<<<<<dBhihhhBillp5555<<<<d(~~~ddddd~(<]_]55<d(--~~7~~~-(d<55<<<<<(+~6d<<<<d+llllll+(ddd6Bihhhhhlll<55<<<<<dd-",
"--d<5555<<<<<<<<<<<<<<<<hilih6illlB]_]5555<<<d~77~+dd+-(5__555<<<<dd-~~~~(((55<<<<<<dd-(<<]]__]5<<<<+<<<<pillhhhh~~~~l<5<<<<<dd-",
"--d<5555<<<<<<<55<<<<<<ddihihhhliBz_]55555<<<++~7~~+d~(d]_]55d<<<<<<d+---6((5<<<<<<<dd+(<]___]55555<(<<<<iiiBBi~~l~~~~ld<<<<<dd-",
"--(<5pz5<<<<<<<55<<<<<<d+ihih~6ip]_]555555<<d<<d~7~~+~-<]_555(d<<<<<<d(-(6(d<<<<5<<<d(+(<__]555]555<d<<<<d<ddd777hlllllld<<<<dd-",
"--(<<iip<<<<<<<55<<<<<<d+6hh~7~d]_5555555<<d<<<<d~~~~--<5555<lld<<<<<<d+(((<<<<<<<<<d(+-<_]555555<<<d<<<55<dd+77~6<hhdd<<<<<<dd-",
"--+<dilB<<<<<<<<<<<<<<<<+(hd77+<]55555555<<d<<<<<d~~~--<<55<dlld<<<<<dd((((<<<<<<<<<d(~-<555<<<<<<<<d<<<5<<dd+77~<5<<<<<<<<<<dd-",
"--+d6Bli<<<<<<<<<<dd++(ddhd+77~<5555555<<<<<<<<<dd+~~~+<<<<<d~ll<<<<<<d+-((<<<<<d<<<d(~-<<<<<<<<<<<dd<<<<<<<d+77l6d<<<<<<<<<<dd~",
"---++Bhh<<<ddd((ddddddd+++++77~<555555<<<<<<<<<<dd+~~~ld<<<dl7~ld<<<<<d(-((<ddddddddd(~-<<<<<<<<<<<<<<<<<<<<d+7~lhl<<<<<<<<<ddd~",
"----~lhhdddddddd++++(++(d+~~~~~<55555<<<<<<<<<<<dd+~~~ld<<dhl7~ld<<<<<dd+((<ddddddddd+~-ddddddddddddddddddddd+~h~hhd<<<<<<<ddd+~",
"-----~~l++++d+d((ddddddd~7~--~~<5555<<<<<<<<<<<<dd+~~~l~d<hhl7~ld<<<<<dd+-(-++++++++~~(((~+dddd((((llll~l(((+~hl~lhl<<<<<<ddd(~-",
"---((l~~~~(dd+dddd(++++77~d((-~d555<<<<<<<<<<<<<dd+~~~l7llihh~~ld<<<dddd+----~~~~~~~~(((((~~~~~77~ll~~~77~lhhh~ll~lh(dd<<dd(+~~-",
"+d55d(d(-~~+++++~77777~~~d<dll~d555<<<<<<<<<<<<<(d+~~~l7~lilhll((ddd((+++-----------((((((-~~~~~+ll~l~l~~~hhih~~lhhhl(dddd+~77--",
"+d<<d<dd---~7777+~~~~~~~-<<dhh~+55<<<<<<<<55<<<ddd~~~~l~~hillhl~+~~~~7777~-((------+dd+(((--------((lllllhlliih~~~~~~~+++~7777~-",
"-d<d5<dd~~~~~~~~lhhhhll(d<<lhh~~<5<<<<(d<<55<<<<dd+~(~l~~hillh7~llll~~~~~-(<<<d~~-d5<d+~-d<<<<<<<<<dd-d<dhllhihl~~~~~~~77777777-",
"-d<5]5<d(~~~~~~~~hhlllhl5<lhhh~~<<<<<dll<<<<<<<<dd+~<(ll~hi~llll~~~~~~~--<<<<dd~~-<<<d(7d555]55<<<<d(-<d+hhhllhil------~7777777+",
"-d<_]5<<<<<dd(+-~~hihl~hddhihhl~<<<<dllld<<<<<<<dd+~<<~llhhlih+<<<d<d+----dddd(~~<]<<dd7d5]__]5<<<<d(-ddd~d6ihhhhldd<<<(++~7777+",
"-d<_]5<<<<<<<dd((-liiillhhiilhl~<<<d~llld<5<<<<<dd+~<<d~~~hhhhp<5<d<<d(---+dd++~<]]<<dd7d5__]55<<<dd+-d+d+<<<<66<<<<<<<<<<<<d+++",
"-(<_55<<<<<<<dd+((+lhiihhiihlh~~<<<+llll+<5<<<<<<d+~<<<++(h6llli<5d<<<dd+-~~77~~5<<<<dd7d]__555<<<dd+((((<555555555<<<<<<<<<<d(+",
"-+<555<<<<<<ddd-66ddhhhd~ihllh7~<<<lll~l(d<<<<<<<d+~~~~-<l6<iiB6<5<<<<<dd(~~~~~<<<<<ddd7<__]55<<<<d(+(~d<5]]_]5555555<<<<<<<<d(+",
"-+<55<<<<<dddd+-(d55<d++-ihlh~7~d<dlhl~l(<<<<<<<<d+~~--<(6<]<6d<55<<<<<<<d(-~--d<<<ddd+7<_]555<<<<d(((+<<5]__]555555<<<<<<<<<dd+",
"-+<5<<<<<<d<dd+((5___5<d((hhl77~dddlh~~l+dddd<<<dd+~~--dd<]_]55555<<<<<<<<dd--++d<ddd~77<5555<<<<<d((-(<555]]555555<<<<<<<<<<dd~",
"-+<5<<<<<<<<(d~((]__]5<<<<d~dd-~~(dll~ll+ddd((dddd+~~--~6<]55555<<<<<<<<<<<dd+(6+ddd~77~55555<<<<<d+(~(<55555]5555<<<<<<<<<<<dd~",
"-+<<<<<<<<<<d(~(d]_]55<<<<<<+~dhhhhhllllllllllh(~~~~~--~6<5555<<<<<<<<55<<<<dd+6(+d~77~d5]55<<<<<<d+(l~<5555555<<<<<<<<<<<<<<dd~",
"-+d<<<<<<<<dd+~-d5]55<<<<<<<<d+~7~~777777777777lh(~~++-ld<555<<<<<<<<<55<<<<<d(((-~77~~<55]5<<<<<<d+(l+<55555<<<<<<<<<<<<<<<<dd~",
"-~dddd<<<<<dd~--d<55<<<<<<<<<<dd+~~~+(((---~~~~77lhd<(~~d<55<<<<<<<<<<55<<<<<dd(((~7~~d55]]<<<<<<<d+-l+<<55<<<<<<<<<<<<<<<<<dd(~",
"-~7++dd<<<<(+~--d<<<<<<<<<<<<<ddd+-(6666------~~~7~hd(~~6<<<<<<<<<<<<<5<<<<<<dd+((-~~+<555<<<<<<<<d+~l+<<<<<<<<<<<<<<<<<<<<<dd+~",
"-~~~~~+ddd(l~7~-d<<<dddddddddddddd-(66<<<<<<<d<d+<<+lh~~6d<<<<<<<<<<<<<<<5<<<dd+(d-~~<<55<<<<<<<<<dhlh+<<<<<<<<<<<<<<<<<<<<<dd+-",
"+~~((+llllll~~--dddddddddd+l+d(++7-((<5555<<<<<<<<<d+~d(hd<<<<<<<<<<<<<<55<<<dd+(<d~~+d<<<<d<<<<<6hlllh<ddd<<<<<<<<<<<<<<+(dd(~-",
"<<dddll~~~l~7---ddd+++~~+(ll7+~7~~--+555555<<<<<<<<dd+7ll6d<<<<<<<<<<<<<<<<<<dd--<<(~~(<<dddddd<dil~llhhlllddd<<<<<<<<5<dl++d~~(",
"<<<dl~~~~l~7~---~~~~~~lll~l~77~~~~~-<<55<<<<<<<<<<<dd+~hBBip<<<<<<<<<<<<<<<<<dd--d<d+~~d++dd((((hlliiihl~~ll(ddd<<<<<<55(l+++7+<",
"<<<(l~7lll7777~~----lll~7~l77+ddd~~~dddddddddd<dddddd+iBihlhiddddddddddd<<<<<dd--(ddl~~~+dd+~77~hhihhhll~~~ll++d<<<<<<5dlll~7~<<",
"<<dl~~~ll+<5<<d+77~~l~~7~l(++<<d(~~~+ddddddddddddddddiillhhhhhhd(dddd(++++(dd(+~-+d+ll~~~+~~77~lhhlll~~lllll~~7+d<<<<<<llll77+<<",
"+++lllll++d<<<dd777l~~~~ll++~<dd+~~l~++~~~+++(++++~~(BhiiiiBl7~lhh(-~777777~~77~---lll~-~~~~~--ll~~~l~~l~~~~~~~~ddd<<<dl~~l7~<<d",
"lhhhiiihh6hl~++d+77lliBBiii6d<dd+~ll~-------~777~~~-hhhhiBil777777~llll~~~~~~~~~~--l~ll--+d<5<<ddd-l~~~l~~~~~~~~+dddddll~~l~+dd+",
"d+d6hhB6~(dd66hl~7~hihhllhidd<dd+~lll~---(((((((((((((--~~~~~~~~77777~~lll~~~~~~~~ll~l(d<<5<<<5<<<<dl~lld<dd-~~~~~++++ll~~l~(+lh",
"d<<<ilhi-+<<d++dhhhhhlhiBpd<d<dd+~lll++---((d<<<dd6dddddd(++~~~777777777~lhl~~~~~lll~l(d5<]__]55555dl~ll<<d(-((-~77777ll~llllhhh",
"<<5<pBihh+d<<d+77~6iiiiidd<<d<dd~llllddlllld<<5]]]_]]55555<<<<d+777d<<+++++~hddd+ll~~ld<]d]__]5555<<l~ld<d(+(((--~77~-ll~hhiihh6",
"<<<d<dii6(+<<dd~7hllhhhl++d<<<dd~llllll~l~~ll(5_______]5555<<<d(777<<55<<dd++l6<dll~~l<<d(<_]]5<<<<<dlld<d(+((dd<<<<d~~l~iiihlhd",
"<<<ddd+(--+ddd(~ll~hidddhhl+(dddllhlll~~77~ldd<555555555<5<<<<dd~77<5__]5<d+++~6dl~~~dddlld5<<<<<<<<<dl<<<d+-(<<5<<<dd~~lilllhh<",
"<<<dd+~---~ddd++lllih(dd+(dhl~++llh~~l~7~ll+++<<<<<<<<<<<<<<<<dd~77<]_]5<<<d+++~6h~~liih~l(<<5<<<<<<<<d<<<dd-(<55<<<d+~~l~lll(d<",
"<<dd(7-----~++~(hhlih+<<<<d++dhl~lllll~lll~7+(ddd<<<<<<<<<<<<<dd~77d]]5<<(ddd(++~6lhBhil~l(<<<<<<<<<<<<<<<dd+-<<<<ddd~ll77777~d<",
"ddd(~~-<<d--~~-(lhlild<<55<d(++-(llll++~~777+++++d<<<<<<<<<<<<<d~77d<5<<<+lllll(+~hBhlB~~l(<<<<<<<<<<<<<5<dd++d<<ddd~~l77~~7~~+d",
"dd+7~-d55<d(+((((6hh(d<<5<<<<dd+7~l6l77777777777~+d<<ddd<<<<<<d(777d<<<<<((l~~lll~lBhhi7ll+<<<<<<<<<<<<<55dd++(dddd~7h~7d<d~77~~",
"~+7~--d<<<<<dd(((<ih(<<<<<<<<<d(~~~~hh77+(+++~---~+ddddd((ddddd+~~~+<<<<<++lll~l~+~hhh~~lld<<<<<<<<<<<<<55dd+llddd~7l~7d<<<d~7~-",
"(~~---+dddddd+-((<<6d<<<<<<<d<dd~--~7(6+<<<<<d+~--~+++++++++++~7~~~+dddd+dd(lllll+7l(~~ll+d<<dd<<d<<<<<<5<d+~l~l~77~l7<5]5<<<<dd",
"<d(--((-+ddd(~(((<<<<<<<<<<<<<<d~--+((d6l<555<<d+~-~777~~~~~7~~~~77~+++++<<ddhll++~~h~++++<<<d<<<d<<<<<<<<d+ll7l~~ll7d5_]5<<<<<<",
"<dd((6((-~~77((((d<<<<<<<<<<<<<+~--<55<<6(<55<<<d(++-+---+d+~~~~~7777777(<<55<dd++77h++++d<<<<<<<<<<<<<<<<d+l~7~lhil+<]]5<<<<<<<",
"<<d((6((-----(((((<dd<<<<<<<<<d+~-(]__5dd6ld5<dlll(lhhd<55<<<<<<<<<<d~77<<<<<<<<d+7~h++++(ddddddddddddddddd+l~7~ihi+<]55<<<<<<<<",
"<<d((((--(ddd(----+(dd<<<<<<<dd+--<__]55dddl(6ihihihhd<5]]55<<<<<<<<d+7~<<<<<<<dd+7~h~~++++++++++(((dddddd(+l~7hilBd555<d(d<<<<<",
"<<dd-((+<5<<dd+(+--~+(ddddddddd+-(___5555dddhhhhhhlhhd5____]5555555<d+7~dddddddd+7~~l(~~777777777777~~~~~++7ll~BhhBhhhlll(d<<<<<",
"<<dd-((<55<<<d-d<d(--~+ddddd(++7~<__]5555<+(lhl~~lhl~d5___]dd555555<d+7~ddddddd(~~-~lh~-------------~~~~~~~7~l~ihhill~~ll+d<<<<<",
"<<dd-(-<555<<d+-<<+---~~~~~~77~~+<]]555<<<dl~lhllhh7-(<55dllh<5555<<d+7-+(+++~~~~-(~~6<<dd+((((((((((ddddd-~7~lhhi~~~~ll(d<<<<<<",
"<dd(~(-<555<<d+~+d~-----~~~~-((--d5<<<<<<<d~~~lhhl77~+d<llllhd5<<<<<d(7--~~~~~~~-((~76<<<dd+(((d<<<<55<<<<d~~7~lh~~~~ll(d<<<<<<<",
"<dd+~--<555<<dd~~~--dddd(+-+<((((d<<<<<<<<l~7~l++dh~7~dllllld(<<<<<<dd~------------~7h<dd+~-d<5<<<55555<<<<d+~7~6(llll(d<<<<<<<<",
"ddd~---555<<<dd~~~+<5<<dd+-d<d((+dd<<<<<<dl~7lld+7~6h~~lll~l(d<<<<<<dd~-<<<<<d--+<<+7hdd~~-<<<]__]55555<<<<dd~7hd++++dd<<<<<<<<d",
"dd+~--<555<<<dd~~d555<<dd+-<<d(((+dd<<<<<dl~~l((+7~~-hhlh~~l+<<<<<<<dd+(55<<d(--<<<+7ld~--<<5_]]]55555<<<<<d+~7h+++(dddddddddddd",
"+~~~--<55<<<<dd~~d555<<dd~-5<<d(((+dd<<<<dl~~l++~-((~~(hl~l(d<<<<<<<dd++55<dd(-(<<<+~~h~-d<55<h55555<<<<<<<d+7ld++(dddddddddd(++",
"~~----<<<<<<<<d+~d<5<<<d(~(5<<ddd((+dd<<<<ll~l++7(6<(~~~lll(d<<<<55<dd+-<<ddd~~<5<lll~h~<<<ddh6<<<<<<<<<<<<d+~67~+++++++++~~7777",
"------<<<<<<<dd+~+<<<<dd+-d<dddddd((~(dddddl~l+~-66ddd-~hiiihld<<<<<<d+-<<dd+~d55dllllh<dl~lhhhd<<<<<<<<<<<d~h+7~~~~7777~~~~~--+",
"------<<<<ddddd+~-<<dddd~-dddd++++(((~+++++lll~~(((-ddd-ilhiihld<<<<<d+-ddd+~+<55dllllllllllhh+<<<<<<<<<<<d+l(~~~~--------------",
"dd(++-ddddddd++~~~ddddd+~-++~~~~~--(((-~7~~~ll77((((~777hl~liihld<<<dd~-(d+~-<<<<dlllllllhhlh(+ddddddddd(+lhlllll~~~~-(d<<<dd(dd",
"<<<d(-ddd(+~77~~~~(d++77~-~-----+(ddd((((((((l~~((((---~lh~llhii(d<ddd~--+~-d<<<<d+llllllllhh~+(((+++++~lhd~ll~llllld<5<<<<<<<<<",
"<<<dd-++~7~~~~~~~~~~~~~~---+<<<5<<<<<<<<<<55<d+-((((----+lhhhllhhl+((+~--~-(<<<<<d+lllll~lhl77777777~l66d~77l~~~~~~ld<5555<<<<<<",
"<<<dd+-~~~~-----~~~~~~~--(<5<<555555<<<<<<5<<<dd<<<d--d<<+~~llllhl++~7~--((d<<dd<<d+~lhllhh~~~~llhh66d++++~7~lllllldd<<<<<<<<<<<",
"<<<dd------(d<<dd<dd+~---<<5]___555]]]555555<<<<<dd(-(5<<d+777777777~~-6hi((ddddddd++7lhlhhhh66ddddd<<<<dd-~7~lllddd<<<<<<<<<<<<",
"<<<dd~--+<555<<<<<<<d+---d<]__]55<<<<<<<<<<<<<<<<dd+-<<<d+~-<-~~~~~~~6Bihi+ddd(+++(d+-~~ddd<<<dd<<555<<<<d(--~~d(dd<<<<<<<<<<<<<",
"<<<dd--d<<5______5<<d(---d<<<<<<<<<<<<<<<<<<<<<<ddd~+<d++~<<<d+-----lBilil~~~~777777~--(<<<<<<55555<<<<<<d(---+<<<<<<<<<<<<<<<<<"};
