/* XPM */
static char * wall_plants_light_thunder_6_red_xpm[] = {
"128 128 72 1",
" 	c #674740",
".	c #613E36",
"+	c #673922",
"@	c #6C4A38",
"#	c #6D5049",
"$	c #775D57",
"%	c #856F67",
"&	c #917C73",
"*	c #8B756E",
"=	c #7C635E",
"-	c #775E58",
";	c #745A53",
">	c #694A44",
",	c #5E2F1D",
"'	c #623522",
")	c #785F59",
"!	c #715550",
"~	c #5E3830",
"{	c #64433E",
"]	c #592F29",
"^	c #5A2918",
"/	c #663A25",
"(	c #70544E",
"_	c #4F170C",
":	c #541F16",
"<	c #98857F",
"[	c #A48F84",
"}	c #562A1F",
"|	c #551E10",
"1	c #63413A",
"2	c #6B402A",
"3	c #816962",
"4	c #562417",
"5	c #86716B",
"6	c #744728",
"7	c #6A592E",
"8	c #815738",
"9	c #521D10",
"0	c #6C670C",
"a	c #706B24",
"b	c #958279",
"c	c #625026",
"d	c #5E511A",
"e	c #747011",
"f	c #63580B",
"g	c #745E43",
"h	c #5F490B",
"i	c #816853",
"j	c #8E863E",
"k	c #7D7C15",
"l	c #6E5712",
"m	c #583F0E",
"n	c #5E4324",
"o	c #7E732F",
"p	c #575210",
"q	c #4E3409",
"r	c #4C2709",
"s	c #513F0C",
"t	c #7D6B11",
"u	c #626215",
"v	c #53490D",
"w	c #686E17",
"x	c #5B5914",
"y	c #572F0C",
"z	c #847A1C",
"A	c #888415",
"B	c #A59B2E",
"C	c #8B832A",
"D	c #989020",
"E	c #8F8E17",
"F	c #6E7916",
"G	c #9A9348",
"    .++@#$%&&&*%=--;>.,'',#)))))=;;;;;;------;;!  ~,@{]^/----(!!~_:];<[[[[[[*>]}}:_|''+'>$-;;!!!!$;!!$$# 1],'++ #(!# 111{{{ >>>>",
".~]~]//21#=&&=;----!>~,',^#)))$)3;;;;;;--$$;;((> 14,~4^>--%*3---;!({:{5[[[.}_ !#_:^'6662~#$!!!!(#!!;-;# .}4^'++~ >#> 111{{{  >> ",
"::4^^/+621(-;((!!;-(>~,'^^1$)$-$-!!((((!!!!!!(#1>]4^4^;=3&&&333=--#_}~>([[_33--$(#@//666+.(!!(77#!$$(>>~:44|~(/'^}~~]]}}44:::4::",
"'++2''686,#--;;!##!> ~'+,^.!;(###!!((!!#>###!!  ~4^,#--&<<&*5&3_9:}}] >3[<}:]!;;---!>2/66,1!!70a!!#  1}:4|}(=(#1]4:::::444444^^'",
"+++2''688'~;--(###(> ]++'^] (####!!!!!!>#(!!> >.4^(=;3&&b55553_::}]~{;![[-}:_c#;----#{,'//,1defe#>  ~:44| =)3=; 1|||||4^^^^^^^,+",
"(#>1''688/2#$$#(##>  }+++,4~ >> #$!!;;$;!#>11>{44.=#=&&*555=7c:}]]~#$;[[[>]:_g;;--;;#>,^,',heehe. 1}:^^,giiijjig1:|||^^^^^^~1 >#",
"-;# ''6886@$;$!!#>  ~^++2/,4~1111> #### 111  .44^;1ci*%353>a~_}]~.#$&=*[[#]:_#;;-$!!(>1~^,h0klhe~~7aaaa7ddmmn]mdo,|4^^^^^,#-;-3)",
"-;#>''/886@;-$!!>1 .:,+@=#@,4~~.~{{    11.~}4:4^^~~da33==co4_:]~{#![-<<[[!~:_>-;-;!!!(#>.,hekhheaapqr}~>((>>>1~]so^^^^^,(--=333-",
"$;(# /+666@;-$!!>114^+@=7>( ~4::::4}}}}4::444^^^^4nppg= cg]}]}=[>>[$=[[[[=.}_#3--;!!!!##> netm0hq9991#-&&%%%=#>~]ma^^^!33=!333=-",
"$;!!( '+662;--!(({.^+'=!cc ;> ^^^^44444,''+'^^^^^:upvw=c_9:}]~~~]~{;<[[[[&{: %5=;#####((!#>n00f9:44;=%5=333-;!({.ra,^mcdw0a%53--",
"-!!!;( '662#;--!( {'+2=;xu.#>{,^^^^^,,'+@)$$;>~^^yuvvudo_:}]~{>~}}.)[[[[[<;]9==;(##>##!!!#>70l|4^~))%5533=;;;!#{{_d7h00e0eg5%)--",
"$!!!;$>.+66@;-;(!#>'+1(7pxu.>.+',,'++++/;>;)3;>~^mwpvxa7:}]~#]::#:1=[[[[[[5#]_$;##> ##!!!#>aq|^^.))%5553-!;;!!#{7hphheehfa-5=---",
";!!!!-!>'662)-;{##>',~@upvu~>~++@;!;;;=3=;(;5=!>]mupspa9}[]#}:!--_13[[[[[[[3>]_!7>####!!;#@u9^^1-)%555%;!!;;!!#wuvxullmfk#%3----",
";>(!!$(>~26/)--.d7 ~^4uusvu]{}68!!)=%3%%3)$!%=$# 4uxv=<}}]]}__---_>[[5!(=[[[*>]__.##>#!;$ as4^~--55553)!!!!3-gwxppvxuym07=%)----",
"(#((!$(>~26+$=$.dx7~^,upsvu9:,886#%b<&555=$!=)$( ~yu!___}}}_{#!(#][[>]]]]~>&[[=}:,#;;;$$>7x_^4$)35553=)!!;-3-wxxuwwuufa7;5=--;-$",
"!!(#!$(>~+6+$=;.dqxd^^uvspu9^2666 3b<&553)$$-$!!>{:__9::__]((!!.}3[{_>##>_}]>[[[[n!$;!# 7ur4^.=35%5%--$$-$%5gxwuuuuua7>!%-;;;;$;",
"!!!!!;(>]+6+)=!nuqsu,^xvsxm^,'+662;5553)---$!#!!( .<_9::][(((!!_>[{:{{{   _:].[[:_9>>>>aur:^|;=555%)$$$--;53xdnvvvpu.>$53-$---$!",
"!!!!!;#>]++2)-#cwqsxd^dv7>!;$;2662{=%=----$!1cg!!>~:_9:_>   {  }-[}_ ..~~~}_:]{[~_}_}<[x_:^^|=&553-$$$;$-)53{{~]}9ra#%53))$--$)$",
"!!!!!$#>]/22);(dusqpd:d>=3%3)(>266](-$;;;!!(nxag(#[_____}~{>  }~[5::::4::4^:_:][>]_,lus[{|,%4$)==$$$$-!$$=5)!!#1]|9a#%=)--$-$;!!",
"!!;!;$#>~22/## nusqvmn!%&&&53-#>/6,{##>>>#(#cppw#1w___4,,^:}]]_ [{_:4,n4'/22,9}[( ]_m994[,+^|.!-{)$;---$;==!!!( .^9ug-)i$!!$!!!!",
"!;-!#!>>,/+,1ooadvvuw7i%35<*%-(>/6+]1{{{{{> cxsxwdzyyl'++2+,^^}![]_:'cxh^272n_:&[>{}949^://,|4 #;[#!(!!!!!!!!!$>~,|vo=$jo>!!!#!(",
"#> { >>>^+'lkke0exwxxxpp7bb5%=;>122,4]]]]}].du[svfaAtB,2662+'_}$[:un~dvu,6Cgiax~[(#1}_'+666/||] .>][##!(;;;;;$-#~'4sa)jzD7(!!;;!",
"{1.~~~~.,'lkeee0e0vvvsvui*55%3$( 22++^4^^,^:mxvssaltDC,662+/@:~[>_suduvxaCCCu}n*[[(>~}'+6*62,|:4]1>>  {<#(;$--; ]'^9ugBzzC #> {{",
"]:::4^44,,0eAAEA0epvvxu7%5%%%%=-( 2+++++++++,xpsstzCD,+2@$=%.}{[~^qqwxvmBzCznuw[[[<({]_46_64^,||::}]~~.1     {{>}^'4seBzto]dpmn.",
"s,'+++++'^|4yfkAAlnduw735%%55553=;>>$!(@@@@22,dxpldd4'@%=)3=_]#[}7squpszDtDzuvpp>{[[!.:_9+6__:>#1:|::44::}]~.{ .4^',4mzCzuuuuuxv",
"wx'+#!#@,^^^^9m0a,.. >355%====33%%)~---$$$$$# ,^sl9:,+)-%b<$:.)[:gmsuvszEtDfssss[:{[[;]:__}___]!( ]||,+,^444::::4^,+,^00exwFFwww",
"xux(=)$!{,^^||9_c:1>-%5%=$$-------)1$-----$;( .,s74^,^3%<<&_}>[>:=xmwefwCzonvqsx[_:{b[(}:__[:__:#;>1'+62,'#;(#>~^^^++ehmuvqvppvp",
"uc7 &b5=;>~||||9c|1;=%=$$$---------#;----$!!( {/ya4^|1=&<b* }#[{:9tAk00kEa.~ccu7[1]:~$[[]}:_=;=-$ {  /66+ =55=$;!>((g0mh0ussvxuu",
"^.;*<&5%);>]|||9c^'>$--$--)-------->---$;-;(!#{/,a|4|#$555=_]$[~:_ef[hmfkl1(##>;:$-_:])[[.}__}>-#.1.}'662'$b<&5%=-$$gemleuuuuum^",
"'(*<&55=--;>~||9c^+.(---=)-----$))-#$$;!(;!(!#{.'a4||#; 53_:~[3~:_AAAkktkl.!--=#5)${_:~;<[{:__{({]~:^++2+,!bb*55553=)omefn1..]],",
"/(%*553----;#.||c,+' $--)-$-$---5%$(@(!!((((!;{~+c,||{]_3_:}{[;]:_deAAAAoa~ $-3 9;!!#]}.!=[.:_~{{}:4,/$@+,;555555555%gfed{$$!{1'",
"+(=55%----$!;#14y7'+'#-$;$(-$---%=!#d#!(((((!${]'m79___9_::]%[#]:] cu0ec1o}.{!)[[(((((_}.>([}_}.194^#=#{,^!%555553=)-$o0c#$!! {'",
"+>$)3)---$!!!(#{4c,^^.!!!!((;;!!!!!7x7((((((!$ ]+m7___:::}] [[>]:>$( ... ga}~~ [![((((}:].>[]_9~]9^;)->{^^(3553=------$an>!!! {/",
"+1>!----$!!!!!# .9a,^^>;((((((###((7vu#((!!7.>.]4_____::]~([[b.:>>>####(((god}]~~{:]>(wx_}~[>::__^~=--> ^^#=3)--------$;@>!!!  '",
"+^~>#;-;!!!(#   >]ya'dc@{{{{{{{{{{1uvpu>###xn~}__9:_::}}.%[[[;.:{{{{{{{{{{{{goa7dm}}[{wpq:]&3}:__^^---> ,^>------;$$;!#((!!!$({,",
"+,^}1>(!!(# {{>{]:_qaxspc111111...cuvquc  cpd__::}}:}}]~*[[[[!~:]]]]]~~.......~c7aaad}dvv_}![~:9_^^!-!  ]^ $-$;!(!!!!!#!;;$-)(1,",
"++,^4~  >{{{{.}::|9xxssspm::::::::muvsvd]}dq_:}}]]]]]]~-[;{5[#]_44^^^4::::::::::_4::7a[pm_}{[ ]:_^^  {{>],.>#(!(#;;$$-$$!(##> .,",
"+++,^^4.>> ~4:4|||muvuwFuw7'4|||||yus__d9__:]{(!;--(!!)[(~].[>]_'+222+++''//2///2'nn^cu[99:~[[~}:4^1> 1~4''.{{ >#((##> {{{{{.~]'",
"++++'^^4]~4:4^^^||uxwuwuuqmcaaaa7cyuus:]~.{![[[[[[<<[&*!}::}[1]:9+6662!)====-==$7[upxpu~9_}][[[}:::__}::,++'}.  {{{.~~]]}}}:::4+",
"2++62+,^^44^^^,'^4xxvssn]]1{]]],9cum_: [[[[[[>~~~]~[]]]}::::[.]:~@688;=%&b&5;7auxpvvvxc39_}][[[b:}::__4>@++,^44444::::::4^,,,,/@",
";!#@662+',,^^~=$#1n____>#;$-${}____::{[{.....]}}}::}}:::____[>}_{>@86g*<<<b&%7pvvsvpxc_as_}}[[[!]]}}::_( +,^^^^44:|||41())))=3-!",
"$$(>28862+++@33);.~~9||-=*&3}__:::}]1[~]]]]]}::::__:::99___:[5:_{>@86g<<&*5%%%guxuxuw.~_c_:}[<>~[]]]}::> ,^^^'^^4|~;=33))-----~(",
"--$!>28862+@b<5=#;>1^,'-*<<__::}}~-[[.}}}}}}:___90o________}[[~_ {186g5*5*%%5553g77c1#]:~_:][]}}}.[~]]}_~^^^ !>~|| $355%3%%=-$~$",
"$!!;!>@662+%<b5)$- {'++$&<<9::}}][[#]}:}}}:::mm:lo3(;# ____[[<[:1{.66;355555%3=)--$$--]#}_:&-}}:}]~~[]]:_|^^=-!>]|.=b<b55553-;>-",
";!)$!!>@6+2b<*%--$  '6+;._:_::::][~]}}}9__}}d_m<z=b*553)_:[=1]1$#{~26$3*553=-------;{]$c..:[{}}}}}]]]]}]}::_4-$>1|}=&b*5555=-!#-",
"!!;(-;  2+;b&53--;{{'6+]_9:_::}~>)}}}::_~##.]m0}(**553--_# :::.]({~62)355=----)-----.:(du}}[~}::}:}}][.]}}::_--#>}4-5555555)-(!-",
"!!!(;!{ ,+)%55)--!{{'64__::9:.[[[>}}:::;;!#{~_:~(5553---][}:::{]!{~62==3)-----)$-!$;]_7su_.[]}:_:::}}[}][}:::)-(>]4(355555=--#$$",
"!(;;;({{,+)353--;!>1+29_:::9}:~[}}:::__-;!#{:}dc#35%)--;3=}:::>~! ~62);---$$3$;#!!!!]_usv_[ ]:9___::}[}]]}:::!-( ~|{=55553---($!",
"!!##(!{1,+=3%)-$!;#1+,__::>;::][::::__:-!!#{~^dn#=%=---_[}}:::!$#>~66.>!;!!!;!!(#!!!]_xr9:[{}:_____9:[:}}[}::.$!{~|~!355%----$;!",
"!(>(!;{1,+)=)-$;(;#{+|__:::___}[_:9__:.$!(#{.^uy#--)=);:[}}::9$#><~666~>(!!!!!!!!!!!:_v__}[.}:_______[:}}}}[:,(({.|4#-33)----;!!",
"!##(;!{1'+(-$$!!;({14882___:::][:>----$!#(({.sl|@$-#__:][::__>_  ]['6661######(!!;;$;w:::][]:hAkz__::[:9:____]__9]||.;-----$$#!!",
"!!(#;>{1'+@#>>{{{{{~|8864}9:::}[_----$!##!! ]0m^1;-]__:~[::__#9.44'[6662  {{>{{>>#>>{7:::~[]_t0eo____::_____][_5:]:|4#---$$;!!!!",
"!(((>{ ~'+.>> 1.~]}996666|9::::[_;$$$!!((!(~uh4,/#;__::~[::_:#}}4'@!<266/~]~~~..~...~]::}.[}_h0z@:____]____:n}__9}}^|~(--#!!!!!!",
";$! 1~4:'+,}4::44^44466_6/'___:[_!!!!!!!( mwc4^,+{>_9::{[:9_~>]4,#3!_[/+2^44::::::::::::}3{:_ez7(::____}:,,.u[__9[nlym (##(!!!!;",
"(>{~::^'++''''+222'^|22=2++____[.(!!;;;>nua1{]^'+}~_::}[[:__1{.^.%53]#_,+/++',,^^^^^^m::][~:ma@(!]~~]:94^_6cx:__:]eepu~ {{{#!$$$",
" 1]:,+/;;((g;)33==!#.)[$#7+___[_1{{ >1nulc1{>~^'+'^::}3[[:__1>.^@35)[;>}'+++#;$))))$7u::~[]:lj!!!].{>{~4,+8ux9_9meelqx|~~~.1{{ {",
"~:4'/;3=5*%=)======34:_:___+,5~>{.~ndaac.{  .]^,4_:}.)[[[}::_}]^'-)-{-# [++/%)==)--(9___~[]}9__:~;;$!{.4'/6m_qfeA01ssu|:::::}.  ",
":,+/=)*<<<<<*555%%555...]n_9:+^:suald^}]~~]4:4^^]{[[33<[ }::_9:^'>#[--(>~++#=5bb*=-(y___}[~}9__9}  {{{.4'28x~p0AAfkspd||4^^^,^:4",
"'++))&<<b&&5%33$3===-{>{:_]C,+^u7m_94,444:44^^^~[!~::}{[}}::_~,^',:#!(>>]'+!=*<b*3-;m___:>=}:__9}~~..1~^++2cufkEe0ksu##{.,^^'+',",
"++;)5<<&5*%=)$$$----;!!_9alB+,7n_94,2+^^^^^^^^_[}:}:}}][}::__!!@'+[1>>> ['+!=*5%5)-;s___:][}:___9444444'+++'d3AAh0epg3=);;# .2/+",
"++g$b<&553)=-$$-----!-1~#BtDama|daoC@@>##(# '_:[:}}:}}][}::__=(>/+:4].]4['+#=b55=--;}___:][}:__9}'nclllaeewkDADlfee7%555=-$$;>@+",
"++#-&*55%-==-$$-----$$);.=kDzaaBDttj%%%3=-$(>9>~}}]}}}~[}::_}3$>1:+,4:44:'6g=55=---;~___9~&}:__9muuddn1 >>oBDzzkeexpdi5%-$$$$  +",
"++@$5555=-))---)-----;)(aDtEzoClltB&b&53;{__:][:::}]] [ :__553-;(##@'^^^=26235==---! {_:: b}_<&3)>;!~----jDttkzzesssspi3;$$-;{ +",
"++@$5%%5=)))---53-))$!!#7DkAzzztABG<*55 __9:~[]::}}]-[~[:_>55@;--!;(#/''+822%=)))=;({{_::]b[}=555#3$1---iCCDBBC^sxssssdg($!$!{{+",
"++2$3jG%=)-$--=5%---!!!#.CzCayoCj*b*555__:~[[~::}}}.[.}}__=5%c7;-[--(>2+28:g----3=!( 1_::}~[}#5*5#%)>--$ig!g77||qaxxpppx>--$!{{'",
"++2-;CDj)---$$-53--;!!!#.oza,9}#*b5555=:~[[>~::}}}][=]]:_#55)du>-}---(>/666;----);!({1_::}~[}}333>)$>-$=53(#{.||soiaa7g;$--!! {'",
"++.!gDtBi-$!--$=)$;!!!!(.ca79|~)*5553_.[[.]}}}}].;5[]}::>%5=gpx7$>--$#{1266;----((!({1__:}~[#}_.${-$#;!;3;!#{.||hi%=-;$---;!! {'",
"++.>oBtAi-;!$$$;!(# .nc77a7~||^)555:#[*~]}]1!<[[[[>~:::!$))-7vpu![{;!( .+66)-$;!#!!({1__::][[:][[:_##(!!!!!!{~|90o7-$$$--;!!({{,",
"++']nBzzi!(#>{1c7777777n]~.]||,)%:[[=]}:}]3[) [=3.:__:d!]#$guqvu#$;__! 1+66;####>>> {.,'_9:~>:___:~((!!!!;$!{~9h0k0!$--$;!!!>{{,",
"++++^dzz@777777@~~~.1..1{~44^^,;3~*]}}~ <[[~]]}}:::944!7 -7kxqvw@!((_;#{/26;{{{{{{{{ ~,+__:]}:___ ][:777##> {]sehke@;;;!!;;>{{.,",
"+++++^mdn]].{.{11{{{{{ {}:^++^^!_[]:}~[>]]}:}}:::9__=^xs7;akuqvu>!!$[)#{.+2']~]]]]]]}4269_:[]::__1~uux_vpc11.malhlkd(!!!$$#{{14'",
"+'+22d,^4}1 {.{{{{1..~]::^g6c+^_][]}][~::::__:9___}44mxqpdAeksvu>(((#>{{.+++',^^^^^,,266,_:*]::__m_psss:qmdkka^lfhfec>#;( {1~4,+",
"/#3371{2+,4~..~]4:::::44^@=>ll_:<#]~[(}:9________]:4^huqsfAfk0pc1{{{11..~+++++++++++2666'_:~]}:__drvpvp sheeEeh^leeel1{{{{~4:|'+",
"/#))@;> +''4::::n,^^^^^^+i-g_:}#[}-[1}::::9;_;!#{{}:,hwsseA00ed}]}}s4::::,+22''++++/@@'4_:}:}:____}nuwu!de0fEAem^^,^44]..}::||^+",
"+#=g%=#>,^^^^4^^fkkkktl2g=!u_:~[1}<]:9_:___*_!!!>.]41,wvheE0feqmulld^^^^^'2=;! ^,'@3$>~9_:}:!:____:}@+g[#e00eEkf^^^^^^4:::|||||+",
"+>=3&%!>1^^^,,^^ykkfffet3;uy:}~*]]%::_____::~!!!>{]^;1uuhkEh00wl^4^,,,,'+;=$!>{^^')$$#.__::]}:____99]+(}nake00kA0''''++^|||||||/",
"+>!b&5);!$!#@2/',hkAkfheg7k_:}~<{[=:__p9}]]1>!!!>{]^$;,duek0Azn($)>;@/+++'>>>>1^,=&=->{9_::[}}:_____4+#_7^@oAkeekw@#;;(1~]}||||/",
"+ ;<*5))))-$;  26'0AEE0fkeA_:}~[[]}:_mxp] )-!!!!#{]^$->,^,ekzzji3={;(#2++']> .]^;&*--> 9}&::}}:______| ~].=$$iooii=-$$$$$;!!#.~/",
"+1)b5%-=---;({ /66n0kAEeeAE_:}~[{]::_upu~!5=!!!!({]^!$!//1aolltCi%#=-;#@/+^}::4,3=))$> [:9::}[:______9}c<=%%55%55%3=-----$$$! 1/",
"+.)553----;(#{{+88#7aee7mAyy::][]~}::_suc#)!!!!$({]^}^,+;doiCDBo;%;;$-$#>2,^^^^(=));>>[|()_}];{:_; 1/6}n)}*}b*5555553--$$-$;! 1/",
"+.)55)---$### .+6g%5)>.~'A_9::][}.}:__sxc(;$$;$-({]^^'+(1o)&iog=53!;----!>2','+#();>>>]|;3_}%]~:_${122n]!5&<<&55555%=--!;-;(( {/",
"+.=5=)=-$!>;> ~26%b<<%!#1n__::}[}$}:__su]>###(!!>{~^^++@7i*b*%5553)!-----;#@++// (>> }||==_5}]]:_;{16+c:>55*>55555%----$$$((( {,",
"+.)3--;$!(($1 }66&<<&%---{__::}[}!::__xdn@@@11{{{{~^^++,o$&55553=)-;------$#>/28/>> }||^33_]}]>:9!{.6,c:{5555*5533=-----$;((( {,",
"'.--$$(!!(;( 146g&<&53--={__9:}[]]}:_ywwuuuu00ac}}}^^++mo$5553)--)---$33---!>@/86~{}||9>3%_:}]~}9! .6d,: 555553)-)-=)-$$$!((! {,",
"'~#(!!!((!-#{~,+#5*55)--){___:][]~}:__99999999qdac4^~.'dg)553))-------55-$$!( 266+4||9^=%5_:}]][9!>~2d]: 5553)-----=--$$;(((({{,",
"'} { #!;;$) {}'+#=55=-$;!!!::}~[ :_9/662+'',^449qda@(1^mg=53---------=5%-$;!!  266,|}^>= _:_:}}:_______-=%3)--------$$;;;!!!#{1,",
"+^:].{>;))!1.4++#)=)-;!!!!!9:}.[}:_,8888+++++',^49}ag1^so(=------!(;--5=$;;!(  /66+,^~=3 _:_:}}_[_____9$------------$$;;!$;!#{~,",
"+^^,4}~{ @cd}|,+#$;(>>##>>>_:}{*}:_288i;;;;;!g(>.;!~da,yo>-------$$--$-!=5-(( {/6g+^^)$3~_:_:::_______9$-----------$$$$;!((({{]'",
"/,,26nuuupxd44'+ >>{{{{{{{~9}}~[}9_22!3%%%=$$$)$=)$#]}7ca@$$;!;;;;;;!!!(35)(! {/6;@,^~#(:_:_::::_____9m;g7g;;;;;;;;;;;!!(n1>{14+",
"=;#@7wuvsvu4:'++{ {.~]}}]cx::}][}_|+/%5555%)-)=-);;#{]9duo#!((!!!!!!!!!!$=!!!>{'+((2,^1>:_:_::{______9faxxw@>#(!!!(((;3)#d.~{}^2",
"-$;>wmssvuh9^'++}^4^^^duxsp:}}][}_4';=33=)-$$$$!;;(#{~^zBBDj!!!!!!!!(!!!!!!;$>{'+@( n,^.__:_:[:___9_yfkpvvpd1{{#!!!((=53cun]]:/)",
"--!cpsqpux9|||4,'+++dwxsq___:}-[::_9 ###>>####(##>> {.DBDztzC##>>>   >##(!!!({{'+2> d,,4.._:[}}__eAkkeudvvvxd]~ (!!!!$5gppd}9,!)",
"$! dssvud~!%)! ~||4mussqq_:::~[}_:_|.>>    {{{  {{{{{CDttkzzzza@1{{{{1..~.1{{1.,+/ nxu,^}}_}}}:__k0fxvvduuud44:.#!!!!!!uppu99.=-",
".]nxxuup]~ ;=$#{|||xssmm__::}[]:_>_d^]]}}}]~.1.~]]}}cBzAEDDBlqmuaac'4::::::44::^+''dpu^'^9_[:}:__m^,psvumm^^^^^,>##!;;gwvsw94)$#",
"uaazCDDaaoadm~. ]||dlDBy_:}:}[}:__::^++++'+'^:::^,,'azzzCBDl99__9qmulll^^^^444^^,'+uvud''^_=::__:>'dvsvum^^^^^^^]{{{{{wxvswy.#>n",
"7.{ozzBo}1@gooady9yaDzl_::}:][}9__mx],+++2666666666662+'^^44^^^4::999sh0ld^^^^^^^^uxsxc#-._}::__:$=7xspw@! @',^^4}~~~~upssuy1nua",
"#(-iCtkD'~!( ~~7aaazzl_9:}]]{(:___up3~.''+26@ii;gg8ggg##@1~],^^|||||9999sfel^^^^^dwpsxc{3 _:}__}#5%guspw!;{1+22'^|::::upsp000kka",
"!!3$jBCzz]{-$ .:_yoAzCa_9:}[5]::_pwpu77][uugi$%&&&b&*%3333$$;! .|||>!(.~~~]he7> .uxvsun___:__&55%3=;wvp7-#1.262++^||^'dxsekEAkko",
"((!#(gCCoc~$;> 4|e00_m_::}3[]}::_uwxbwxmpvvpxc3bbb<<<b&5553$$;>1:||;=%5=(>{.]uo!{wpssx{___9_}*3=----gxx#;#1.26##((!(@,^dmAAAe0k#",
"(((>>>/2++~##>14l0hh}[{1;[[[}::_9uFx[umsqqvx7 )55555555%=3)$;!>{4||;5<<*%!{..~mo@uvss7@:___4-))-----$7d(!({.+6;)3)$;>{^yuA000ka(",
"(!( >~^+++,{>>~/t0h_[__:::{[}::_ywFv:usqspwn..(;)=====)--;$;!!>{}||(&<&%)$$>...moavvlCzm___~=3=------;@!((>{'6;35=$(>.}hlmlllc !",
"!(>{1:'++++4].}2z[}_(_::::: }:__suup[xvpuu_:~1{{>$------$((((!#{}||#**5)$17g@c.~moxzBzEm___>==---)---$!!((#{~+!-)$#>{}pl|99_9}>(",
">> 14,+)$@+',^'2[m_:::::::~]::_|c0wu.nnmy__:~~~~.>;$$--$;(((!;({4||>=5=-$.dxxuwc~maBztBmq9_!-----=--$;(!3)#{~/@;;>> }m0|9}4:4^] ",
"{>~:^+@53)>2/2262om::}}}{ }:_~{]:^dod_:9||||::::4. ((#>>!;;;;( 1:|| -=---1cpvvppd}dBkzCqpw.:{;----$;!!()53#{~nc#>>>}qey9 )>4||,}",
"}]:^++@(!;;;#@2:6~_::}}~{}}__(#14,^4aar:.1.~]^'++^.{{{{{11{{{{{.4^^.!!!!;..uxpvpvnyzkkmsxu{~>!($;;;!!((=53#{]dx@> }ruh9#=)! }|^'",
"2^,'++. >>>##.|[4__<:}}[}}:_1!#{^+'49con!)==$ ],'+^~.~~]]]~~]]4:4^4~>>>>~> 1wuxpxn:dcmvxd~>>>>~((>(!!((=5=#.}xsd}:9hl9(5*5);;!##",
"!#2'+62'.>>>1__}__:::}]*}}:~!;({,++/11>od;553;( ]^',:::4^^44:444^||}~~~~];$#>auu~]4samnn~.(!!#((!#(((!!!=!#]dpqxm^l0|>5<&3$---$;",
"!#>16862'^49__::_::::}{}}::!(;(.,++$%%;!oc(55=-;#1~/'n+++/@/,^^^^||||||:1$$33(  ]]:9a]]]~#((((((!!!!;;;;$$#]uvqvdzCd.=*&%)-----$",
"!(>12862++++__}:}}}}}:[:__!~#$>.,+2&<<5#>ou#%$7wuuclee@)33=);!;;;;;!#4||!!!$=!;({~_4a]]].1{{{{{{{>>######> ]wvqvDzD.;*55=$$----;",
"!(>1266+'_ }__::}}}}}}~_:#;#;#{.'+=<<&53#>7wcoAkAkAkk7;3*&53======)! ]|^$!((!;; {]|,a,}~.........111{{{{{{1]wvqzDtB %5%)7c>--$$!",
"!( {+664_____:::}}}}[._}>>>>{{{.'2b<b5553# 7ekekkefez 3<<<<*555555%; ~|,##>>>>{{~:,,uc^,::::::::::::44}}}]]:upsBzzBaaauxxc ;--$!",
"!(  '64__:__:}{ {{{[:_}{{  {1~]:,(<<*5553;.cdkfhhfet,>%<<b*g7%5555%$ ~|,@{{{{{{14,+,pa^++'''+++++++',,,,^^4:ywsDzzDxpvvpu.#---;!",
"!!{ ''__9:[}}]::}}:::'^}}}}4::4,/$&*5%3)-->xslkf0ke|'1!%3>xua=555%=$ .:'/1~]]}}}^+6,so!;#@/2666666662@#@@@'^|mxkzChssspwc{$--$!!",
";# 1,4__[~__9::::::__++',,,,'22+'#3=)-=)-$7ssvwazu:|^/#;dxwpa#3=)--$ 1:+',,,^^^,+22,qo$$(##/222g$))=33)-)$#,^|4uavvsvxwc{;--;!!!",
"!>>~,+:[:}:::::__9'+@>@@1/+/;2661{----=--;usqvu~~7am9,@puwxp71-;;$;!>{4+++++++++++'49a;>>~,+@)3=)=3%%5%)--! ~4:mocxxuuc ;$;!!!!;",
"  >}'+4~;#______^^.-3-$#>.'#!@66/ >$-----gusqpu ~:4oamyuwwsxc>--$(!!>{}+==))$#++/;$]9a@{},+;==*<<*55555=--;>{49a7.... #!!!!;;!(>",
"> ~4++(153_____^^#355=->>]'$=>266~>#!$$-$#wvsuc1~9,,'aauFvsx.!---$$!>{]2%5=; 1++;)(]:d74'+!=3b&&*5555%=---!>.4qa~~~1>##>>  {{{{{",
"~44,+_=(%)].~11,^>35%);> ^+%=!>266~{#(!!!#uvsun~}'61}^capvuc>----==!>{]/%5)#{1'2=-;]}ma,'#=%5ia%55%3=-----! ~:d7]~1{{{{{{{{{{1.~",
"^,++[:==)-;#!(>]^ =5=-(>1,2%;!#>@62]{ !!!!wpvu]]:68=1}^muwdc7;--$5%!#{]+))# {},)%!uudva,!))g7eo;=)$;--$$--!>~so94~~~~~]]]]}4::::",
"++++++;-$--!!#{]^~)=-$#>~'@=>>>>>@62,1{{{{7uvd]}'88#> '^zAEAeug;!=;!!{]+;({{]4@55>upuua;7dhleka#---;-$(;--(>}an|^^44::::444^,''/",
"++++++($!(#>>>>~^'$;#>>>}' #>{.~~]262^]~~~~dxd}4666' >{'AfkEAkw#!!!!!{]+@ {~4/=53 xwppwdf000ez.(;$----$;;( ]ucym^,''''''''++++++",
"@@2//+@#>>>>{.~}^^>>>>{~4'~~}^,,,''666'4:44^up_|66624::9kfmtAAeu#!!$#{}+2{.4+!)=->pwwpx00ee0kc~>>>>>>>>>1]dapxuwu,,,,'2g$;(#@2@@",
"$$({1+@>>1~4::44^^1 .]::4','++++/2@@@26666666d,,6666'''^dkhffeAAc (#{{^++.}+@---$>nuwwpw000ka}]111..~~]mda7mppvpxuxd7)%===$!;=$$",
"$;(  +/~}:44^^^^^^}44^^,+++/;==3===)--;;$=33$#/'6666+++']dkke00ekd]11~^++,+2$$$;;#~puwwfmfet___9999qmuoo7^:9xvsvvvvx7=%%%3-$;$$$",
"(!(> /',^^,''+'',^^^^^,++2;3==33%333======3=-$>#);;#++@;(~4,lllte0n]4:,+'26>((##(!{]}feffeemsvvxuaaoo7~~~/^9mxxxpxu7 ;----$;!!!!",
"!(!>>'+++++2#!(##(>{~^+++)=5&b<b555***555555=----#>1+23)$#~|||||999:4^'ozCc1{{{{{{{.]9letaaaaoog7@ #((;$#>'49yuuu7 {!---$$;!((!!",
"!;$# ,++/;333==)))-;>.+++#=*<b&53==========)----;>>~+!$!#~4';'^^^^4^^oBAzC~{{{1...1{~',^ >#!!(##;=%5%)$$!>2+',, 1 #-)-$;;!!((!!!",
"$$$>{'+@))3b<<b<b3-;>1'++@;=))-)$--$------$-----#>{,/!>.],!=;>.'''''lBAtDl^^^4::::::4++2$==)==33333=$;;$(>1+++/;$----;!!;;;$---$"};
