/* XPM */
static char * wall_plants_shadow_thunder_6_blue_xpm[] = {
"128 128 38 1",
" 	c #302C4D",
".	c #2A204A",
"+	c #2C1F48",
"@	c #353251",
"#	c #3F3A55",
"$	c #454159",
"%	c #261F48",
"&	c #30254A",
"*	c #1E1847",
"=	c #615E6E",
"-	c #8F8B94",
";	c #9C9698",
">	c #7F7B84",
",	c #514D62",
"'	c #4A465E",
")	c #797682",
"!	c #5B586A",
"~	c #372B4A",
"{	c #48455B",
"]	c #4D4A5F",
"^	c #726E7A",
"/	c #313147",
"(	c #334247",
"_	c #5C596B",
":	c #656272",
"<	c #575466",
"[	c #646171",
"}	c #3F464F",
"|	c #868289",
"1	c #6C6876",
"2	c #3F324C",
"3	c #676473",
"4	c #77747E",
"5	c #404D47",
"6	c #585B48",
"7	c #8C888E",
"8	c #465450",
"9	c #132846",
"    .++  @#$$$##@@@@ .%++% @@@@@@@@@@@@@@@@@@@@@  .%  .%&@@@@ @@.*.@=-;;;;;;>,@  .**++++ @@@@@@@@@@@@@@  &%%+++  @@  &.&        ",
"..%....&& @$$@@@@@@@ .%+%% @@@@@#@@@@@@@@@@@@    .%%.%% @@###@@@@@@ .');;;$ * @ **%+&&&&. @@@@@  @@@@@  .%%%+++.     ...        ",
"**%%%.+&&& @@  @@@@@ .%+%%&@@@@@@@@    @@@@@@  & %%%%%@@#$$$###@@@ * #,!;;*##@@@  &&&&&&+.@@@ && @@@@  .*%%*.@.+%%..%%%%%%***%**",
"+++&..&~&% @@@@@  @  .++%%.@@    @@@@@@     @@  .%%% @@${{$$#$#*%.  @],^;- ..@@@@@@@ &&&&%&@@ /(@@   .%*%*%@@  .%%*****%%%%%%%%+",
"+++&.+&~~+.@@@@      .+++%.      @@@@@@   @@   .%%@@@#$${#####*.. @#'=_;;: .*& @@@@@  %+&&%&/(/(    .*%%* @@#@@ .*****%%%%%%%%%+",
"@  &++&~~&& @@ @     %+++%%.     @@@@@@@@  &&  %%.@ @$$####@ /. @@#<[=;;;,@.* @@@@@@  %%%+%%((%(. .%*%%% @@@}}@ &****%%%%%%.&   ",
"@@  ++&~~& @@@@@    .%++&.%%.&...       ..&  .%%%@&&@##### (.* @#$<[|1>;;<@.* @@@@@@@ &.%%%/(/%(..&//// //%%.%%%2%*%%%%%%% @@@#@",
"@@  .+&~~& @@@@@ . .*%+ @  %%....      &...%%*%%%..%/##@@&2%*.@#'<_;:--;;_#.* @@@@@@@@  .%%((%%((/%**%. @@   ..%%2%%%%%%@@@@###@",
"@@@  .+&&& @@@@@ .&%%+ @  @ .%****%%%%%%**%%%%%%%%.%% @ & % @ 1;,,;[1;;;;1$ * #@@@@@@@    .(/%/%****& @$$###@  .%%/%%%@##@@###@@",
"@@@@@ ++&&&@@@@@@ .%+.@@&& @  %%%%%%%%%%++++%%%%%*//%/@&*%. @###@#'=-;;;;|'. ##@@     @@@  .///**%%@@##@###@@@@ .*(%%%&%//(###@@",
"@@@@@@ +&&& @@@@@  ++&@@//.   %%%%%%%%++ @@@@ .%%%/%%//2*. @#',#  $3;;;;;-=@%@@@      @@@  &//*%%.@@#####@@@@@   */&%//(/( ##@@@",
"@@@@@@ .+&& @@@@@  ++&@ ///. .++%%+++++.@ @@#@ .%%//%/( . @#<@.* .{1;;;;;;)<@*@@      @@@  /**%%.@@#####@@@@@@   %/%%((%/(@#@@@@",
"@@@@@@@ +&&&@@@    +%. //%/. .++ @@@@@@#@@@@#@@ .%//%/(* ;@< .@@@*{^;;;;;;;^,@*@&     @@@  /*%%&@@#####@@@@@@@ //%////%/( ##@@@@",
"@ @@@@@ .&&.@@@./  .%%//%%/. %&2@@@@#####@@@#@@  %//%1-  @@ **@@@*,;;)_!1;;;>,@**&    @@@ (%%%.@@#####@@@@@#@ ////%//%%/ @#@@@@@",
"@ @@@@@ .&&+@@@.// .%%//%%/**%22& #{{$###@@@@@@@ .%/_***   *  @@ @;;,@@@@#,|;;1 .% @@@@@  /*%%@@#####@@@@@@#@//////////&@#@@@@@@",
"@@@ @@@ .+&+@@@./*//%%/%%//*%&&&& #{{$###@@@@@@@  ***%..**%@@@@. ^;'*    * @,;;;;.@@@@   /*%%.@#####@@@@@@## ///////(  @#@@@@@@@",
"@@@@@@@ .+&+@@@./*%/%%/%%/%%%++&&&@####@@@@@@ @@@ .-*%...;@@@@@*,;'.      *.@$;;.**    (/**%*@@####@@@@@@@##//.%%%//. @##@@@@@@@",
"@@@@@@  .++&@@ &/*%//%/%  @@@@&&&& @#@@@@@@@&& @@ ..*%.*        :; * .....%*.@';#*%* -;/**%%*@|###@@@@@@@@##  ..%**( ###@@@@@@@@",
"@@@@@@  ..&&@@@//%*//*/ @###@@ &&&.@@@@@@@@@./( @ ;*****%.    %#;).***%**%%**.@;,@*%//%;'*%4%@@@@@@@@@@@@@#@@@ &.**( #@@@@@@@@@@",
"@@@@@@  .&&.   ./%*%%.@#$$$##@  .&%       @ &/// &/***%%%%*%..*];'**%%.%+.&&%% ;!]@*%**%;%+%*.@@'@@@@@@@@@@@@@@ .%*/ @@@@@@@@@@@",
"@@@@ @  %.+%&22(/%%// @###{$#@@ .&+.&       &/%///(%%/+++&+%%% _;@**+&/%%& &.*.|;,' *%*%..&%*%  @; @ @@@@@@@@@@ .%*%2@@}2 @@@ @@",
"        %++/(((/(/////// {{##@@ &&&%%....%..//;%%//5/6%&&&&++* [;./../%/%&5 @(/#;!<{ *++&&&&**. . @;  @ @@@@@@@ .+%%(@}(5 @@@@@@",
" &......%+/((((/(/%%%%%/@$####@@ &&++%%%%%%*%/%%%///55%&&&+. .#;,*%///%/(555/%.>;;!,# %+&>&&%**%.&     - @@@@@@ .+%*/ 6((5      ",
".***%%%%%%/(5555/(/%%// ######@@@ &+++++++++%/%%%/(55%+& @@#. ';#%**//%%6(5(.//;;;-!'@*%&*&%%%****%....&        %%+%%(6(/2.//%..",
"%%+++++++%*%%/(55/./// #########@@  @@@    &&%%/%/%/%+ #@@#@*@<; &%*//%(5/5(/%//,';;_$.**+&**%  &****%%**%...  .%%+%%%(5(//////%",
"//++ @  %%%%%*%/(%..  ####@@@@####@.@@@@@@@@  %%%/**%+@@#{{@.$3;. %%/%%(5/5/%%%%;.';;=@.** ***.@@ .**%+%%%%%****%%%+%%//(//((///",
"/// @@@@ %%%****&*& @###@@@@@@@@@@@&@@@@@@@@@ .%% %%%%##{{$* ,;,.@/%/(//5(2.%*%/;*.'7;! .**;.*** @ &++&&%+ @@  .%%%++(%%/%*%//%/",
"/&  ${#@@ .*****&*&@@#@@@@@@@@@@@@@ @@@@@@@@@  .%(%%*&@${{$  <;'.%/5(//(5(..&&/ ;&..#[;;@ .*1@@@@    .&&+ @##@@@@ @@ /%%//%%%///",
"%.@${$##@@ .****&%+ @@@@@@@@@@@@@@@ @@@@@@@@@  .%(*%* @###@*@[;#.*(/;%%/(/&@   @.@@*.@3;;$ **% @ ...%+&&&+@{{$##@@@@ (%/(/////%%",
"+@${$##@@@@ .***&%+.@@@@@@@@@@@@@@@ @@@@@@@@@  .+(%** @ ##*.#;^#.*555((/(/.@@@@ #@@ *.#=-;'.** @ ..*%++&+%@{{$#####@@2%(/.&....%",
".@#$###@@@@@ .**&%++ @@@@@@@@@@@##@@ @@@@@@@@@ .+&%** .*#*. ';=@.*/(55552(. @@# %@@@ % $_1;$.*.  %*%%.@ +%@########## /(/ @@@ &+",
"+@@###@@@@@@@ &%% +++ @@@@@@@@@@#@@ / @@@@@@@@ .+% ****%*..@4;<@.. &//(&&2%. @@;;@@@@@* $,!; *%.&*%% @  %%@#######@@@@2/& @@@  +",
"+ @@#@@@@@@@@@  %&%%%.@@@@@ @@@@@@@ / @@@@@@@@ .+% ***... @];;,@. @@ ...  (%.. ;@;@@@@%.@$,;@**..*%@@@  %%@####@@@@@@@@(. @@@  .",
"+& @@@@@@@@@@@  .*(%%% @@@@@@@   @@ %/ @@@@ . ..%*****..@#!;;7$.       @@@ 2/%... .@ @//* #;,..**%.@@@  %% @#@@@@@@@@@@@  @@@  +",
"+%.  @@@@@@@     .%(+/&           &/%//    /..%**%.*..  $4;;;=$.             2( /%%%; //*.@|^ .**%%@@@  %% @@@@@@@@@@@ @@@@@@@ %",
"+%%%& @@@@      .***(/%/&&&&&&&...&/%*/&  &//**..  .  @#>;;;;_#................& (((/ /%%* _;#.%*%%@@@  .% @@@@@@@@@@@ @@@@@@@&%",
"++%%%.       .%****//%%%/%********%/%%%/.%/**.  @@@@@@#:;=');<@*%%%%%%***********%** (;/%* ';]@.*%%     .%.  @@@ @@@@@@@@@    .%",
"+++%%%%.   .%*%***%/%//(// +%*****%/%**/***.@'!_=::!__3;!#@$;,@*++&&&+++++..&...&...%&/;**.#;;# .%%&  &.%++.     @@         ...+",
"+++++%%%..%*%%%%**///////*%&(((( &%//%.@#$'_;;;;;;--;|>_ .. ;{@.*+&&&&@@@@@@@@@@ ;/////#** @;;; ...**%**%+++%.     .....%%%***%+",
"&++&&+%%%%%%%%%+%%//%%%...& ...%*&/%*.];;;;;;,###@#;@@@ ....;$@.. &22@@#${$#@ (///%%%//^** @;;;7. ..**%  ++%%%%%%%******%%%%%%. ",
"@@  &&&++%%%%.@@ &.****  @@@@ %****..';'$$$$$@   ..  ...****;, *   2& ${{{{$# /%%%%//&*/%*  ;;;_@@  ..*@ +%%%%%%%****%&@@@@@@#@@",
"@@@ &22&&+++ ##@@...***@@$$#%**... @{;#@@@@@ ....**...%%***.;).*   2& {{$$#### //////..*/*. ;-,#;@@@ ..  %%%%+%%%*.@@##@@@@@@@.@",
"@@@@ &22&&+ {{#@ @ &%%+@${{**..  #:;;$      .****/2******** ;;#*  &2& #$#$######   && .*.*.@;@   $;#@@ *.%%% @ .** @#######@@@.@",
"@@@@@  &&&+#{{#@@@  +++@${{%..  @;;<@ .   ...%%./2# @  ****;;-;.& .&&@########@@@@@@@@.<%*.|:  . @##;@@.**%%@@@ .*.@{{{#####@@ @",
"@@@@@@  &+&{{$#@@@  +&+@.*.*....@;#@   %**%%/*%-(@{$###@*.;1{@&[  .&&@#$###@@@@@@@@@ .@&...;'     @@@@ @ ..*%@@ &*%@${$####@@@ @",
"@@@@@@  &+@{$##@@@  +&+.*%.*.. #,3   ..*.  ..%/ @$$###@@*<]....@@ .&&@###@@@@@@@@@@@.*@//% ;# .. .  @;$@  ..*@@  %%@#######@@@@@",
"@@@@@@  %+@###@@@@  +&%**..%.$;;;,  ...@@@  .*..@####@@@@; ... @@ .&&@@#@@@@@@@@@@@@%* %/*$;@ .*...  ; @; ...@@@ .%@######@@@ @@",
"@@@@@@  %+@###@@@@ &+&**...% .#;  ...**@@@  * /& ###@@@@^1 ... .@ .&&@@@@@@@#@@ @@@@%*/%%*;]@.%***.. ; @@ ...@@@ .* @#####@@@@@@",
"@@  @@ &%+@##@@@@@ &+%**..,=..@;....***@@@  .%/. @#@@@@*;  ...@@< .&&. @@@@@@@@@ @@@%*/**.;' .*****%.;.  ; ...@@ .*.@####@@@@@@@",
"@@ @@@ &%+@@@@@@@@  +***...*** ;*.%***.@@@  .%/% @@@@@@.;  ..%@  -.&&&. @@@@@@@@@@@@**%** ;$ .*******;.    ;.%@@ .*% @##@@@@@@@@",
"@  @@@ &++@@@@@@@@ .%22&***...@;. @@@@@@ @@ .%/* @@ **.@;..** *  .;+&&&&      @@@@@@@/...@;@.%5((**..;.%.****@***.**.@@@@@@@@ @@",
"@@@ @  &++         .*22&%%*... ;*@@@@@@  @@ ./%%&@@.**.#;..** *.%%+;&&&&              ...#;@*(/(2****..*****.;*)..**% @@@@@@@@@@",
"@@@@   .++.   &...%**&&&&**....;*@@@@@@@@@@./%%%. @**..#;..** %%%+ @-&&&................ $; *%/( *****@*****% *** %%*.@@@ @@@@@@",
"@@@ &.%*++%%%**%%%%%%&&*&&%***.;*@@@@@@@@ %/&%%%+  *%..';.%*. .%% #@*;.+&%%%**********.. ^'.*(( @****** .%%&/;***;./%% @  @@@@@@",
"@  .**%++++++++&&&+%*&&1&++****;.@@@@@@ ./(& .%++%.*.. ;;.**& .%.###@ *%+.+++%%%%%%%%%..@;#.%( @@%..%**%%*&&/.***@/(//.     @@@@",
" &.*%+.@@@@ @@##@@@ .@;@  +***;*.    &.//&&  .%+++%.. ^;;.**& .% ##@;@  ++++ @@@@@@@ /..#;@./}@@@%.   .%%+2//%**%///*/*....&    ",
".*%+.@#@#$#@@@@@@@@#%******+%).  .../((&.   ..%%%*. $3;;; ..*%.%+@@@ @  ;++.#@@@@@@ ****#;@ %***.@@@@ .%+&&%**/(5/{%%/******%.  ",
"*%+.@@${{{{{$########....+**.+%*%/(//%%....%*%%%@';;^^-;] ..***%+  ;@@@ .++ @#{{$@@ %*** ;# %***%     .%+&~/#//55/(%//**%%%%%%*%",
"+++@@${{{$$####[#@@@@   **@5%+%/ %**%%%%%*%%%%%#;_#.. ';  ..*.%%+%. @@  .++@@${{$#@@%***.,1 .***%....&.%++&&//(5(/(%/   .%%%+++%",
"++@@#{{$#$#@@@@@@@@@@@@*%//6+% .**%%&+%%%%%%%%*; . .  @; ..**@@ ++;&    ;++@@$###@@@%***.@; .****%%%%%%+++++/^55%/(/ #@@@@  .&.+",
"++ @{{$###@@@@@@@@@@@@&. 6/5(%(*/(25     @  +*.;.  .  @; ..**@@ .+.%...%;++ @{##@@@@%***.@; .***%+.&///(((/(555//(( ####@@@@@  +",
"++ @$$###@@@@@@@@@@@@@@@$1(5(((65//}####@@@@ %,#  @   #; ..*%#@ &.+%%*%%.+& @##@@@@@.***%#| .***%////.&   265(((((///@##@@@@@  +",
"++ @####@@@@@@@@@@@@@@@@(5/5(25///6${$##@ **.@;... @@];].**###@@@<  +%%%1&&&##@@@@@@  *..]7 *{$#@ @@.@@@@}5//((((%%%%/@#@@@@@  +",
"++ @####@@@@@@@##@@@@@@  5(5(((/568{$## **%.#;@..  @:;#;.* ## @@@_@@ .+++2&&#@@@@@@@  *..@7; @### #@&@@@@555665%%/%%%%/ @@@@@  +",
"++&@#}8#@@@@@@@##@@@@@@ .5(5(%25}${$###**.#;;#..   $;$  **@##& @@;@@@ &+&2. @@@@#@@@ &*.. #;  #$# #@ @@@@ @   ***(////// @@@@  +",
"++&@@55}@@@@@@@##@@@@@@ .2((%*% ${####@.#;;,#..   @;1@@.* ##@// @ @@@@ .&&&@@@@@@@@@ &*.. #; %### @@ @@@##@  .**%2@((  @@@@@@  +",
"++.@ 5/6@@@@@@@@@@@@@@@@.&( **.@$####*$;;$@    @$=);@ .. ##@ // @,@@@  &&&&@@@@@@@@@ &**. #;< *.@ @@ @@@#@@  .**%@#@@@@@@@@@@  +",
"++. 26/5@@@@@@@@@@  ..&  ( .**%@###.<;>#@ @{_-;;;;,#..._@@@@ %//@; @@@ .+&&@@@@@ @@@ &**..@;;.@;;.*  @@@@@@@ .**/2 @@@@@@@@@@  %",
"+++..6((@@@   &&       .....**%@#.;;1@ . @^;3];1^$.***%_% @ /*%/ @@**@ &+&&@         .%+*%.#,.***..@@@@@@@@@ .*%/(/@@@@@@@@@   %",
"++++%/((        ....&..& .%%%%%@##>@  #]-;;#@@  ...*%%_  @ (/*%/ @@@*@  .&&@         .%+**.@ .*** @;.        .%(%(( @@@@@@@   .%",
"+++++%%/.... . &&       %*%++%%@*;@. #;,@@ .  ...%**1%/% @((/*%/ @@@;@  .+&+........%%&&**.;@..**&.///*%/&&&.%(/%/(/@@@@@@   &%+",
"+++&&/%%%%&  .    &....**% &&+%*@;@ @;#....**.%*** %%%/*//5((%%/ @@@    .++++%%%%%%%%&&&%*.>@..**%*/%%%.*%/(((%//%/(&  @@  &.%%+",
". ## & &+%%.....%*****%%% @ //*.-<@#;! .%********@*%%%/*%/5/(//&&   &&...+++++++++++&&&&+*.#@ .**/9%/%/]%%((5(%%/(((/&    .%**++",
". @@ @  +++%****.%%%%%%%+@@ *. <; :;{ ....%=*@@   %*%%/%%(5//(/%.%%%%****%+&&++++++.  .%*. . .**** %///_/(//55(%%%%%%%...%****%+",
"+ @ #@  %%%%%%%%/((((//& @@/*.#;{ -@.%*.***>*@@@ ..%&%/%%(5//(*%////%%%%%+&@@@ %%+ #@ .**. ._.****.% + ; (//(5(/%%%%%%%********+",
"+ @#$#@ &%%%%%%%%((///(/#@/*. #>@@4..*****.*.@@@  .%@&//%(5%////%%%%%%%++@@@@  %%+@@@ .**..@ .****%*.+@ .(((//(5/++++++%*******.",
"+ @{$#@@@@@  &.+%%(5(/%(  (*. #-';1.**/* ..& @@@  .%@@%//((/5(.@@@ @ .++++    &%%@$@@  **..;  .*****%+ * % 25((((/  @@@&..%****.",
"+ @{$#@@@@@@@  &&+/555//((5*. #;;@ .*%//. @@@@@@  .%@@ %%%((((}@#@ @@ &+++.  ..%@$$@@  * |..  .******* .@.@@@@22@@@@@@@@@@@@ ...",
"+&@{##@@@@@@@  .&&./(55((55*. #;'@..*///.@#@@@@@@ .%@@@..&(2///5@# @@@  .+%%**%%#@@@@  ;.%.. ;.*******%&-@#########@@@@@@@@@@ &.",
"+.@###@@@@@@   +22  ((( %5**..@;@# ..*%/& @@@@@@@ .%%%%+@/2@5562@#@@@@@  &%%%%%@@@@@  ;*@@* @='.*@ &.&%.@ $ {$#######@@@@@@@@ &.",
"+.@##@@@@@    .+& ##@ ..+5**..@; $ .**%/&@@@@@@@@ .%%++@&2@$@2 @##@@@@@@@ &+%++ @@@  ,.*@#* 4@#.*@ &&&..@#${{$######@@@@@@@@@  .",
"+.@#@@@@@@ @  .&&#{{{#@ &.**.. ; [ .**%/.    @@@  .%%++  @${$#####@@@@@@@@  ++.. @    **@@*) @@.*@ &&+&% ##$ ######@@@@@@@@@@  %",
"+.@#@@@@@@@@& %&&${{$#@@@ **.. ; _..**//.   &&    .%%++%2@$#####@@@@@@@@@@@  .&2.   %**%##*@ @,.%@ .&%&% ####$####@@@@@@@@@@@  %",
"+.@@@@@@@@@@ &%& ${$##@@@ **%. ;@@ .*%////////(&%%%%%++%2@####@@@@@@@@##@@@@  .2&. %*** ##*. @# %@ .&/%% ######@@@@@@@@@@@@@@  %",
"+. @@@@@@@@  .%+ #$##@@@@ ***.@;@# .***********/(&%%..+/ @###@@@@@@@@@##@@@@@ &&&+%**%%@##*. @@;%@ .&/.* ####@@@@@@@@@@@@@@@@  %",
"+%    @@@@@  %++ @##@@@@@@@.. #;].**.&&&+++%%%%**/( @&%% @##@@@@@@@@@@##@@@@@  &&&%* % @ *.*.  .*******@@##@@@@@@@@@@@@@@@@@  &%",
"+%*..  @@@@&.%++ @@@@@@@@@@%. $; .*%2222++++++%%%*%( &%%2@@@@@@@@@@@@@#@@@@@@  .&&+%%.@# *.*.  *;******@@@@@@@@@@@@@@@@@@@@@  .%",
"+%%%%%.   &/%*%+ @@@       *. '> .*&22@@@@@@@ @ .@@./(%%2 @@@@@@@@@@@@@@@#@@@  .& +%%@@#.*.*...********@@@@@@@@@@@@@@@@@@@@@  .+",
".%%&&.//////%%++          .%  #; %*&&@####@@@@@@@@@ .% &( @@@@@@@@@@@@@@##@@@  .&@ %%.  **.*....******%@   @@@@@@@@@@@@@@.&  &%+",
"@@   //%%%/%*+++   ...%%.&/.. @; **+.######@@@@@@@@  .*//2 @@@@@@@@@@@@@@@@@@  ++@@&%%& **.*..'*******/(///   @@@@@@@@#@ /.. %%&",
"@@@ /%%%%/%*%+++%%%%%%///%%.  @; *%+@@##@@@@@@@@@@@  .%(665}@@@@@@@@@@@@@@@@@  ++ @ .%%.**.*.;.*****%/(/%%//&   @@@@@@##&/...*.@",
"@@@&/%*///****%%++++///%****. :;..**          @      .565(/(5           @@@@@  ++&  /%%%..*.;  **(5(((//%%%//.. @@@@@@# ///%*%@@",
"@@ /%%%//.@#@@ .**%%/%%***...#; *.**.                55//(((((( &    &....&  &.%+. .//%%%%*   .**(///%%/////%%*. @@@@@@////**.@@",
".../////.. @@@  ***/%%%%**.. ;@.*,*%%..%%%...&....%%&6(55556/*%/((&+%******%%**%+++///%+%**;. .**%%%/%%/%%%%%%%%   @@@ /%%/*%@@ ",
"/(((555((2(/%.. .**//56%*. . ; .**..%+++++++%***%%%+((((565/******%////%%%%%%%%%%++/%//++%*1..*** +/%%%/%%%%%%%%.     //%%/%.  .",
" . 2((62%&  22(/%*%(5(/*.. .@; %**%/@%+++&&&&&&&&&&&&&++%%%%%%%%*****%%///%%%%%%%%//%/& @.* ..***@@ /%// @  +%%%%%....//%%/%&./(",
" @@@5/(5+.@@ .. (((((/*%. @@'!.***//^#.+++&& @@@  2      &..%%%*********%/(/%%%%%///%/& # *. **% ## /%//@@ &+&&+%*****//%////(((",
"@@#@}65((. @@ .**%2555/*%. ;)@..*////  @;// @@#$$${$$#####@@@@ .*** @@.....%(   .//%%/%***.**$####@@/%/ @ &.&&&++%**%+//%((55((2",
"@@@ @ 552&.@@  %*(//*%*.. ^;@ ..*///7//%/%%//&#{{{{{{{$####@@@ &***@@##@@  ../2@ //%%/ ***%*%$#@@@@@ // @ &.&&  @@@@ %%/%555(/( ",
"@@@   .&++.   &%//%/ ;'{=;;; ..**/(/;/%%**%/  @#########@#@@@@  %**@#{{$#@ ...%2 /%%% &****%@@@@@@@@@ /@@@ .+&@@#@@@  %%/5///((@",
"@@@  .%+++%   ..///*;**...'; ..*%/(%./%*%//...@@@@@@@@@@@@@@@@  %**@${$#@@@ ...%2(%%/55%***.@#@@@@@@@@ @@@  +&@##@@@ .%%/%///& @",
"@@  &*+++++%..%&(; *!*.....] .**%///;/%///**.&   @@@@@@@@@@@@@  %** $$#@@&   &..%2/(6(5%*** @@@@@@@@@@@@@@  .+@@@@   %//*****% @",
"   &%%+@@ ++%%+&;%*.......#@..**&///$..%%***..... @@@@@@@@@@@@@ %** @#@@@./////&.%(6(/6%***@@@@@@@@@@@@@#@  .. @@   %%/**%%*%%. ",
"  .*%+ ##@ &.&&&&2%..   '] .*. .*%/2/*.*********%. @@   @@@@@@ &*** @@@@@&&/%%///%/6((5*//.* @@@@@@@@@@@##  ..&    %*(%* @ %**%%",
"%.*%++ @@@@@  &.&.*..  #'  **@ &%%%%((**.&...%+++%.     &&     .%%%.@@@@@..///%/%.%(((%%// . @@@@@@@@@@@##  .//   %*/%* @@@ %*%+",
"&%%+++.      .*;%**-.  ;  .*&@  %++%*&2.@@@@@ .%++%...........%*%%%.    .  &/////.*/&%%//.    #@@ @@@@@@#@ .%/%/%**%/*@#$#@@@@  ",
"@ &++&&+.   &** **... @>  ..@@@ %++.&& 2/@###@@ .%+%***%%%%%*%%%%**%.....@@  (//..%%(%....@@@ @@@ @@@@@@@@ .//*/%%//* #{$#@@@@@@",
"@  &&2&&+%%***..*.... '  ..@@@@.%++@##@@2&@##@@@ &..+.+++. .%%%%%*******&@@##@  ..**(.... @@@@@@@@@@@@@@@@ ./%*%/(5/.@$$#@@@@@@@",
"@@ &&2&&++++** .     .;.**@. @ .%+&${{#  2/ #@ ///&/(( @##@@@@@@@@@@ %**@@@@@@@@ .*%(....&                 ./%*%5(5.@$##@@@@@@@@",
"@@ &&&&+%*  **..      #** @ @  .++@{{$##   /&25(5(5(( @#$$##@@@@@@@@ .*%@@@@@@@  .*%(%%..........&&&      &./%*(5/6 ###@ & @@@@@",
"@@  +&&%*****...    ;$*%       .+&{{{####   ((((((/(( #{{{{$#######@ .*%        .*%%/&%%************%%%%%..*//%6((6(((///& @@@@@",
"@@  +&%**.**. ']''';.*%     &..*%@{{$####@.&/(/%%/(/% #{{{$  ######@ .*%       &%%+%/(%+++++++++++++%%%%%%%*%/%5((5//%%//. @@@@@",
"@@  ++**%.;  @..  ...%%%%%%%**%%.@$$###@@@ /%/(//((*+&@## //(@####@@ .*+.&...%%%%+&%%2@@  .&&&&&&&&&&     +%*%/((5%%%%//& @@@@@@",
"@  &%%**;#**%......**+++%%%%+&&++ #@@@@@@@ %%%/((/**%. @////( #@@@@@ &*++%%%%%%%+&&%*2@@@  .&&& @@@@##@@@@ %%*%/(%%%%//& @@@@@@@",
"@  .%+.;.%.....***++    &.+.@&&&& @@@@@@@@/%*%/.. (%*% ///// &@@@@@@  %++++++++++++%*(@  .%+ @#@@@#####@@@@ .%*%2&////& @@@@@@@@",
"   %++%.@ ******%%.@#@@  .+ @ &&.  @@@@@@ /%*// .*%2(%%///%/& @@@@@@  %+@@@@@ ++.@@.*(  %%+@@@${{$#####@@@@  %*( ....  @@@@@@@@ ",
"  .%++@&##*****%% ###@@  .+@@ &&&.  @@@@@ /%%/&&.*%%+((/(%%/.@@@@@@@  .&##@@ &++@@@.*/ %++@@#{$$$#####@@@@@ .%*(...&            ",
".%%%+*@ #@...&&%% ###@@  %+#@@ &&&.  @@@@ /%%/..%+&&%%&(/%/& @@@@@@@  ..##@  &+&@@@.%%(%+ @##@(#####@@@@@@@ .*/ ..&          &..",
"%%++;.@@@@@ @@ .% @#@@@ &%&#@@   &&.  @@@@//%/..*&2@&%%%///& @@@@##@  .+@@   %%@#@///%(%@@@  (2@@@@@@@@@@@@ .%2*%.........%%****",
"++++++@@@@@@@  .%.@@@@  .+ @      &&%&     /%/.%+22   +%(555(/ @@@@@@ .+@@  .% ## ////(@ /%/((( @@@@@@@@@@@ %(.*%%%%****%%%%%++.",
"++++++@@@@     .%+@@    %+    ....&&&%.....///%%&&&+   +5/(55(/ @@@@@ .+   .%.@## //////////((.@@@@@@@@@@@ ./&%%%%++++++++++++++",
"  &..+       ..%%%     .%+..%%%%%++&&&+%*%%%//**&&&&%***(/%/55(/ @@@  %+& .%+@@@@ ///////((/(&.         &./(/////%%%%+& @@@  &  ",
"@@@ &+   &.%**%%%%& ..**%+%+++++.&   &&&&&&&&/%%&&&&+++%/(%//(55& @   %++.%+ @@@@ .////////((%.&&&.....%/( %//%///// @#@@@@@@@@@",
"@@@  +..%*%%%%%%%%%%%%%%+++.@@@#@@@@@@@@@@##@ .+&&&&++++./(((//((/.&&.%++%+&@@@@@ ./////%/(/********%/22 %**/%%%%%%/ @####@@@@@@",
"@@@  .+%%%%+++++%%%%%%%++&@#@@######@@@@@@#@@@  @@@ ++ @@.%%////(/..%*%++&& @@  @@ .%/(//((%%%%//((22 ....%*%//////  @@@@@@@@@@@",
"@@@  ++++++& @@  @  .%+++@@#${{{###$$$######@@@@@  &+&#@@ .*********%%+2(5&&       ..*/(/((((22     @@@@  +%*%///   @@@@@@@@@@@@",
"@@@  %++.@###@@@@@@@ .+++ @${{$##@@@@@@@@@@@@@@@@  .+@@@ .%+@+%%%%%%%265(5.   &...& .+%%   @@@  @@###@@@@ &++%% &  @@@@@@@@@@@@@",
"@@@  ++ @@#{{{{{{#@@ &+++ @@@@@@@@@@@@@@@@@@@@@@   %.@ ..%@@@ .+++++/65/5/%%%%******%++&@@@@@@#####@@@@@@ &+++.@@@@@@@@@@@@@@@@@"};
