/* XPM */
static char * wall_plants_red_xpm[] = {
"128 128 71 1",
" 	c #644E48",
".	c #5B423A",
"+	c #613D25",
"@	c #684E3C",
"#	c #69554E",
"$	c #74625C",
"%	c #8B7C74",
"&	c #998C86",
"*	c #918279",
"=	c #84746C",
"-	c #7A6863",
";	c #74635D",
">	c #715F58",
",	c #5D463E",
"'	c #5C3925",
")	c #6D5A55",
"!	c #76655E",
"~	c #573C34",
"{	c #573320",
"]	c #5E4742",
"^	c #51332D",
"/	c #522D1C",
"(	c #66442D",
"_	c #8B8A2E",
":	c #878B19",
"<	c #7B7016",
"[	c #999724",
"}	c #8E8D42",
"|	c #6C5953",
"1	c #614B44",
"2	c #603E29",
"3	c #7F6F68",
"4	c #968880",
"5	c #4D271B",
"6	c #867771",
"7	c #838020",
"8	c #714B2C",
"9	c #4D2D23",
"0	c #4A221A",
"a	c #7D7933",
"b	c #716347",
"c	c #655E32",
"d	c #6C7128",
"e	c #4B2215",
"f	c #7F5C3C",
"g	c #5C552A",
"h	c #57561E",
"i	c #4E5714",
"j	c #545E18",
"k	c #63741A",
"l	c #686C11",
"m	c #4A4E12",
"n	c #474311",
"o	c #717615",
"p	c #5D5D10",
"q	c #5C6819",
"r	c #584E10",
"s	c #7F6D58",
"t	c #7B8219",
"u	c #695C16",
"v	c #4F4313",
"w	c #574728",
"x	c #43380E",
"y	c #402A0E",
"z	c #482114",
"A	c #4E3311",
"B	c #441B11",
"C	c #A7A332",
"D	c #90951B",
"E	c #6A7F1A",
"F	c #9B9B4D",
"    .++@#$%&&&*=-;;> ,'++')!!!!!-;!;;;;;;;;;;;;$  ~{@]^/(---->))#(++_:<[} >>)#@++++++++' $;;;$$$$$>))$$| 1^'+++1#|)| 1]1]]]1    ",
",.^~^22(,#3&43;;;;;) .'+{/|!!!$!3!;;;;;;;$$>>>># ]5{~5/ --%*6-;;>)|!}7__#$$$$>)#@2+(888(~#$$$$$>)))>;># ,95/+++~1 ## ]]]]]]11  1",
"005//2+8(,>-!>>))>;| .'+//1$!$;$;$$>>>>))))))>|1#^5/5/>-6&&&663-;;$$aabcdd$33;;$>|@((888+.|$$>cc|)$$|  ~055e~|2'/9~~^^9955000500",
"'++(228f8'#;;>>)))$# ~'+{/.$;>)))))||))|#)))$)11~5/{|--4&&*%6*4%3>bccghiijkb!$;;;;;) ((88{1))cld)$)  ]905e9|->)]^500000555555//'",
"+++(2+8ff+~>;;|#))># ^++'/^ >))))))))))#|>$$#1 .5/|3!=&&466663!ccbb  1hmnmmmjg|;;;;;#]{+(({,hopo##  ~055e1-!33; ]eeeee5///////{+",
"|# ,++8ff((#$$#||)#  9+++{5~ ## )$))>>$;$|#11 ]55.-)3&&*666-cdc@1# ,,.gimimjqb;;;;>># {/'+'rooro. ]90//{bsss}}sb10eee//////.1  #",
";>#1++8ff8@$>$)))#  ./++(2{5~1]]] 1#### ]]1  .55/>,gs*%663 db.]|$;;$$|,gqkqq#;;;;$))| 1~/{rlturo~.cddddchhvvw^vha'e5/////'|-!-3!",
";># 2+(ff8@>;$))#] ,0{+@-#@{5~.,.]]11111],~9505//~~hd=66-ga,,#$;;;;;;;)].1 |;;-;;>)))||#,{rotrroddixy9~ ||   ]~^na/////{|--3663;",
"$>|#12+888@>;$))#]15/+@-c | ~5000059999500555////5wiib6-gb.,);;;;;;;;;-$)3-;$=6-;>))))||# wo<vlrxzzz1)-**===-)#~^vd///)333$=66-;",
"$>))|1'+88(>;;)||]./+23$gg > 1////5555/{''+'/////0qimk-ga,1>;$$$;;;;3!;;$$;;>=6-;)))))||)# wolpz055>-=6666=-;)|].yd{/vghkld=63;;",
";)))>|1'88(#>;;)|1]'+(->jq.# ]{/////{'++@!$$>#~//Akmmqha.]>;;$$$$;;;--;;;;;;;-->>)|#|))))# clue5/~!!=66663;;;)#]]Bhcrlotlob6=!;;",
"$)))>$ .+88@>;>|)# '+,|cijq. .+'{{'++++2> >!3> ~/vkimjdc,>$>$$$$;;;;;!;;;;;;;;$>)|# |))))# dxe//,!!=666=-$;;$)#]crirrttrpd;6-;;;",
">))));) '88(!;>]## '{~@qimq~ ~++@>)>>>-3->|>6-) ^vqinid.|;>|>$$;;;;;;;;;;;;;$>))c#|||)))>#@qz//1-!=666=!$$;!$)#kqmjkuuvpt#=3;;;;",
"> |))$| ~(82!;;.hc1~/5qqnmq^]98f))!-=3==3!$)=-$#15qjmig >)>)>$;;;;;$$$$>>>))))|cj@))#))>$1dn5/~--66663!$$$$6-bkjiimjqAvoc-=!;;;;",
"|#||)$| ~(8+$-$.hjc~/{qinmqz0{ff8#=4&*666-$)-!$|1~Aqji~>|)))|))||)))##>;)))))|cijg)>>>$$ cjB/5$!66663-!$$;-6-kjjqkkqkpdc>6-;;>;$",
"))|#)$| ~+8+$->.hxjh//qmniqz/(888134&*663!$$;$)) ]0zjh.||||||))))))#  ## ##||dqmjg)$>)#1cqy5/.-36%6=;;$$;$=6bjkkqkqqdc )=-;;;;$>",
")))))>| ^+8+!-)wqxnq{/jmnjv/{'+88(>6663!;;;$)#))|1.nl5/ ##|||))|## ]]]]11111ckinqw]    dqy0/e>-666=!$$$;;>63jhwmmmiq. $63;$;;;$)",
")))))># ^++(!;#gkxnjh/hmc )>$>(88(]-=-;;;;$),gb)) ~lv5/~ 111]11]]1111..~~~~.kjmnqv995wdjB0//e--663;$$$>$;!63]]~^9zyd#=63!!$;;$!$",
")))))$# ^2((!>|hqnxih0h -3=3!| (88^|;$>>>))|wjdb|#jhewg/9~] 111 ].~9005005/5qixnqz5{uqnB0/'/5$!--$$$$;)$$-6!))#,^ezd#=-!;;$;$>))",
"))>)>$# ~((2##1wqnxmvw)=***63;# 28{]##   #|#giik#,k/u_g'{/09^^9505z55{w5'2((gmxjvhuuvz0/{'+/e.);!!$>;;;$>--)))|1./zqb;!s$))$))))",
")>;)#)  {2+{,aadhmmqkcs=36&%=;| 28+^,]]]]]  gjnjkh7[_[+++(+{//5//v/5'gjr/(c(gmqddqnze5/{+(({e51#>)))>)))))))))$ ~{ema-$}a )))))|",
"# 1]1   /+'uttolojkjjjiic446=-> ,(({5^^^^9^.hqmmjoC:<C{(88(+++++2hqw~hmq{8_bsdqv999//{'+888(ee^1. ####)>>>>>>$;#~'5nd!}7[c|))>>)",
"],.~~~~.{'utooololmmmnmqs%66=3$|1((++/5//{/0vqimm_7<[_{88(+2b!--3cnqhqmjd___q9w. |bgw2++8888'e05^,  11]1#|>$;;>1^'/zqbC77_1# 1]]",
"^0005/55{{lo::D:loimmjqc=6====-;|1(+++++++++{qjmm77_[{+(@$-=-;-==gxxkjmvC7_7wqkkqqjjg,++8888({ee009^~~.,11111]] 9/'5noC7<a^hivw.",
"n{'+++++'/e5Apt::uwhqkc36==66663->  $)|@@@@(('hjiuhh5'@=-!3336&&4cnxqin7[<[7qmiimmig# (+88883-)#,0e0055009^~.]1.5/'{5v7_7qqqqqjm",
"kj'+#)#@{////zvld{..1 366=----33==!~;;;$$$$$#1{/nuz0{+!;=4&466%%6bvnqmn7D<[pnnnnmjk,$| 2(8b646-$|1^ee{+{/55500005/{+{/llojkEEkkk",
"jqj>-!$)]{//eezBg0, ;=6=-$$;;;;;;;!,$;;;;;$>|1.{nc5/{/3=&&&%66666-jvkopk_7awmxnjkq.|$>#12+@*&%=;;> ,'+8({'#>|# ~///++orvqmxmiimi",
"qgc1*46-> ~eeeezge,>-=-$$$;;;;;;;;;#>;;;;$))|1]2Ad5/e,-*&4%6666==}7:tlltDd.~ggqcg,#;>)| 1+2#66-;$#]11288+1-66-$>) ||blvrlqnnmjqq",
"/.>%&*6=!> ^eeezg/' $;;$;;!;;;;;;;; ;;;$>;>|)#]2{de5e#$666666=->dtoprrvptu,|## >!$;$)))# 2+@-=;;#]].9'88('$4&*6=-;$$bovuoqqqqqv/",
"'|%&*66-;;> ~eezg/+.|;;;-!;;;;;$!!;#$$>)|>)|)#].'d5ee#;666663!;;#o:::tt<tu.);;-66!$))))# ~2')-;|]]~0/++(+{)44%66663-!avopw,..^^{",
"2|=%663;;;;>#.eeg{+'1$;;!;$;$;;;6=$|@|))||||)>]~+g{ee|;=666-;;;;$1ho::::ad~1$;363>)))))#]gh{@>>]].05{2$@+{>666666666=bpoh]$$)],'",
"+|-66=;;;;$)>#,5Ac'+'#;$>$|;$;;;=-)#h#)|||||)$]^'vcee);363!;;;;;>#1gqlog,a9.])!-)|||||)#qiq/@>#],55/#-#]{/)=666663-!;$alg#$))1]'",
"+ $!3!;;;$)))|#]5g{//.))))|>>>)))))cjc||||||)$1^+vcze||;!;;;;;;;;$$|1...1bd9~~1#)|||||bkimq{+>1]^5/>!; ]//|3663-;;;;;;$dw )))1]2",
"+, );;;;$)))))#1.zd{// >||||||###||cmq#||))c.#].+{cze.1 )$>)||###  ####|||bah9^~~]  #|kjmmq{+#]]5/~-;; 1//#-3!;;;;;;;;$>@ )))11'",
"+/~ #>;>)))|#111 ^Ad'hg@]]]]]]]]]],qmiq ###jw.]]'{d5ee5.  ]]]]]]]]]]]]]]]]]]badchv9^.]kinik{+(]]5//;;; 1{/ ;;;;;;>$$>)#||)))$|]{",
"+{/9, |))|#1]] ]^0Bxdjnig,,,,,,...gqmxqg11gih^~55{c5/5ee9.,...~~^^^^^~~.......~gcdddh9hmmjh{+2],5//);)11^/1$;$>)|)))))#)>>$;!|,{",
"++{/5~11 ]]]].900ezjjnnniv00000000vqmnih^9hxqz0+8'du/////550000055///500000000005500cdvivvz+++~~5//11]] ^{. #|)|#>>$$;$$)|## 1.{",
"+++{//5.  1~505eeevqmqkEqkc'5eeeeeAqinnh0vjxjh2f8hou////////////'+(((+++''22(222(2ww/gqzz/'+++'{///, 1,~5''.]]1 #||## 1]]]]].~^'",
"++++'//5^~505///eeqjkqkqqxvgddddcgAqqmmvehjxnqw(uttu2!----># ,'/'+888()!----;--$ckqijidze{+++++///{{9900{++'9.11]]].~~^^9990005+",
"(++8(+{//55///{'/5jjmnnw^^,]^^^wwgddkji~#cqnxiplo:tc-!!--$;;$>>)#@8ff>-=*4*6>cdqjimmmjdvze/{''///'2'{5/ @++{/555550000005/{{{{2@",
">)#@88(+'{{//~-$#,wBBBB #>$;$|#].~~^^vidabqnnlo::ptb%4&%63;;;;;;) @f8b%&&&4*=cimmnmijgwdn905////{c@)!-3|1+{////550eee5,|!!!!-3;)",
"$$| (ff8(+++@33!>.~~zee;-%**%6==3!)#],.~wqqmp::Dup7=&&466=;;;;>>) @f8b&&*%6===bqjqjqk.1bdv~9e5{@c|-333$ 1{///'//5e~>-33!!;;;;;~|",
";;$) (ff8(+@4&6-#> ,/{';%&&&&4%666666-|].^njt:7prta*&4666-;$;;;>#],f8b6%6%==6663bccg,#$;$dr0Be~b|4&%63$ ]///1) ~ee1$366=3==-;$~$",
"$))>) @88(+=&46!$;1]'++$*&&4*66666=3-;;$#.^9tpvrua3&*66=-;;;;;$)#].88>366666=3-!;;$$;;;|#|dpBzeg6&*66-$ ]///-;) ^e.-4&466663;> ;",
">)!$)) @8+(4&%=;;$11'8+>%*%6666=3-;;;;;;$|.^htoo7-4%663!;;;;;;>)#]~(8$3%663-;;;;;;;;;;$g.11drz5c%466=;>]]//#3;$ ,e9-*4%6666-;)#;",
"))>|;>11(+>4*63;;>]]'8+!36666=-!;;;;;;;;$)#.^vow|%%663;;;;;;;$))|]~8(!366-;;;;!;;;;;;>|hq~11dnzg=666-;)],//-6;;# 95;6666666!;|);",
")))|>)]1{+!=66!;;)]]'8+!!666=!;;;;;;;;;;>)#]~Bq~|6663;;;;;;;;>)))]~8(--3!;;;;;!$;)$>))cnq~.1wqBg366=;;#],//=6!;| ^5|366666-;;#$$",
")|>>>|]]{+!363;;>) ,+8(-;=63!;;;;;)$;;;;>)#]~zhg#36=!;;;;;;;$))))1~8(!>;;;$$3$>#)))))#qnjg~],qxh36=!;> ]./'%6-;|1~e]-66663;;;|$)",
"))##|)],{+-3=!;$)>#,+88>>-3;;;;3-;|$>$;;))#]~/hw#-=-;;;;;;;$)))$# ~88. )>)))>))|#))))cjxmq^,,gngbb;;;) ]~/(66 $)]~e~)366=;;;;$>)",
")| |)>],{+!-!;$>|>#]+f8(#>>>);;-!$);$$)$)|#]./qA#;;!-!;;;$$)))$#  ~888~ |))))))))))))kjxxqwgwrpoob;;>|#]9/@36g||].e5#;33!;;;;>))",
")##|>)],'+|;$$))>|]]2ff8,    ;;;;;;;;;$)#||].nue@$;--;;>)>)|)$  1^0(888,######|))>>$>kixniooto:t7#;$| ),5{(-3hg|]]ee.>;;;;;$$#))",
"))|#> ],'+@#  ]]]]],'ff82,,. $;$;;;;;$)##))1^lv/,>;;;;$|>)| ))].55'+888(11]] ]]  #  ]cjnntDDD:loa|$)##|~5'2!siq1 ]5e5#;;;$$>))))",
")||| ]1~'+.  1,.~^90/8888/00]>>))>$$$))||)|~qr5{2#>>>>)#|)||>#195'@-|(882~^~~~..~...~^qmntpuprl7@>))|>#^/'+)cmh. ]^/e~|;;#))))))",
">$)1,~50'+{950055//{(8888(++@))>|)))))))|1vkg5/{+] 1#   |)))$ ]5{#3-) 2+(/5500000000005vwkurro7c|))));19/2+@qnih.,guAv1|##|))))>",
"| ]~00/'++''''+(((22+((((+++2#||||))>>> wqd,]^/'+9~ .]##|>>>#],/.=63;#]{+2++'{{//////vhw.v<<td@|))))>$]5/+8gjxnhwotoiq~1]]]#)$$$",
"1,^0{+2>>||b>!33-----! $#c+++, 1]]]1 ,wqug,] ~/'+'/0^,]]]]]]1 ./@36!;> ~'+++#>$!!!!$cqmivhuu_}))))));|,5{+fqjxnql:tuxje~~~.,]]1]",
"~05'2>3-6%=-!------33>>;$bd++'] ].~whddg.]11.^/'++++{5~....,]]^/';!;;;#1'++2=!--!;;>kinnvh<r<Cb#|>>$)].5'(fkixpo:ltinqe000009.11",
"0{+2-!%&&&&&%666==666)-;$}_(++/0nqduh/9^~~^505/++b$#@2{00055500/' #$;;| ~++#-644%-;>qnnmqA[_<7_@]11]]].5'(fqiil::ptnihee5///{/05",
"'++!!*&&4**6=3333---;);$)a:_{+/qcvBz5{555055//'+(**!)#888({'@~{/'{,#)|  ~'+)-%&4%3;>qmjkhzu_[_7c~~~..,~/++(gqptDoltnq##].{//'+'{",
"++>!6&&*6%=-!$$$;;;;>$$)|_<C+{cwBz5{(+///////{++-%*!| @88()3!$)@'+/,   1^'+)-%6=6!;>jhve5/0cceee5555555'+++'hl::rloib3-!>>#1.(2+",
"++b$4&*663!-;$$;;;;;);>)#C<[dvdehda_@@ ##|#1'++2>|$$  ~883==6-| 2+'5^.^50'+#-466-;;>w^5'+++{hddgw'wguuudookt[:[upooc=666-;$$> @+",
"++#;*%66=;--;$$;;;;;$$!>bCt[7ddC[<<}===3-;$| ({591## ]{8>%&*63$ ,++{5055/'8b-66-;;;>,~{fb!-!! whqqqhhw,1  aC[77toojihs6=;$$$$11+",
"++@$6666-;!!;;;!;;;;;>!|d[<D7a_uu<C*4*666=;;)1/ee5.  ~+8=&&663;>|)#@'///{(8(36--;;;)1]'8$-%*4&*3!$>)~;;;;}[<<t77onnnnis3>$$;>]1+",
"++@$6==6-!!!;;;63;!!$))#c[t:777<:CF&%66666!;>~.9e5/~ 9(b*&*66@>;;;>|#2''+f8(=-!!!->|]]28)*&&4%66663$,;;;s__[CC_/njnnnnhb|$)$)]]+",
"++($3}F=-!;$;;-6=;;;)))#._7_dAa_}%4%666666!$]|)19e//^{+>*466=gc>;;;;| (+(f8b;;;;3-)|1,2(-&&*666%66=! ;;$sb)bcceexdjjiiij ;;$)]]'",
"++(;>_[}!;;;$$;63;;>)))#.a7d{z9#%46666666-;#|;;|195{{'+$=666!hq ;;;;;| 2888>;;;;!>)|],2+-4*66=333!!$ ;$-63|#].eenasddcb>$;;))1]'",
"++.)b[<Cs;$);;$-!$>))))|.gdcze~!%66666663;$ ;;;;|]5{/++$!=6-bijc$;;;$#],(88>;;;;||)|],{+!363!!!!$;;$#>)>3>)#].eers=-;>$;;;>))1]'",
"++. aC<:s;>)$$$>)|#1.wgccdc~ee/!6666666-;;|$;;;$#].//{2|$!!;cmiq);$>)|1.+88!;$>)#))|],{+>!!;;!!$)$>##|))))))]~ezlac;$$$;;>))|]]{",
"++'^wC77s)|# ],gcccccccw^~.^ee{!=6666=!;;;$;;;;)#]~//{hb>;$bqxmq#$>|))1,+88>####   1],{+||;;$>>))))||))))>$)]~zrltl)$;;$>))) ]]{",
"++++/h77@cccccc@~~~.,..,]~55//{>36663;;;;;;;;;$) ]~5/5hc>;ctjxmk@)||)>#]2(8>]]]]]]]]1~{+@1  11111111#ccc## 1]^norto@>>>))>> ]].{",
"+++++/vhw^^.].],,]]]]]1]90/++//)366=;;;;;;;;;;>) ]^5//jnc>dtqxmq ))$!!#].+('^~^^^^^^95(88{.]]]],,,,qqjimig,,.vduruth|)))$$#]],5'",
"+'+((h{/59,1].]]]],..~^00/b8g+/#366!;;;;;;;;;;>) ]^55vjxih:otnmq |||# ]].+++'{/////{{(888(/999500vqinnnxxvhttd/uprpog #>|1],~5{+",
"2#33c,](+{5~..~^50000055/@- uu/1363;;;;;;;$;;;)|,]^5/rqxnp:ptlig,]]],,..~+++++++++++(88888+{{{{{whimiminnrooDor/uooou,]]]]~50e'+",
"2#!!@> 1+''50000w{//////+s;btt/~36-;;;>>;$6=!>)#]]95{rknno:lloh9^99n50000{+((''++++2@@2888++++++++ggqkqjholpD:ov//{/55^..900ee/+",
"+#-b=-# {////5//ptttt<u(b-)ktt/{-=;;;;gc$!33>))) ]^5,{kmroDlpoxvquuh/////'(->)1/{'@3$ .{+#$!!!;!$>| @+b$#olloDtp//////5000eeeee+",
"+ -3*=) ,///{{//Attpppo<3>qtttr/!!;;;#jq|!!;>))) ]^/>,qqrtDrllku/5/{{{{'+>-$) ]//'!$$#,e#33=%6=!;;>],+| wdtollt:l''''++/eeeeeee2",
"+ )4*6!>)$)#@(2'{rt:tprobct:otu/!;;> jqk !$>)))) ]^/$>{hqotl:7w|$! >@2+++'    ,/{-*-; ]e#3%4&%=;;;)],+#1c/@a:tootk@#>>|,~^9eeee2",
"+1>&%6!!!!;$>11(8'l:DDlpto::ltu/>;;#mkjk]-=-))))#]^/$; {/{ot77}s3-]>|#(++'^ 1.^/>*%;; 1e#6&&*63;;;#].+1~c.-$$saass-;$$$$$>))#.~2",
"+,!46=;-;;;>|]1288wlt:Doo:Dtltv5>;$wqkik.-6-))))|]^/)$)22,dauu<_s=#-;>#@2+/9005{3-!!$ 1e#*&4663;$$#]2(,gg-==66=66=3-;;;;;$$$)1,2",
"+.!663;;;;>|#]]+ff#cdoocv:tppte5)>|ikkmqg#!))))$|]^/9/{+>has_[Ca>=>>$;$# ({////|-!!>  1e|&&%66-;)>1,289c!3%*4%6666663;;$$;$>)1,2",
"+.!66!;;;$###1.+8b=6! .~':oltrz/#> qEqmjg|>$$>$;|]^//'+|,a!*sab-63)>;;;;) ('{'+#|!>   ^e>&*666!;>$],((ws-6*&&*66666=-;;)>;>||1]2",
"+.-6-!-;$) > 1~(8=4&&=)#,gdohze/1 1qEmmq^ ###|)) ]~//++@cs%4%=6663!);;;;;>#@++221|  19ee-6666-;;;>],8+g-366%%66666=;;;;$$$|||1]{",
"+.!3;;>$)||$,1988*&&*=;;;)19cc'/9,]hqmjhw@@@,,]]]]~//++{a$*66663-!;>;;;;;;$# 2(f2  19ee/3666=$;;;)].8{g-=6666%6633-;;;;;$>|||1]{",
"'.;;$$|))|>|1,58b*&*63;;-!;)~vcdddddkqkkqqqqlldg999//++va$6663!;;!;;;$33;;;) @2f8~]9ee5 3%66-;;;$)1.8h{-6666663!;!;-!;$$$)||)1]{",
"'~#|)))||);#]~{+#6%66!;;!$>>> ~90AAzzzzzzzzzzzxhdg5/~.'hb!663!!;;;;;;;66;$$)|1(88+5ee5/-=6%=;;;;>) ~(h^!66663!;;;;;-;;$$>||||]]{",
"'91]1#)>>$!1]9'+#-66-;$>)))))|#12{{{288(+''{/55zxhd@|,/vb-63;;;;;;;;;-6=;$>))11(88{e5/ 36%*-;;;>)>#.+h~;-=3!;;;;;;;;$$>>>)))#],{",
"+/0^.] >!!),.5++#!-!;>)))))))|#112+(ffff+++++'{/5z9db,/na|-;;;;;;)|>;;6-$>>)|11288+{/~-=6=!;;;$)|>#.{h2$;;;;;;;;;;;;$$>>)$>)#]~{",
"+//{59~]1@gh9e{+#$>|  ##     1]]]]+8ffs>>>>>)b| .>)~hd{Aa ;;;;;;;$$;;$;)-6;||1]28b+//!$63!;;)>)||>b7<o2$;;;;;;;;;;;$$$$>)|||]]^'",
"2{{(8wqqqijh55'+1  ]]]]]]]~h~],~^0'(()3===-$$$!$-!$#^9cgd@$$>)>>>>>>)))|36!|)1]28>@{/~#!;;) >>)))atlpl7>bcb>>>>>>>>>>>))|w, ],5+",
"->#@ckqmnmq50'++]1].~^99^gjh0^505{++2=6666=!;!-;!>>#]^zhqa#)||))))))))))$-))) ]'+||({/,|$#]#11#|b:lrpuodjjk@ #|)))|||>3!#h.~]9/(",
";$> kvnnmqrz/'++9/5///hqjnjvB05/{//'>-33-!;$$$$)>>|#]~/7CC[}))))))))|))))))>$ ]'+@|1w{/]~.]],,,,7lp:D:timmih,]]#)))||-63gqw^^02!",
";;)ginxiqjzeee5{'+++hkjnxmqzz~  ]/// ###  ####|##  1].[C[7<7_##   111 ##|)))|]]'+( 1h{{5.]]~900/to:ttoqhmmmjh^~1|))))$6biih9z{)!",
"$)1hnnmqh~)=!)1~ee5vqnnxnqg~~>|1,///.  1111]]]11]]]]]_[<<t7777d@,]]]],..~.,]],.{+21wjq{/9^950e5uttlpjmmhqqqh550.#))))))qiiqzz.-;",
".^wjjqqi^~1>-$#]eeejnnvvqq..9)#]./vh/^^999^~.,.~^^99gC7:D[[Cuxvqddg'50000005500/+''hiq/'/55{{''ulv/{inmqvv/////{ ##)>>bkmnkz5!$#",
"qdd7_[[ddadhv~.1^eehu[CC[__ac) ]~/jq/++++'+'/000/{{'d777_C[uzzBBzxvquuu////555//{'+qmqh'+2@s3!|b# 'hmnmqv///////^]]]]]kjmnkA.# w",
"c.]a77Ca9,@baadhAzAd[77<<7[b1) ]~Aqjh{+++(88888888888(+'//55///500zzznrluh////////qjnjg#--3!--3-!$-cjnik@)1@'{//59~~~~qinnqA,wqd",
"#|;s_<t['~)|1~~cddd77<7[C}@) ) ]^mkiq~.''+(8@ss>bbfbbb##@,~^{//eeeeezzzznpou/////hkinjg]=-*44*6666=bqnik)>],+(('/e0000qinilllttd",
"))3$}C_77^];$1.0BAa:[___b >$#| ]9ikiqccqqqqbs$=***4*%=3333$$>)1.eee )|.~~~^roc 1.qjmnqc>*#%&&*66=3->kmic;#,.(8(++/ee/'hjnotD:tta",
"||)#|b__ag~$> 15eoll7ddh^.#>|)1]vqkjjkjvimmijg3444&&&4*6663$$> ,0ee>-=6-| ].^qa)]kinnj|)bg-&*%3-;;;;bjj#>#,.(8##||)|@{/hv:::olt#",
"|||   2(++~## ,5ulrt:c1cddi^,#1]iqEjiqvnxxmjc1!66666666=-3!$>) ]5ee>6&&%=)]..~va@qmnncbbhqb3-!!;;;;;$ch|)|].+8>!3!$> ]/Aq:llltd|",
"|)|1 ~/+++{]  ~2<lpDtg#1.,cduv^~hkEmmqnxnikw..|>!-----!;;>$>)) ]9ee|*&*=!$$ ...vadmmu_[dnjg)-3-;;;;;;>@)|| ]'8>36-$| .9ruvuuug1)",
")| ],0'++++5^.9(7op:o.>;$|]~wcdqmqqiqjmiqqA0~,]] $;;;;;;$||||)#]9ee#%%6!$,cb@g.~vaj7C7[hnjg|--;;;!;;;$))||#]~+);!$# ]9iuezzBz9 |",
"  1,5{+!$@+'{/'(utl:q];!6=>#,~^'glkqhwwvABB0~~~~. >$$;;$>|||)>|]5ee -6-;$.hjjqkg~vdC7<Cvnqg);;;;;-;;$>|)3!#]~2@>>  19vlez9505/^1",
"] ~0/+@63! (2((8(aotg ;$3-)))#]^0/hahyBzeeee00005.1||#  )>>>>|1,0ee1;-;;;,gimmiih9hCt7_xik.>;;;;;;$>))|!63#]~wg#   9xoAz1! 5ee{9",
"9^0/++@|)>>>#@(88>_t,|-;;>)|||#,5{/5ddx0.,.~^/'++/.]]]]],,]]]]].5//.))))>..qjimimwA7ttvnjq]$;)|$>>>))||-63#]^hj@ 19yqrz#-!)19e/'",
"(/{'++.1   ##.+88>$ab;;;>))|#)#]/+'5zgaw)!--$1^{'+/~.~~^^^~~^^505/5~    ~ 1,kqjijw0hgvmjh~ ))  || |))||-6-#.9jnh90zruz|6%6!>>)##",
")#('+8('.   ,{888);$$$>)||)))>|]{++2,, ah>663>|1^/'{0005//550555/ee9~~~~^>$# dqq~^5ndvww~.|))#||)#|||)))-)#^hixjv/ule 6&*3$;;;$>",
")# ,8f8('/500(888 )>))))||))|>|.{++$==>)ag|66-;>#,~2'w+++2@2{////eeeeee0,$$33|11^^0zd^^^~#||||||))))>>>>$$#^qmxmh7_h.-%*=!;;;;;$",
")| ,(f8(+++++888(,|1#))))))))$ .{+(*&&6# aq#=$ckqqguoo@!33-!>)>>>>>)#5ee)))$-)>|]~B5d^^^.,]]]]]]]  ###### 1^kmxm[7[.>%66-$$;;;;>",
")| ,(88++(##@(+++'~,] |)))>>>#].'+-&&*63# ckga:t:t:ttc>3%*63------!)1^e/$)||)>>1]^e{d{9~.........,,,]]]]]],^kmx7[<C1=6=!cg ;;$$)",
")|1]+882-3-;#12(2++{^,]     ]]].'(4&46663#1cotottopo713&&&&%666666=>1~e{##    ]]~0{{qg/{00000000000055999^^0qinC77Cdddqjjg1>;;$)",
")|11'8(>36-;| '@-#(+'9~]]11],~^0{|&&%6663>.ghtprrpo<{ =&&4%bc=6666=$1~e{@]]]]]],5{+{id/++'''+++++++'{{{{//50Akn[77[jimmiq.#;;;>)",
"))]1'8+-36=;) ~'>$.'++/99995005{2$*%6=3!;; jnutpltoe',)=3 jqd-666=-$1.0'2,~^^999/+8{na)>#@2(88888888(@#@@@'/evjt7_rnnnikg]$;;$))",
">#1,{(+)36=;> ./2]{++++'{{{{'((+'#3-!;-!;$cnnmkd7q0e/2#>hjkid#3-!;;$1,0+'{{{///{+(({xa$$|##2(((b$!!-33!;!$#{/e5qdmmnmjkg]>;;>)))",
")  ~{++|363;$ ]///++@#@@,2+2>(88,];;;;-;;>qnxmq~~cdvz{@iqkjic,;>>$>) ]5+++++++++++'5zd>  ~{+@!3-!-3==6=!;;)1~50vagjjqqg1>$>))))>",
"11 9'++3=6-;; 1///.;3;$# .'#)@8821 $;;;;;bqnxiq1~05advAqkknjg ;;$|)) ]9+--!!$#++2>$^zd@]9{+>--%&&%66666-;;> ]5zdc....1#))))>>)| ",
" 1~5++|363;;;# //#366-;  ^'$- (88~ #)$$;$#kmnqg,~z{{'ddqEmnj.);;;$$) ]^(=6->1,++>!|^0hc5'+)-34**%6666=-;;;) .5xd~~~, ##  11]]]]]",
"~55{++-3=!;;$# {/ 36=!> 1/+=-) (88~]#|)))#qmnqw~9'8,9/gdimqg ;;;;--) ]^2=6!#],'(-;>^9vd{'#-=6sd=66=3-;;;;;)1~0hc^~,]]]]]]]]]],.~",
"/{++++--!;;))| ^/1-6-;| ,{(=>)# @8(^]1))))kimq^^08f-,9/vqkhgc>;;$6=)#]^+!!#1]9{!=)qqhmd{)!!bcoa>-!$>;;$$;;) ~naz5~~~~~^^^^950000",
"++++++>;$;;))#]^/~!-;$# ~'@-     @8({,]]]]cqmh^9'ff# 1'/7:D:oqb>)->))]^+>|]]^5@66 qiqqd>chruotd#;;;>;$|>;;| 9dwe//550000555/{''2",
"++++++|$)|#    ~/'$>#   9'1# ].~~^(8(/^~~~~hjh95888'1 ]':ptD:tk#)))))]^+@1]~52-631jkiikhplllo7.|>$;;;;$>>|1^qgAv/{''''''''++++++",
"@@(22+@#    ].~9//    ]~5'~~9/{{{''888'5055/qiBe888(500ztpv<::oq#))$#]9+(].5+)!-; ikkijllooltg~         ,^hdijqkq{{{{'(b$>|#@(@@",
"$$|],+@  ,~50055//,1.^005'{'++++2(@@@(8888888h{{8888'''/htrppo::g1|#]]/++.9+@;;;$ wqkkikllltd9^,,,..~~^vhdcviimijqjhc!=---$)>-$$",
"$>|11+2~9055//////955//{+++2>--3---!;;>>$-33$#2'8888+++'^httolloth^,,~/++{+($$$>>#~iqkkpvpo<BBBzzzzxvqaac/0zjmnmmmmjc-===3;$>$$$",
"|)| 12'{//{''+''{/////{++(>3--33=333------3-;$ #!>>#++@>|~5{uuu<olw^50{+'(8 ||##|)]^9poppoovnmmjqddaac~~~2/zvjjjijqc1>;;;;$>))))",
")|)  '+++++(#)|##| ]~/+++!-6*4&4666%%%666666-;;;;# ,+(3!$#~eeeeezzz05/'a7_g,]]]]]]].^zuo<ddddaabc@1#||>$# '5zAqqqc1]);;;$$>)||))",
")>$#1{++2>333--!!!;> .+++#-%&4*63----------!;;;;>  ~+)$)#~5'>'////5//aC:7_~]]],...,]~'{/1 #))|##>-=6=!$$) (+'{{1,1#;!;$>>))||)))",
"$$$ ]'+@!!34&&4&43;> ,'++@>-!!;!$;;$;;;;;;$;;;;;# ]{2) .^{)-> .'''''uC:<[u///50000005++($--!--33333-$>>$| ,+++2>$;;;;>))>>>$;;;$"};
