/* XPM */
static char * wall_plants_light_thunder_3_xpm[] = {
"128 128 73 1",
" 	c #7F7C75",
".	c #7E7B73",
"+	c #33281B",
"@	c #726F68",
"#	c #65625A",
"$	c #5C5952",
"%	c #44361E",
"&	c #74716A",
"*	c #614C2C",
"=	c #98958E",
"-	c #362712",
";	c #7A5E35",
">	c #5F4D31",
",	c #817E76",
"'	c #7A776E",
")	c #B3AFA8",
"!	c #6D6A61",
"~	c #2D2611",
"{	c #29540A",
"]	c #565248",
"^	c #1B4505",
"/	c #615E55",
"(	c #3B2F1D",
"_	c #5A574D",
":	c #487618",
"<	c #423F36",
"[	c #87837C",
"}	c #32610D",
"|	c #6F9F1B",
"1	c #3C6D11",
"2	c #58821A",
"3	c #959288",
"4	c #103304",
"5	c #4E4A40",
"6	c #4E3F25",
"7	c #221D0B",
"8	c #57472C",
"9	c #6C880A",
"0	c #8F8B82",
"a	c #63911C",
"b	c #597509",
"c	c #695537",
"d	c #3B3729",
"e	c #A6BB1D",
"f	c #89A31A",
"g	c #9F9B91",
"h	c #3F540E",
"i	c #506109",
"j	c #799413",
"k	c #728E30",
"l	c #3C3E0B",
"m	c #94A124",
"n	c #4F6C21",
"o	c #AFABA0",
"p	c #4F5930",
"q	c #6B624B",
"r	c #B3BD2A",
"s	c #9AAE19",
"t	c #A8A398",
"u	c #8F734A",
"v	c #888D14",
"w	c #797C59",
"x	c #8B983F",
"y	c #9FAD38",
"z	c #586A32",
"A	c #67763D",
"B	c #6E7315",
"C	c #D8DE4C",
"D	c #A4B152",
"E	c #C4BCAE",
"F	c #C6CC3D",
"G	c #B6C260",
"H	c #8F896E",
"####]**q!.g)))t3[  '#_8**8&,,,,,[ ,            .##56q$<%c[[[['&&!c7+d!tEEE5+<#77-%68***8#.   .....'&&..@#/<8***/!@&@#/$/$$$/####",
"_]<5<>>c_!0)o0     &#]8*6%@,,,.,0,       ..''''!#$(65(%#[[gt=[  '&7+d]'EE'7..'&!q>*c;;;c5!.....'&&&' '!#_d(%***5/#!!#$$$$$$//##/",
"++(%%>*;c_'[,''&&' @#]8*%%/.,. . ..''''&&&&&&'@/!<(%(%'[=)))==0&7~+d5!#EE<+_0  .'@qcc;;;*]@..'AA@&..@##5+((-5@>8%d55<<dd((+++(++",
"8**c>>;u;8!  ''&&&.!#58*6%]. '&&&&&@@&&@!&&&.&//5(%6@[[o))tg[d7++dd5#@EEE5d7@.     &#cc;;6/&&A9k&.&##$d+(-d@['&$<(+++++((((((%%8",
"***c>*;uu*5'  @!&&'!#<**8%<#'&&&&&&&&&&!@'..!/#](%@0,3))o===7++d<55!'.=EE]d~hz@     !$6*cc6_njbj!!##5+((-/[,00 #$-----(%%%%%%%6*",
"@!#_**;uucc!..!@@&!##d***6(5#!!#&.&&''. .@!//#$((][&0))t===[++d<5_!& gEEE$d+lw    ''!#6%8*8ijjij]#$d+%%6wHHHDDHw/+---%%%%%%]/##!",
" '!/**;uu;q.'.&&&!##]%**c>6(5/$$$#/!!!!#$$/##]((%'_zHtg==0/7+d<5$!!'[EEEE#<+7    .&&@#/5%6i9fBij5]AkkkkAnnhhp<hnx8-(%%%%%8@[,[0,",
" '!#>*cuu;q' .&&!$#_+6*q[!q6(5]_]$$/////$_5d(+(%%55nk3==[z-<]<E//#!.0)EEE&<+7 [  '&&&@@!_6ijfiijkk1^4d5#@@###$5<{x%%%%%6@[[0==0 ",
".'@!/>*;;;q' .&&!$/(%*q[A#@#5(++++(dddd(++(((%%%%(p11w=+7+ddd555<]!E)EEEE[5~.3=[ '&&&&@@!#pjvh9i^~~~/&[tt333[&!5<hk%%%&000.3==[ ",
".'&&@/8*;;c'  &@@$]%*>0.zz#'#/%%%%((((%688*8%%%%%+21}a[7~+d<<!E!<<!=EEEEE=#d/3=[ &&&&&@@&!#pj9b~+(('[3====3[ &@$]4k6%hzna9k3=0  ",
" &&&'@/8;;c!'  &@/$8*c[':2]!#$6%%%%%68**q,..'!5%%la}}2n7+d<5]+75+d@oEEEEE)[$d&[''&@!@&&&&!#A9B-(%5,,3====0   &!$$7nAi9jf9jw=3,  ",
".&&&'.#]*;;q' '@&!#8*_@A1:2]#]*8668****>'#',0'#5%ha1}:7+d<<<7$.. d&)EEEEEE),]d7@&@!#@&&&&!#k^-%%_,,3===3[.  .&!$Ai1iiffibk =[   ",
"'&&&& &#8;;c, '$!!#865q21}25#5**q'&'''[0['@'=[&#<h21{E]dd<<+'..  d0EE[@@=EE)[]<+A!@@@&&&'!q2~%%/[,3===3,.. ,.&!a2}:aBBhbf!30    ",
"'#@&&.@#5c;>,  ]nA/5%(22{}2<$d;u&&,[30330,.&3[.!/(2:77~dddd<'.  7_E0$5<<<][EE=$d~q&&!&&'./k{(%5[[====0,....=[wa:11}:2lhjA[3,    ",
"@!@@&.@#5c;*.[.]n:A5%621{}2~+6uu;!3o)t===[.&[,.@/5~E7+77~7&&@&&75E)d7!' ++<][EEEEz&'''..#A:7%(.,====0[,.. [=[a::2aa2abkA'=[  ' .",
"&&@!&.@#5*;*.[']n^:n%%2}{12~%c;;;/0o)t==0,.. .&&#]777+77]@@@@&&d,Ed/##!!57+d<!EE7E&.'&!/A24(%][0=g=3  .. .3=w:aa2a22kA#&3[    .'",
"&&&&&'@#<*;*,[&p2^{26%:}{:h%68*;;c'===0,   .&!&&@5777~(#d!@@@&7]E,7$$$$///d7d<EE<($75EEk24+%-77===3,...  '=0:np}}}12]#.=0 .   .&",
"&&&&&'!#<**c, !za^{:n%n}A#&'.'c;;c$[3[    .&_zw&&<7777%5#///$/+#E$5//]]5555++d#E$ddd+pk55+)E-[[==0 ...'. ,=0$$5<d~4k!3=0,,.  .,.",
"&&&&&.!#<>cc,'@n2{^1n+n#[030,@#c;;<@ .'''&&@p:kw@<~777z%55$#/_d.Ed5d++(++(%(7+<E#]+6l1^7d%8%(.,[<.... &..[=,&&!_<-~k!3[,  . .'&&",
"&&'&'.!#5cc>!!/p2{^}hp&3ttt=0 !#>;6$!!###!@!z11a!dl7lxz8E%+d<75EE+~((6p(8>ccp7+E@#5+77~(E6*%-]& ,#.''  .'[[&&&@/]%~2w ,H.&&.&&&&",
"&' &!&##6>*6_xxkn}}2aAH30=)g3 @#>;*<_$$$$$##z1{12nmryr***c*6%~_E$7-(8z:i%cAcz}+[E!#57(%67c>6-(/!'&=7'&!&&&&&&&.#56-}x[.Dx#&&&&&@",
"!#/$/###%*8Bffj9j:a:::11Aoo=3['#_cc6(<<<<d<]n2}{1jFsvF6c;;c**+#E<n1p5n}26;ywHk7EE!!$d78*;;c>--</]#!!!!5E'''''. !58({k,DmrA@&&''&",
"$_]5555]68Bfjjj9j9}}}{}2Hg==30.@/cc**%(%%6%+h21}}ymvry6;;c*>wd&E+A{2n2}:kyyy2d~EEE #<+~8;E(6%-+(<_##//$/!@'.  '/<8%~2wFmmy/!#/$$",
"<+++(%((669jsses9j1}}:2A3=3333[ @/c*********62:}}mmyr6*cq.['!5E=+z^^a:}hFmymp225! E=]<+76d777(--++d<55]_/////$$#d%8({jFmvx<n1hp]",
"{68*****8%-(lbfssBpn2aA0=33====0['##.&@qqqqcc8n:1Bnn(8q3[,0_7$E5$A{^21{mrvrm2}1{d<&Eg5+777E777]!_+-++((++d<5]$/](%86(hmym22222:}",
"a:8*!&!q6%%%%~h9k6]]/#0==3[[[[0033,5   .....!/6%{B~+6*, 3ot7+#Ed=wh{2}{mevrb{{{{<~<#EE]+77+d777!@/<--6*6%(((++++(%6*6%99j:a||aaa",
":2:'[,.&$6%%--~7z+_# 3=3[..       ,_.     .'@/]6{A(%6%03)))7<[)<+!:hajbaymxp}^{:227+#EE$d+77)33  '#_8*;c68!'@!#5%%%**jih2}^}11}1",
"2zA/to=['#5----~z-_'[3[...         !'    .&&@/$>lk(%-_[t)o#+]E@d7kmsf99fek]5zz2Az_/7<$,E,d77d'[+#!$//>;;*/[==[.'&#@@w9hi92{{}:22",
"%]'g)t=3,'#<---~z%8#.  .  ,        #   .' '@&!$>6k-(-!.==[7+/E/d7jjbiihbfB_@!!#7,. $+<$'E)d77$' <$$]d8;;c8.o)t=3[ ..wjhBj22222h%",
"8@g)t==[  '#5--~z%*]@   [,     .,, !..'&@'&@&!$]8k(--# =07+d@E]d79sssffvfB]&  [.=,.&7+d_@EEd7]!@d$5+%**c*6&oog====0[,xhjbp_]]<<6",
">@3g==0    '!]--z6*8/.  , . .   =3.@q@&&@@@@&'$5*z6-~< ,7++<E35+7/njssssxk5/. 0oE'&&577d5##E7<!$~5+(6>.q*6'=========3wbjn$..&$_8",
"*@[==3    .&'!_(lA8*8! .'.@ .   3[&!n!&@@@@@&.$<8hp~77]7++d=E@5+7!/z29jz_xd]$&,E+@@@@@5+<5]E++_$(((%![!$6%&3=====0[, .x9z!.&&/$8",
"*#.,0,   .&&&@!$(z6%%]&&&&@'''&&&&&A:A@@@@@@&./<8hA~~++dd<[EE$d7 ..@/]]]/wkd55/!&@o@@@wa7d5E<+77<(%', #$%%@0==0[      .kp#&&&/$>",
"*_#&    .&&&&&!/]~k6%%#'@@@@@@!!!@@A}2!@@&&A]!]d76677++d5EEEE]d+!##!!!!@@@wxndE55$#+!@a:^+<E]+77(%5[  #/%%![0,        .'q#&&&//8",
"*%5#!' '&&&@!///#<lk8nzq$$$$$$$$$$_2}12#!!!1d~77+77+++d5EEEEE5+5$$$$$$$$$$$$wxkAnhd<]ga1{~<E&+77(%%   #/6%#      '..'&!@@&&&.@$6",
"*6%d_#@&&@!/$$#$<+7^k:{1z______]]]z2}^2z//z77+++d++++d<E)5/E3<+5<<<<<55]]]]]]]5~Akkknd~}}7d$E<+7(%%& &//<%/. .'&@&&&&&!&''. ,@_6",
"**6%(5//#$$$$]d++-~::{{{1h++++++++h2{{1n<(l+d<<<<<<<<<,E5dd@#<7+((%%%(++++++++++o(++Akh1h7d<E#++(%%//$$#<6]#!@&@!''.. ..&@!!#/]6",
"***6%%(]##/5(+(---h2}2a|2aA8(-----lh7{77+++]=))))))))))<+++5&d7%8*ccc***88>>c>>>c>pp%z27~(+d))d+~%%_#/_5(88]$$/#!@@!!#/$$$$$]5<8",
"****8%%(<5(+(%%%--2:a2a22^hzkkkkAzl21+t))))o/<ddd<<$dd77777d3d~~8*;;;c&,[[[[ [[.A:21:1k7-77+ooo7++777d++6**8d]//$$$]55<<ddd+++(*",
"c**;c*6%%((%%%68%(::}{{p<<_$<ddppzn~+'!<<<<+++~7+++++~$&&##<td7<!q;uu'[3tot='Ak2:1}}}:7h~77+tt=#+++~7(%#q**6%(((((++++++(%6666>q",
"'&!q;;c*866%%5[.!_p7777#!'. #<7$<+7+5gd++++77775i77777)g=0 $gd7$&#qu;wg)))ot3A1}}{}1:ppz{77+g.<+<++++ 0@/*6%%%%((+---(_@,,,,[0 &",
"..@#cuu;c***q00,']55~-- [gg#777$7+<3[d+++++{hjf7B7l5@@o==3 [=[7/&#qu;w))tg=333w2:2:2a5_qk7+d,+77+[d++7!#/6%%%8%%(-5'[00,,     5@",
"  .&#cuu;c*qo)=[!'#_%68 gg_777+7d0#+~++~777:fsmbi9xgtt===[7[33d/!$_u;w=g=g33===0wAAz]/! 5~l[+777+++dd7+]$%%%/&#5--/.0==3033[ .5.",
".&&'&#q;;c*3)o=,. /$8**.[))o0!5+/d++7#!.!]<~BihiBx0)t==!<+[<+!&d!$];;'0=====30[,  ..   @!@+[+~77d777&7++777%[ &#<-][o)o====0 '# ",
"'&,.&&#q;*co)g3  .//8;*!]tg0[57+,+777   .@]dnfjjm[og==0#7,+7  '7!$5c;.0g==0[          .z]/+,+777[_77d ++777!0 .#_-d[tog====[ &! ",
"&&'@ '//c*'ot=0  '$$8;8$5===0d@'!+777   .&!]<h7p@gg==0 $+$77 .&7@$5;c,0==[    ,      '@n2555+77%30!d<&+!d77[=  !#d( =======, @& ",
"&&&@'&$/6*,3==,  &$$8;8]<===77!@~77+<   '&!$d<25@===0  7@777 '&!&$5;c[[0,     ,. &.'&&A{25@+777p0==,#d77$773=, @#<(@0=====[  !..",
"&@'''@$$6*,0=0  '&#_*;8]]3<7,#/77+<$#   '&!_5~nz!0=3,  +#777.&&&//5;c,'   ..0.'!&&&&&!2{:(#+7l4n0=3, +77757g=[ @/5-$[====0   @.&",
"&&!!@&$_6*[03, .&'!_*;c!#[0   $(]$$!@.  &&!$5%np![3[   +$77+&&&.!75;;]#&'&&&'&&@!&&&&A:^}~#+7%{pww   $7777d0=#.&$5-5&0==3    .'&",
"&@#@&'$_6*,[, .'@'!$*u;~!__55+$[,.& ..&.&@!$]%2l!  , # ++..&5#.!#75;;;5#@&&&&&&&&&&&!2h47+]ppibj9q#$<<!$d%q__7#!$]-(! 00,    '&&",
"&!!@'&$_8*@ ..&&'@$$>uud_]]]5$d       .&!@@$]{B-q. [ ! 5<'&@#&##/<7c;;;_!!!!!!@&&''.@2{4~+<jfjsfm#!!$#&_(6c/#77!$$--]'     ..!&&",
"&&@!'#$_8*q!##$$$$$_8uud>]55_!d.     .&!!&&/<9h%_'  '#.</&@#!&$]((8<;;;c//$$#$$##!##_z}^~d7ees9jx@&!#!@5(8>#w+2/#$(-(!   ..'&&&&",
"&@@@#$/58*]##/_]5<d+%;;;;%++_@+&&'...&&@@&@52i(6>!''@/&<!&@@@!/d(8qd@c;;>5<555]]5]]]5<:{~<bBbi9mq'&&@'!<%8*#Adn]#$<%-5@  !&&&&&&",
"'.&/_5(+8*6d(++((%%6c;;;;c**q&d'@&&&&&&&@/haz(%6*$#_/]#d!&&&.#$(6!0+&+>*c%((++++++++++(h~<BiijmA@&&&& /d%>*q2{1n]7zBlh/@!!@&&&&'",
"@#$5++%8**8888*ccc>>*cccc***>!+@@@&&'''#p2k_$<%8*d5#55++#'''!$_%]3=0 !$6*>**866%%%%%%hnp77vvfkq@&&&&'.$(%*;zh^{npjfj125/$$$!&...",
"/_<+6*>''@@w',00[[[[['#.!A***_#/$$$/#_p2Bz_$#5%8*8%+<7+dd_$$/#]%q0=d '#58***!'.,,,,.A2}1lniByD&&&&&& @_(6*u2:^{29s9B^:-555]_$$/$",
"5+(8>'0[=g3[,[[[[[[00'' .wk**8$#$]5pnkkz]$//]<%88*8777++55]_$$<%8 ,   !/-**>3,[[,  'a1{{h7BivFw!@''.&$](8cual^bjs9f1{2-+++++d]//",
"+6*>[,g)))))g=[=33===&[ .Dyc**%+{2kBn%d<55<(+(%++w.!q>7+++(((++%8#+.  @#d**![=oog[ '2{{}27vyvmyq$//$$$](8cu2119ssbf{1n--(%%%6%+(",
"8**,,t))ott=30000[[[ & .&xsy6*%2Ah7~(6(((+((%%87ctt,&!;*;c68q56%86_!&@##58*&[g)og0 '2}:an~lyrymA555]]_5%**cz2bfej9f{2!!$]6%%8*86",
"**',=))t=g3[,...    '..&@yvF*6Ap7~(6c*%%%%%%%68*[gt,@#q;;c&0,.&q8*%_###/<8*&[g=3=, ':nh-(%~AA---(((((((8***8n9ssi9j1w0[,''!/]c>*",
"**w.o)t==0,[ ..     & '&!Fvrkhk-nkxyqq#!!@!/8*~>'@..##5;;033=[@#>*8(<]<(+8*![o==[  'p<(8**86nkkzp8pzBBBkjjafrsrBbjjA3===[ ..'#q*",
"**! tg==3 [[ ..     ..,'wFfrmkkFrvvD3330[ .@#c6(d/!!#_6;'g)t=0.#_**6(+((%8;w[==[   '_56uw@[,,#pn222nnp_/##xFrmmfjj:1nH=3 ....//*",
"**q.====[ ,,   ,     ',@krvemxyBBvFtot===3  &/%--(]##5*;3))==0 '@&!q8%%%6c;c0=[[   &/$8;.[gto)t0,.'&5    Drvvfmmj{{{{1H0'.. '$/*",
"**q.=33=[,,,   =0 ,,.&&!ArfsmmmvsFG)g=====, '5]d-(%5#dcwt)t==q'   '@!>88*u;c3[,,,['@$$>;&t))og====0._   HyyrFFy%{:{{{{nw@.&.&$$*",
"**c.0DG3[, .  [=3   &&&!]ymyklxyDgog======,.$@&/d-%%<6*'to==3zA'    @#c*cu;w    0[&@/_>c[))t===g==3,#  .Hw&wAA--^k::111:#  .&$$8",
"**c 'yrD,   .. =0  '&&&!]xmk6~d!go=======[ !@  @/d(668*.3===,n2#     @#>;;;'    ,'&@$_>*[ot==3000,,.# .[=0@!$]--{xHkkAw'.  &&/$8",
"**]&wrvFH .&  .[,.'&&&&@]zkA~-5,g=======0 .#    @$(6%**.,3=[w1:A.   .!$_c;;'    @@&@$_6*,0=0,,,,.  .!'&'0'&!$]--iH3[ '.   '&&/$8",
"**]#xFvsH '&...'&@!/]pzAAkA5--%,=======[  @.   .!$]%%6>@.,, A}12& .'&@/]*;;, .'&!&&@$_6*',,  ,,.&.'!!@&&&&&&$5-~9xA ...  '&&@$$6",
"**8<pFmmH&@!#$_zAAAAAAAp<5]<--6,3====3,   .    &!$5%%6nw' .w2^}2!.'@&&/_*;;'!!!!###/$_6*@@  .''&&&&@@&&&&'.&$5~i9f9&.  .'&&&#$$6",
"****%nmmqAAAAAAq555]_]]_$5((%%6'0===0         .&#$5(%(nA' Af:^}aq&@@&'!$>c;'$$$$$$$$/56*q/##////////!AAA!!#/$<{jifjq'''&&''#$$]6",
"*****%hnp<<]$]$__$$$$$/$d+%**%%&0==3          '&#$<(%%:{A'kf2^}2#&&.,,!$]*c8<5<<<<<<d(c;;6]$$$$____22:1}1z__]hkBiBfn@&&&..!$$_(8",
"*8*ccn6%(d_/$]$$$$_]]5<++%w;z*%!0==,          '&#$<((h:^1nsjf{}2#@@@!#$$]***86%%%%%66c;;;c%ddd(++h21{{{^^hnffk%Bbibjz#!'@/$_5(6*",
">!00A_$c*6(5]]5<(+++++((%q[#BB%/0=0       .   &@_$<(%i2^{bsbf91z_$$$__]]5***********c;;;;;*66666pn1}1}1{{ijjeji%BjjjB_$$$$5(+-8*",
">!,,q'#/*88(++++p6%%%%%%*H wff%50=[   '' .=3,'&!$$d(6ia{{js99jnd<dd{(++++6*cc88****>qq>;;;********zz2a2:nj9besjh%%6%((<]]d++--%*",
"*![w3[!#6%%%%(%%bffffvBcw[&aff%6[3    zA.,00'&&&#$<(_6a}ije9bj^h2BBn%%%%%8c['&/%68q0.#]6*!.,,, ,.'@#q*w.!j99jefb%%%%%%(+++-----*",
"*#[0t3&#_%%%66%%lffbbbjv0'2fffi%,,   !:2@,, '&&&#$<%'_22ifei99aB%(%66668*'[.&#$%%8,..!_-!003g=3,  '$_*@#pkfj99fs98888**%------->",
"*#&ot=,'&.&!qc>86ifsfbijwAfsjfB%,  '#:2a#,.'&&&&#$<%.'6n2jf9smp@.,#'q>***8####_%6[t[ #$-!0go)g3   &$_*!/A%qxsfjjfaq!''@_5<d---->",
"*/')g=,,,, .'//c;89see9bfjss9fB%'  !}a:a$[3[&&&&!$<%. #6%6jfmmDH0[$'@!c**8<#/]<%'tg  #/-!=))t=0   !$]*/5A][..HxxHH[ .....'&&!]5>",
"*_,o=3 [   '@$/>;;p9fsejjsef9fh(' .p2a1a][=[&&&&@$<%&.&>>_kxBBvyH3![ '!q>*%d++(60[,,.#/-!t)o==0 ..!$>c_zz[33==3==30[     ...&/_>",
"*],==0    '@!$$*uu!AkjjAhsfbbf-(&'@1aa}2z!,&&&&.@$<%d%6*'nxHyrFx'3''. .!#c6%%%%@[,,'##/-@))g==[ &'/_>;dA,0gtog======0  .. .'&/_>",
"*],==,   .!!!/]*;w3=,#]58sj9fi~%!'#2|2}:z@'..'. @$<%%8*@_x,tHxw[=0&'    &#c868*!@,'###<-')t===, '.$_ccpH[=t))t=====3[  &' '@@/$>",
"*][=[,[ .&#'#/5c;3o))3&!_zkjn~-%/#/2|}}2<#!!!@&&#$5%%**qAHgog3===0,&     '!q**>>/@##/d--[====[   '$_;*z[0==gg=====3    ...@@@/$6",
"*],0  '.&@@._/d;;t))t3   &/dAA8%d_$n2}:npqqq__$$$$5%%**6x.t====0[, '      .!#>cu>##/d--%0===3.   &$];6z[3====g==00[     .'@@@/$6",
"8]  ..@&&@'@/_(;wt)t=0  [, &5hAkkkkka2aa222299kzddd%%**hx.===0,  ,   .00   &#q>u;5$d--(#0g==[   .&/];n6[======0, , [, ...&@@&/$6",
"85!@&&&@@& !$56*!=g==,  ,.'''#5d+ll~~~~~~~~~~~^nkz(%5]8nw,==0,,       == ..&@/c;;*(--(%[3=g3    '&#5cn<,====0,     [  ..'@@@@$$6",
"8d/$/!&''.,/$d8*![==[ .'&&&&&@!/>666>;;c*886%((~^nkq@_%hw[=0         [=3 .'&&//c;;6-(%#0=gt[   '&'!]*n5 [30,        ..'''&&&!$_6",
"*%+<]$#',,&_](**!,[, '&&&&&&&@!//>*cuuuu*****86%(~dkw_%{x@[      &@'  =[.''&@//>;;*6%5[3=3,   .&@'!]6n>.            ..''&.'&!$56",
"*%%6(d5$/qznd-6*!.'@##!!#####/$$$$*;uuH'''''&w@#]'&5nk6lx#       ..  . &[= @@/$>;w*%%,.=0,  &'&@@'wmvj>.           ....'&@@@$$<8",
">66c;p2221:n((8*/##$$$$$$$5n5$_5<+8cc&0333[...,.[,.!<dAzkq..'&''''''&&&@0=,@&/$>;'q6%5!,  &#''&&&xf9b9m'wAw'''''''''''&&@p_#$_(*",
"['!qAa2}{}2(+8**$/$]5<dd<z:n+<(+(6**>3====3, ,[ ,''!$<~n2x!&@@&&&&&&&&&&.[&&&#$8*@@c6%_@.!$!//!@ws9ibBjk::aq#!@&&&@@@'0,!n]5$d%c",
" .'#ah{{}2i~%8**d%(%%%n2:{:h7+(%6%%8'[00[, ....&''@!$5%mFFrD&&&&&&&&@&&&&&&'.#$8*q@/p6%$5]$$____m9bsesf1}}1n_$$!&&&@@[=0z2p<<+>,",
"  &z1{^12:~---(68***na:{^}2~~5##$%%%#!!!##!!!!@!!##/$]rFrmvmy!!###///#!!@&&&@$$8*c#/n66(]$$5d++%fjsffj2n}}}:n<5/@&&&&.=w11nd~6&,",
".&/n{{}2n5&3,&/5--(h2{{^{2z55'@/_%%%]##////$$$//$$$$$yrvvfmmmmkq_$$$$_]]5]_$$_]6*>/p:26%d<d(+-(Bff9b:}}n222n((+]!&&&&&&2112~~][ ",
"]<p::221<5/'[.!$---:{{hh22]]d&!$]%hn%<<ddd<5]_]5<<ddzFmserrFB^h2kkz8(++++++((++%*88n12%8%((6688B9h%61{}2hh%%%%%6#!!&''wa}{a~(,.!",
"2kkmyrrkkxknh5]/<--nBrFFryyxA&#$5%:2%****8*8%+++%668kmmmyFrB~~77~^h2BBB%%%%(((%%68*2}2n8*>qH0,@w!#8n}{}2h%%%%%%%<$$$$$a:}{al]!#p",
"A]$xmmFxd_qwxxknl~lkrmmvvmrw/&#$5l2:n6***c;;;;;;;;;;;c*8%%((%%%(++~~~{i9Bn%%%%%%%%2:{:z![[0,[[0[,.[A:{1aq&/q86%%(d555521{{2l_p2k",
"!@ Hyvfr85&@/55AkkkmmvmrFDq&#&#$<}a125]88*c;qHH'wwuwww!!q_5<6%%-----~~~~{bjB%%%%%na1{:z$3[toot====3w2{1a&'$_*cc8%-++++21{1999ffk",
"&&0.DFymm<$ ./]+7lxsryyyw#'.!@#$d1a12AA2222wH.3tttotg30000..'&/]---#&@]555<ijA#/]2:}{2A't!g))t==30['a}1A !_]c;c**%--%8n:{jfesffx",
"@@&!@wyyxz5.'#/(-j99mkkn<]!'@&/$h2a::a:h1}}1:z0ooo)))ot===0..'#_+--'[3=[@#$]<2x&$a1{{:@&wz[)tg0[    w::!'!_]c;!!@@&@q6%nhsssj9f!",
"@@@###>c**5!!#_(B9ifsA/Akk1<_!/$12|:12h{^^}:A/,========3[0,.'&#$(--'=))g3&$]]5hxq2}{{Awwn2w0[,,     .An@&@$]*;',0,.'#$%l2s999fk@",
"@&@/#5%***6$##5>v9befz!/]_AkBh<5na|}}2{^{1ap]]@',[[[[[,  '.'&&#$d--@t)t3,..#]]]hxk}}Byrk{:z&[0[      'q&@@#$8;'0=[.@#]diBhBBBz/&",
"&@#$_+8****(<]dcmjbsj]' .@$5pAk2}2212:}122l+5_$$#.      .@@@@&!$d--!gg=,._Awqz]5hx:mFmrn{:z@[[   ,   .&&@@!$5*& ,.!#$d1B-~~7~d#@",
"##/_(6*,.q*86%8cBf9s2$ ,=3'!_5<8z9a2npphl77+5555]#'..  .'@@@&'@$(--#[=[ .]n::2az5hkFmvFh{2z&     [  .'@&0,!$5>q''##/dh9-~d(+(%</",
"$#5+%*q=0,#c>cc;cxjfz# .0[&&&!$<+%nxn47~----++++(]/@@!##&''''@/_+--/ [   _z1}}11ndnFfmy^1a]'      .'&&@,=0!$5pz!###d^jl~/,#(--6d",
"d<+%**q@&'''!qc;;'yf_@[  '&@@@!_(6%(kk^+]_]5<%8**%]$$$$$__$$$$$](%%]&&&&']]2:1}1}plmffh{:2$. &@.'''&&@@[=0!$<n:q#/d42i~![,&/d-%8",
"c%68**]/###!!]*;;'.xw   '&&@!&!$%*8(~zxp&,[[./<68*%5]55<<<55<<(+(%(5####5#/_a2:1:p+nzh}:n5#&&##@@#@&&@@[=[!]d:{nd+~iB~@=g=,''&!!",
"&!c8*;c8]###_6;;;& ...'&@@&&&'@$6**>__#xn'==0'@/<%86+++(%%((+(((%--d5555<'.!#k225<({khpp5]@&&!@@&!@@@&&&[&!<n1^:h%B9-#=)t0.   .'",
"&!#_;u;c8%(++c;;;#&'&&&&@@&&@'@]6**.33'&xz@==[ '!_5>8p***>q>6%%%%------+_..00@//<<+~k<<<5!@@@@@@&&&&''''..!<2}^}nmyn][gt3,     .",
"&@#_cu;c*****;;;c_@/!&&&&&&&&.#]6*ct))=!#x2!3.Aa22zBjjq,00[,'&'''''&!(--&&&.[&'@$57(k<<<]_$$$$$$$##!!!!!!#/<a}^}rmr]'g==[..    '",
"&@#_c;;**c!!qc***85_$#@&&&'''!$]8*[))t=0!#AazxsfsfsffA'0gt=0[[[[[[,&/<-%.&@@&''/$<-6k6d5]]]]]]]]]___$$$$$$_<a}^mrvF/3=3,Az#  ..&",
"&@/$*;;>[0[ !/>c>**6<_$#####$$$]8co)o===0!/Ajfjffjbjm/0))))g======3'/5-6!!####$$5+662z%6++++++++++++((ddd<<+21{FmmFkkk2::z/'  .&",
"&@//8;c'0=[ @#8q[!c*8d5$$//$_5<+6@))g===0']znfbiibjv6#3))ogwA3====3./5-6q$$$$$$_(6*61k%**888*******86666%%(+la{rmmr:1}}12]!   '&",
"&&$/8;*[0=3 &#58'.]8**%dddd(++(6>.tg=30,  #:{Bfb9fj-8_&30#:2k[===3[./]+8>_5<<ddd%*;6{x&'!q>c;;;;;;;;cq!qqq8%-h:fmyi{{{1az$.  .&&",
"'!/_6c*&0=3 '#]%>$6****866668cc*8!0[, [, .A{{}akm2+-%>!'n:a1k!0[,  ./_+*8666%%%6*cc6^x..@!!>cccw.,,[00, ,.!6%-(2k}}{}:az$'  '&&&",
"&##56**@0=0 .#$%%%**q!qq_>*>'c;;_$    [  '2{^}255Akh~6q12a:1A_ ''.'&#$(***********8(~k'##56*q,0[,[033=3,  &/5(+hxz::22z/'.'&&&&'",
"//#d8**03=[  #/%%%] 0 .!#]8!&q;;>/#.     w2{^12/5+(xkhl2aa{:z#  .@&&#$d*[[,,.!**>'.<~kq$d6*'[[g))g=====[  '#$(~kA]]]]/!&&&&''&@#",
"#/5(**@0=0   !#%%!0==[ ##<8.[#c;;5#!&.. .!a}{2z_5~668kk2|}{:]&   ..&#$<c3=['/_**',@<+nA(8*&[0ottg====3[   &#](^k555_#!!##//$$$$$",
"5((6**[03,  .!#6%#0=3,'#/%*3[&#c;;5$!@&&&!2}{2p5d8;_d%zk1}2z#    [[&#$<>3=,!$_8c[ '<dhk68![3=Hk3==30[     &/5+nA<5_$$$$$$$$$$_]5",
"%6****[[,  &&@#<%/[=[ @#_6c3'&!#q;c<$/&&&&a1}2<<+;u[_d%h2anzA'  .=3&!$<*,,!/$d6,3&22n}k6&,,wAjx'[,.'  ..  &#5{x~(55555<<<<d(++++",
"******' .  &&!$<%5,[ .!#58q[#####q;c6_$$$$A2}n<d8uu!#/8%msesj2w'&['&&$<*'@$$<(q==#2122k'AniBjfk!   ' .@'  @#dkp-%%((++++(((%688>",
"******@.&@!####5%8.'!###d8/!#$]55<c;c%<5555n:nd(;;;8/#$8sbfesfa!&&&&&$<*q/$5(>[=0/:a11anb999jm]@'.    .''@/<2zlh%688888888******",
"qqc>>*q!####$]5d%%####$5(855d%66688;;;8(+((%217-;;;c(++~fbhvssj2!&&.!$d*c$](*&,[ #1aa1:99jj9fz5#########_<nk1:2a266668cw.'@!qcqq",
"..@$_*q##_5(++((%%_/]<++(868****>cqqqc;;;;;;;n66;;;;888%nfibbjssz/@!$$%**]d*q   .#p2aa1a999fkd<___]]55<hnkAh11}1:2:nA,3[[[.&'[..",
".'@//*>5d+((%%%%%%d((%%6***>'[[0[[[,  ''.[00.!>8;;;;***8<nffj99jfn<__5%**6*c...''!512aabhbjv777~~~~^h2xxA%+~:}{}}}}:A[3330 .'...",
"@&@#/>86%%688*886%%%%%6**c'0[[003000[[[[[[0[ .#!,''!**q'@5(6BBBvj9p<(+6*8c;#@@!!@&$<dbjbbjjh{}}:2kkxxA555>%~h:::1:2A/'    .'&&&&",
"&@&##8*****c!&@!!@#$5%***,[=to)o===ggg======[    !#_*c0,.!5-----~~~+(%8xmyz_$$$$$$$]<~BjvkkkkxxwAq/!@@'.!#8(~l222A/$&   ..'&@@&&",
"&'.!/6**>'000[[,,, '#]***![g)ot=0[[[[[[[[[[,    '##5*&.&!5(8'8%%%%(%%xFsmy5$$$_]]]_$586%/#!&&@!!'[3=3,..&#c*866/_/! , .''&&@@&&&",
"...#$8*q,,0o))o)o0 '#_8**q'[,, ,.  .      .     !#$6>&#]<6&['#]88888BFsvrB%%%(++++++(**c.[[,[[00000[.''.@#_***>'.    '&&'''.   ."};
